<svg width="137" height="136" viewBox="0 0 137 136" fill="none" xmlns="http://www.w3.org/2000/svg">
<circle cx="68.5" cy="68" r="68" fill="#FFEAEC"/>
<path d="M30.0612 93.5262H107.784L110.289 44.2109H27.5635L30.0612 93.5262Z" fill="url(#paint0_linear_1394_319)"/>
<path opacity="0.64" d="M102.108 66.7814H33.6394L32.6992 49.6624H103.189L102.108 66.7814ZM34.2147 66.1991H101.519L102.543 50.2938H33.3517L34.2147 66.1991Z" fill="white"/>
<path opacity="0.64" d="M101.161 86.482H35.6111L34.8394 71.0469H102.108L101.161 86.482ZM36.1584 85.8436H100.565L101.456 71.6081H35.4568L36.1584 85.8436Z" fill="white"/>
<path opacity="0.64" d="M75.7346 60.0812H61.2256L60.6924 55.9488H76.2678L75.7346 60.0812ZM61.7588 59.4708H75.2014L75.5803 56.5592H61.415L61.7588 59.4708Z" fill="white"/>
<path opacity="0.64" d="M75.7351 80.8203H61.226L60.7139 76.723H76.2893L75.7351 80.8203ZM61.7592 80.2309H75.2018L75.5807 77.3193H61.4155L61.7592 80.2309Z" fill="white"/>
<path d="M40.8386 93.5262L40.0879 98.9004L38.5724 109.691H35.5977V93.5262H40.8386Z" fill="#5C57F3" fill-opacity="0.6"/>
<path d="M40.8386 93.5262L40.0879 98.9004H35.5977V93.5262H40.8386Z" fill="black" fill-opacity="0.18"/>
<path d="M97.0073 93.5262L97.758 98.9004L99.2805 109.691H102.248V93.5262H97.0073Z" fill="#5C57F3" fill-opacity="0.6"/>
<path d="M97.0073 93.5262L97.758 98.9004H102.248V93.5262H97.0073Z" fill="black" fill-opacity="0.18"/>
<path d="M84.6934 27.4547C84.6934 22.1747 80.413 17.8943 75.133 17.8943H61.6615C56.3815 17.8943 52.1011 22.1747 52.1011 27.4547C52.1011 32.7348 56.3814 37.0151 61.6615 37.0151H75.133C80.413 37.0151 84.6934 32.7348 84.6934 27.4547Z" fill="#FF6272"/>
<path d="M80.2851 35.4356H75.0703L77.3619 37.7272C78.4406 38.8059 80.2851 38.0419 80.2851 36.5163V35.4356Z" fill="#FF6272"/>
<path d="M68.3242 20.9364C68.4073 20.9357 68.4896 20.9514 68.5665 20.9827C68.6434 21.0139 68.7132 21.0599 68.772 21.1182C68.8307 21.1764 68.8772 21.2457 68.9086 21.3219C68.9401 21.3982 68.956 21.4799 68.9553 21.5622V21.8839C69.7666 21.9733 70.5462 22.2472 71.2333 22.6843C71.3652 22.7482 71.4763 22.8475 71.5541 22.971C71.6319 23.0944 71.6732 23.237 71.6733 23.3825C71.6733 23.489 71.652 23.5944 71.6105 23.6927C71.569 23.7909 71.5083 23.88 71.4318 23.9547C71.3552 24.0294 71.2645 24.0883 71.1648 24.1279C71.0651 24.1675 70.9585 24.1871 70.8511 24.1854C70.695 24.1823 70.5428 24.1366 70.4111 24.0533C69.9446 23.7638 69.4357 23.5477 68.9025 23.4124V26.2076C71.1352 26.7612 72.0907 27.6514 72.0907 29.1999C72.0907 30.8007 70.8335 31.8654 68.9604 32.04V32.9127C68.961 32.9951 68.9452 33.0768 68.9137 33.153C68.8822 33.2292 68.8357 33.2985 68.777 33.3567C68.7183 33.415 68.6484 33.4611 68.5716 33.4923C68.4947 33.5235 68.4123 33.5392 68.3293 33.5386C68.2454 33.5396 68.1621 33.5242 68.0843 33.4932C68.0064 33.4623 67.9354 33.4165 67.8754 33.3584C67.8154 33.3003 67.7676 33.231 67.7346 33.1545C67.7015 33.078 67.6841 32.9959 67.6831 32.9127V32.01C66.5952 31.8958 65.5557 31.5041 64.6659 30.873C64.5436 30.8015 64.4425 30.6994 64.3727 30.5768C64.303 30.4542 64.2671 30.3156 64.2686 30.1748C64.2693 30.0263 64.3115 29.881 64.3905 29.7548C64.4695 29.6287 64.5822 29.5268 64.7161 29.4604C64.85 29.394 64.9999 29.3657 65.149 29.3787C65.2982 29.3917 65.4408 29.4455 65.561 29.534C66.1995 30.0225 66.9442 30.3564 67.7359 30.509V27.6688C65.5911 27.1153 64.5929 26.3124 64.5929 24.6766C64.5929 23.1182 65.8501 22.041 67.6755 21.8964V21.5897C67.6728 21.504 67.6876 21.4186 67.7191 21.3388C67.7506 21.259 67.7981 21.1863 67.8588 21.1252C67.9194 21.0642 67.992 21.0159 68.072 20.9835C68.152 20.951 68.2378 20.935 68.3242 20.9364ZM67.7384 25.9234V23.3351C66.798 23.4224 66.3278 23.9186 66.3278 24.5594C66.3278 25.2003 66.6069 25.5494 67.7384 25.9234ZM68.8975 27.9481V30.5987C69.8379 30.4965 70.3508 30.0302 70.3508 29.332C70.3508 28.6812 70.0289 28.2872 68.8975 27.9381V27.9481Z" fill="white"/>
<defs>
<linearGradient id="paint0_linear_1394_319" x1="68.9261" y1="44.2109" x2="68.9261" y2="93.5262" gradientUnits="userSpaceOnUse">
<stop offset="0.348958" stop-color="#5C57F3"/>
<stop offset="1" stop-color="#514DD4"/>
</linearGradient>
</defs>
</svg>
