<svg width="137" height="136" viewBox="0 0 137 136" fill="none" xmlns="http://www.w3.org/2000/svg">
<circle cx="68.5" cy="68" r="68" fill="#FFEAEC"/>
<mask id="mask0_1394_17" style="mask-type:alpha" maskUnits="userSpaceOnUse" x="0" y="0" width="137" height="136">
<circle cx="68.5" cy="68" r="68" fill="#FFEAEC"/>
</mask>
<g mask="url(#mask0_1394_17)">
<path d="M43.0796 77.3685C44.2239 94.4552 50.492 112.513 53.1013 115.361C57.1391 119.774 76.8325 125.324 84.5655 126.23C87.0946 126.527 90.2651 109.332 88.3482 107.39C86.4314 105.448 65.0835 101.759 63.7205 100.803C62.9917 100.296 56.0093 86.8901 51.0459 78.2164C46.4177 70.1585 42.7298 72.1875 43.0796 77.3685Z" fill="#FFBE90"/>
<path d="M81.4302 105.39C81.4302 105.39 87.086 101.666 89.9358 100.571C92.7856 99.4772 104.906 99.2888 105.096 101.89C105.336 105.245 98.3613 106.731 94.8482 107.006C94.8482 107.006 95.424 114.774 90.6501 116.919C85.8761 119.064 81.4302 105.39 81.4302 105.39Z" fill="#DD6A57"/>
<path d="M84.4189 126.215C86.9262 126.94 98.697 129.114 102.108 129.005C105.519 128.896 115.322 127.853 115.497 125.244C115.672 122.636 112.778 122.715 112.778 122.715C112.778 122.715 116.845 121.621 116.787 118.983C116.729 116.346 112.224 116.607 112.224 116.607C112.224 116.607 116.321 115.157 116.073 112.556C115.825 109.955 111.343 110.947 111.343 110.947C111.343 110.947 115.147 109.817 114.025 107.737C112.669 105.237 105.891 108.1 102.115 107.947C101.255 107.911 84.7761 106.005 84.7761 106.005L84.4189 126.215Z" fill="#DD6A57"/>
<path d="M112.779 122.716C112.779 122.716 115.694 122.636 115.497 125.245C115.3 127.853 105.519 128.868 102.108 129.006C98.6973 129.143 87.0285 126.933 84.4557 126.223C81.7138 125.842 78.9957 125.307 76.3145 124.622L78.7561 104.434C79.7983 104.68 80.8187 104.919 81.7808 105.158C83.0563 104.332 87.5095 101.492 89.9366 100.564C92.7791 99.4699 104.907 99.2815 105.097 101.883C105.134 102.504 104.93 103.116 104.528 103.593C102.866 106.448 99.0253 106.854 95.884 107.267C99.069 107.629 101.78 107.926 102.116 107.941C105.891 108.093 112.669 105.231 114.025 107.731C115.082 109.687 111.773 110.803 111.379 110.933L111.707 110.868C111.735 110.854 111.767 110.847 111.798 110.847C111.83 110.847 111.861 110.854 111.889 110.868C113.107 110.687 115.854 110.528 116.051 112.571C116.248 114.615 113.755 115.955 112.684 116.433C112.8 116.433 112.83 116.528 112.771 116.622C113.981 116.622 116.714 116.941 116.765 118.999C116.846 121.622 112.779 122.716 112.779 122.716Z" fill="#DBDBDB"/>
<path d="M111.728 110.868C106.736 112.962 104.192 113.042 98.9299 112.158C98.8278 112.158 98.7768 112.289 98.8789 112.31C103.981 113.622 107.166 114.013 111.838 111.1C112.071 110.955 111.962 110.767 111.728 110.868Z" fill="#515070"/>
<path d="M112.618 116.433C107.246 118.158 104.484 118.245 98.9084 117.745C98.8282 117.745 98.8064 117.868 98.9084 117.882C104.338 118.832 107.545 119.143 112.684 116.716C112.895 116.607 112.866 116.332 112.618 116.433Z" fill="#515070"/>
<path d="M112.494 122.68C107.173 123.977 104.148 124.201 98.7985 123.027C98.7757 123.026 98.7531 123.032 98.7343 123.045C98.7155 123.058 98.7017 123.077 98.6949 123.099C98.6882 123.121 98.689 123.144 98.6972 123.165C98.7054 123.186 98.7206 123.204 98.7402 123.216C104.083 124.948 107.858 124.665 112.515 122.846C112.836 122.716 112.829 122.6 112.494 122.68Z" fill="#515070"/>
<path d="M104.856 102.832C102.859 106.057 98.2231 106.129 94.8339 106.658C94.7834 106.663 94.7348 106.68 94.6925 106.708C94.6502 106.736 94.6155 106.774 94.5917 106.818C94.5678 106.863 94.5555 106.913 94.5558 106.963C94.5561 107.014 94.569 107.063 94.5934 107.108C94.5934 110.376 93.6824 114.999 90.8471 116.991C90.8302 117.003 90.8182 117.02 90.8136 117.04C90.809 117.059 90.8121 117.08 90.8223 117.098C90.8325 117.115 90.8491 117.128 90.8686 117.134C90.8881 117.14 90.9091 117.138 90.9273 117.129C94.2654 115.405 95.5482 110.934 95.3004 107.354C98.7843 106.868 103.427 106.593 104.899 102.854L104.856 102.832Z" fill="#515070"/>
<path d="M44.456 100.839L60.6947 94.317C60.6947 94.317 54.9295 82.3679 51.0375 76.5782C47.1455 70.7884 41.6572 69.4189 41.7884 80.0491C41.8905 89.0635 44.456 100.839 44.456 100.839Z" fill="#37474F"/>
<path d="M14.5732 134.694C14.5732 134.694 64.0983 134.455 64.0983 134.462C64.0983 135.426 53.3551 79.3906 48.1803 72.7168C47.0725 71.2676 39.5071 69.4632 36.0888 72.6299C21.1329 86.4847 14.5732 135.317 14.5732 134.694Z" fill="#5853F7"/>
<path d="M46.2864 77.7381C43.9249 78.3033 38.9979 75.5642 37.2997 72.2165C37.1904 71.9846 37.6131 69.6295 38.0286 66.731C38.2472 64.9775 38.4586 63.0137 38.5169 61.2094C38.5169 60.8398 49.8067 64.3398 49.8067 64.3398C49.0811 66.5717 48.6331 68.8835 48.4729 71.2237C48.4684 71.4663 48.4855 71.7088 48.5239 71.9483C48.5284 71.9893 48.5284 72.0306 48.5239 72.0715C48.6916 73.5063 48.8301 77.1294 46.2864 77.7381Z" fill="#FFBE90"/>
<path d="M48.5017 71.9704C48.5017 71.9704 48.5017 72.0501 48.5017 72.0936C48.1135 72.1232 47.7236 72.1232 47.3355 72.0936C40.6447 71.7241 39.1579 63.3329 38.8882 61.2242C40.8998 61.5793 49.7698 64.3329 49.7698 64.3329C49.0446 66.5674 48.5967 68.8816 48.4361 71.2241C48.4345 71.4743 48.4565 71.7242 48.5017 71.9704Z" fill="#090808" fill-opacity="0.15"/>
<path d="M36.8538 47.1007C35.6148 51.1151 37.7212 62.7091 40.5928 65.2961C44.7472 69.0496 51.5255 69.4192 54.7689 64.4555C57.881 59.6367 54.8563 44.5718 51.6567 42.224C46.9411 38.7531 38.6832 41.1805 36.8538 47.1007Z" fill="#FFBE90"/>
<path d="M48.21 54.0648C48.21 54.0648 48.159 54.1082 48.1663 54.1445C48.3266 54.9198 48.3849 55.8328 47.7217 56.2169C47.7217 56.2169 47.7217 56.2676 47.7217 56.2604C48.5817 55.9923 48.4942 54.7749 48.21 54.0648Z" fill="#515070"/>
<path d="M47.3712 53.3683C46.0957 53.4915 46.4383 56.0349 47.6263 55.919C48.8143 55.803 48.4426 53.2886 47.3712 53.3683Z" fill="#515070"/>
<path d="M52.8088 53.5714C52.8088 53.5714 52.8744 53.5714 52.8817 53.6293C52.9619 54.4192 53.1878 55.3104 53.9458 55.4771V55.5206C53.0493 55.5133 52.7578 54.3322 52.8088 53.5714Z" fill="#515070"/>
<path d="M53.4068 52.6514C54.6605 52.3833 55.1124 54.9122 53.9462 55.1586C52.78 55.405 52.35 52.876 53.4068 52.6514Z" fill="#515070"/>
<path d="M46.1982 52.34C46.521 52.1995 46.8349 52.0398 47.1384 51.8617C47.5028 51.6733 47.8089 51.5646 48.0057 51.1951C48.0516 51.0834 48.0594 50.9598 48.0278 50.8432C47.9962 50.7267 47.927 50.6237 47.8308 50.5502C47.6185 50.4367 47.3796 50.3817 47.1387 50.3906C46.8979 50.3995 46.6638 50.4721 46.4606 50.6009C46.0093 50.797 45.6479 51.1536 45.4475 51.6009C45.4067 51.7049 45.3974 51.8185 45.4208 51.9276C45.4441 52.0368 45.4991 52.1368 45.5788 52.2154C45.6586 52.2939 45.7597 52.3475 45.8698 52.3697C45.9798 52.3918 46.094 52.3815 46.1982 52.34Z" fill="#515070"/>
<path d="M54.2153 51.2392C53.8755 51.2182 53.5372 51.1771 53.2022 51.116C52.826 51.1239 52.4575 51.0094 52.1527 50.79C52.0713 50.7018 52.0214 50.5893 52.0109 50.4701C52.0003 50.3509 52.0297 50.2315 52.0944 50.1305C52.2519 49.9495 52.4553 49.8137 52.6834 49.7373C52.9115 49.6608 53.1561 49.6465 53.3917 49.6958C53.8848 49.7237 54.3498 49.9329 54.6964 50.2827C54.7751 50.3682 54.826 50.4754 54.8421 50.5901C54.8583 50.7049 54.839 50.8219 54.7869 50.9255C54.7348 51.0292 54.6522 51.1147 54.5502 51.1707C54.4481 51.2267 54.3313 51.2506 54.2153 51.2392Z" fill="#515070"/>
<path d="M48.9891 58.9923C49.2329 59.2758 49.5328 59.5064 49.8701 59.6698C50.2074 59.8331 50.5749 59.9256 50.9497 59.9416C51.2778 59.9595 51.6067 59.9302 51.9264 59.8546C51.9881 59.8444 52.049 59.8299 52.1086 59.8111L52.2762 59.7604C52.3184 59.7462 52.3548 59.7187 52.3798 59.6821C52.4048 59.6455 52.417 59.6017 52.4147 59.5575C52.4188 59.5311 52.4188 59.5042 52.4147 59.4778V59.4053C52.3491 58.8039 52.1669 57.8909 52.1669 57.8909C52.4001 57.9706 53.6246 58.3257 53.5444 58.0068C53.0996 55.2846 52.3792 52.6141 51.3943 50.0359C51.3847 50.0222 51.3709 50.0119 51.355 50.0064C51.339 50.0009 51.3218 50.0006 51.3057 50.0054C51.2895 50.0102 51.2753 50.0199 51.2651 50.0332C51.2548 50.0465 51.249 50.0627 51.2486 50.0794C51.6494 52.5939 52.4876 55.0214 52.9249 57.5431C52.495 57.4106 52.0484 57.3399 51.5984 57.3329C51.5182 57.3329 51.992 59.0938 51.9993 59.3691C51.5055 59.4877 50.9927 59.5059 50.4917 59.4224C49.9907 59.339 49.5118 59.1557 49.0839 58.8836C48.9891 58.8764 48.9308 58.9343 48.9891 58.9923Z" fill="#515070"/>
<path d="M51.5256 59.5942C51.2489 60.0706 50.8552 60.4695 50.3813 60.7536C50.1173 60.8995 49.8143 60.9603 49.514 60.9275C48.858 60.8478 48.7852 60.2753 48.7852 59.7681C48.8125 59.4959 48.8737 59.2282 48.9674 58.971C49.73 59.4481 50.6275 59.6668 51.5256 59.5942Z" fill="#515070"/>
<path d="M50.3813 60.7534C50.1173 60.8993 49.8143 60.96 49.514 60.9273C48.858 60.8476 48.7852 60.2751 48.7852 59.7679C49.1254 59.7186 49.4722 59.7905 49.7643 59.9708C50.0563 60.1512 50.2749 60.4283 50.3813 60.7534Z" fill="#FF99BA"/>
<path d="M53.873 45.8473C53.3045 44.9125 52.6632 43.9705 52.0364 43.8545C51.4095 43.7386 51.2055 45.2531 49.8498 45.5284C48.0131 45.9052 46.8834 44.3256 44.2596 44.4922C40.4987 44.7386 39.2743 48.0501 39.8865 53.3254C40.4404 58.0282 37.6417 58.8543 37.6417 58.8543C37.6417 58.8543 34.5149 48.7095 36.9857 44.9053C39.4565 41.101 45.9942 38.6662 50.9577 41.3329C52.7798 42.3111 53.873 45.8473 53.873 45.8473Z" fill="#515070"/>
<path d="M39.7844 56.6875C39.7844 56.6875 37.0804 52.9846 35.4113 53.9556C33.7423 54.9266 35.8049 60.3179 37.8238 61.0207C38.0767 61.1298 38.3492 61.1868 38.6248 61.1883C38.9004 61.1898 39.1735 61.1357 39.4276 61.0294C39.6816 60.9231 39.9114 60.7667 40.103 60.5697C40.2946 60.3727 40.4441 60.1391 40.5424 59.8831L39.7844 56.6875Z" fill="#FFBE90"/>
<path d="M36.0234 55.4635V55.5142C37.4811 56.0577 38.21 57.3403 38.7566 58.6808C38.672 58.5416 38.558 58.4223 38.4224 58.3311C38.2868 58.24 38.133 58.1793 37.9715 58.1531C37.81 58.1269 37.6447 58.1359 37.487 58.1795C37.3294 58.2231 37.1831 58.3002 37.0584 58.4055C37.0584 58.4055 37.0584 58.4852 37.1021 58.4779C37.3487 58.3956 37.6148 58.3912 37.864 58.4651C38.1132 58.539 38.3334 58.6878 38.4942 58.891C38.7574 59.2316 38.9845 59.5983 39.1721 59.9852C39.2449 60.1156 39.4709 60.0431 39.4199 59.8982V59.862C39.3907 58.1011 37.9549 55.6302 36.0234 55.4635Z" fill="#515070"/>
<path d="M113.988 80.5493H62.5684V137.164H113.988V80.5493Z" fill="#5853F7"/>
<path d="M140.547 80.5493H113.996V137.164H140.547V80.5493Z" fill="#5853F7"/>
<path opacity="0.1" d="M140.547 80.5493H113.996V137.164H140.547V80.5493Z" fill="black"/>
<path d="M92.647 92.7809H91.5537H90.7374L90.2709 91.8389L89.615 92.7809L88.7331 90.8462L87.8876 92.7809H85.4824H84.3819L83.9883 91.4911L83.6093 92.7809H82.895V80.5493H92.647V92.7809Z" fill="#FF6272"/>
<path d="M138.718 133.266C136.75 129.237 134.807 125.198 132.887 121.15L127.122 108.969L121.423 96.7663C119.533 92.6794 117.667 88.5732 115.825 84.4477C117.793 88.4766 119.737 92.5152 121.656 96.5634L127.414 108.744L133.099 120.976C134.994 125.058 136.867 129.155 138.718 133.266Z" fill="#5853F7"/>
<path d="M138.718 84.4477C136.867 88.5539 134.998 92.6601 133.113 96.7663L127.428 108.991L121.67 121.172C119.727 125.225 117.783 129.263 115.839 133.287C117.681 129.176 119.547 125.07 121.437 120.969L127.122 108.737L132.887 96.5562C134.801 92.5079 136.745 88.4718 138.718 84.4477Z" fill="#5853F7"/>
<path d="M32.1533 84.049C31.7524 95.8967 32.6343 120.222 38.3776 126.896C45.9139 135.657 65.7093 139.896 71.5693 141.171C74.1202 141.722 78.8577 125.077 77.1959 122.824C75.5342 120.57 55.1702 116.976 53.4939 115.737C51.8175 114.498 45.0028 92.6793 41.8979 83.1288C37.9768 71.0203 32.5031 74.0202 32.1533 84.049Z" fill="#FFBE90"/>
<path d="M84.5419 127.73C83.5507 126.846 84.0098 126.324 86.3713 126.476C88.7327 126.629 97.9599 129.223 98.594 125.947C99.2281 122.672 86.2037 119.201 82.2169 119.245C78.2301 119.288 71.8818 120.745 71.8818 120.745C74.2943 121.926 79.8627 125.353 84.5419 127.73Z" fill="#DD6A57"/>
<path d="M65.126 139.208C72.0281 142.294 80.4317 146.555 88.9155 145.628C89.8606 145.548 90.7513 145.155 91.4446 144.512C95.2565 144.164 96.2331 142.273 96.2331 142.273C99.6805 140.867 100.417 138.795 100.417 138.795C100.417 138.795 104.885 138.338 105.059 135.606C105.256 132.541 98.9444 133.787 95.0451 132.353C86.1313 129.077 74.3677 121.947 71.8897 120.759L65.126 139.208Z" fill="#DD6A57"/>
<path d="M105.059 135.607C104.884 138.339 100.416 138.795 100.416 138.795C100.321 139.027 99.4686 140.933 96.2398 142.252C96.2398 142.252 95.2632 144.143 91.4513 144.491C91.4513 144.491 91.4513 144.491 91.4513 144.527C90.7603 145.146 89.8854 145.525 88.9587 145.607C81.3714 146.433 73.857 143.121 67.414 140.208C66.2114 139.918 64.863 139.585 63.4199 139.201L69.9212 120.02C70.723 120.237 71.4955 120.448 72.2171 120.658C73.4926 120.382 78.7767 119.252 82.2679 119.208C86.2255 119.165 99.2937 122.629 98.645 125.911C97.9964 129.194 88.8129 126.592 86.4223 126.44C84.2941 126.303 83.711 126.716 84.3378 127.44C87.8218 129.274 91.4115 130.903 95.0883 132.317C98.9439 133.788 105.256 132.542 105.059 135.607Z" fill="#DBDBDB"/>
<path d="M83.2747 135.454C85.8737 136.443 88.5378 137.254 91.2482 137.882C94.2555 138.382 97.2957 138.663 100.344 138.722C100.364 138.722 100.382 138.73 100.396 138.744C100.409 138.757 100.417 138.776 100.417 138.795C100.417 138.814 100.409 138.832 100.396 138.846C100.382 138.86 100.364 138.867 100.344 138.867C94.4437 139.348 88.5237 138.208 83.2309 135.57C83.0852 135.512 83.1435 135.411 83.2747 135.454Z" fill="#515070"/>
<path d="M31.3364 102.68L48.3258 98.4194C48.3258 98.4194 44.2589 85.8037 41.1977 79.5792C38.1366 73.3546 32.8889 71.2098 31.5624 81.753C30.4181 90.6732 31.3364 102.68 31.3364 102.68Z" fill="#37474F"/>
<path d="M92.909 102.533H83.3518C82.7166 102.533 82.2012 103.049 82.2012 103.685V113.252C82.2012 113.888 82.7166 114.404 83.3518 114.404H92.909C93.5442 114.404 94.0596 113.888 94.0596 113.252V103.685C94.0605 103.049 93.5451 102.533 92.909 102.533Z" fill="white"/>
<path d="M86.6997 104.185C86.6997 104.185 91.6661 104.198 91.8121 104.191C91.959 104.185 92.1383 104.431 91.9355 104.634C91.6625 104.908 89.5357 107.037 89.5357 107.037L86.6997 104.185Z" fill="url(#paint0_linear_1394_17)"/>
<path d="M89.5796 112.755C89.5796 112.755 84.6132 112.742 84.4672 112.749C84.3204 112.755 84.141 112.509 84.3438 112.306C84.6168 112.032 86.7517 109.885 86.7517 109.885L89.5796 112.755Z" fill="url(#paint1_linear_1394_17)"/>
<path d="M92.29 109.801L89.5508 107.04L86.8045 104.28L86.7027 104.182L83.9807 106.932C83.95 106.961 83.9356 107 83.9383 107.04C83.9401 107.071 83.9518 107.101 83.9744 107.125L86.7405 109.886H86.7531L89.4607 112.656L89.5634 112.753L92.2846 109.994C92.3152 109.965 92.3296 109.925 92.3269 109.886C92.3233 109.855 92.3116 109.825 92.29 109.801Z" fill="#5D58F6"/>
</g>
<defs>
<linearGradient id="paint0_linear_1394_17" x1="86.7866" y1="104.403" x2="90.8879" y2="105.674" gradientUnits="userSpaceOnUse">
<stop stop-color="#5D58F6" stop-opacity="0.85"/>
<stop offset="1" stop-color="#5D58F6" stop-opacity="0.6"/>
</linearGradient>
<linearGradient id="paint1_linear_1394_17" x1="85.4458" y1="111.113" x2="87.3376" y2="113.126" gradientUnits="userSpaceOnUse">
<stop stop-color="#5D58F6" stop-opacity="0.85"/>
<stop offset="1" stop-color="#5D58F6" stop-opacity="0.6"/>
</linearGradient>
</defs>
</svg>
