<svg width="137" height="136" viewBox="0 0 137 136" fill="none" xmlns="http://www.w3.org/2000/svg">
<circle cx="68.5" cy="68" r="68" fill="#FFEAEC"/>
<g opacity="0.5">
<path opacity="0.5" d="M119.392 44.5336C119.392 44.8182 119.308 45.0964 119.15 45.333C118.992 45.5696 118.767 45.754 118.504 45.8627C118.241 45.9715 117.951 45.9998 117.672 45.9441C117.393 45.8883 117.137 45.751 116.936 45.5496C116.735 45.3481 116.598 45.0915 116.543 44.8123C116.488 44.5331 116.517 44.2438 116.626 43.981C116.735 43.7182 116.92 43.4938 117.157 43.3361C117.394 43.1785 117.672 43.0946 117.957 43.0952C118.146 43.0952 118.333 43.1324 118.507 43.2048C118.681 43.2771 118.84 43.3831 118.973 43.5167C119.106 43.6503 119.212 43.8089 119.284 43.9834C119.356 44.1579 119.393 44.3448 119.392 44.5336Z" fill="#FF6272"/>
<path opacity="0.5" d="M117.957 46.9718C117.471 46.9749 116.994 46.8332 116.588 46.5648C116.182 46.2963 115.866 45.9133 115.678 45.4644C115.49 45.0154 115.441 44.5209 115.535 44.0435C115.629 43.5662 115.863 43.1276 116.207 42.7835C116.551 42.4395 116.99 42.2055 117.467 42.1113C117.944 42.0172 118.439 42.067 118.888 42.2546C119.337 42.4422 119.72 42.7591 119.988 43.1649C120.257 43.5707 120.398 44.0472 120.395 44.5337C120.391 45.1791 120.133 45.7969 119.677 46.2533C119.22 46.7097 118.602 46.9678 117.957 46.9718ZM117.957 42.4022C117.536 42.4023 117.125 42.5269 116.774 42.7604C116.424 42.994 116.151 43.326 115.989 43.7145C115.828 44.1031 115.784 44.5309 115.865 44.9439C115.947 45.357 116.148 45.7368 116.445 46.0355C116.741 46.3342 117.119 46.5384 117.532 46.6223C117.944 46.7063 118.372 46.6663 118.762 46.5073C119.152 46.3483 119.486 46.0775 119.722 45.729C119.958 45.3805 120.085 44.9699 120.089 44.549C120.091 44.2678 120.037 43.989 119.931 43.7287C119.824 43.4683 119.668 43.2315 119.47 43.0319C119.272 42.8324 119.036 42.674 118.776 42.566C118.517 42.4579 118.238 42.4022 117.957 42.4022Z" fill="#FF6272"/>
<path opacity="0.5" d="M31.4407 30.7788C31.4413 31.0634 31.3574 31.3418 31.1998 31.5787C31.0421 31.8157 30.8176 32.0005 30.5549 32.1098C30.2921 32.2192 30.0028 32.2481 29.7236 32.1929C29.4444 32.1378 29.1878 32.001 28.9863 31.8C28.7849 31.599 28.6476 31.3427 28.5918 31.0636C28.5361 30.7845 28.5644 30.4951 28.6732 30.2321C28.7819 29.9691 28.9663 29.7443 29.2029 29.5861C29.4395 29.4279 29.7177 29.3435 30.0023 29.3435C30.3833 29.3435 30.7486 29.4946 31.0183 29.7637C31.288 30.0328 31.4399 30.3978 31.4407 30.7788Z" fill="#FF6272"/>
<path opacity="0.5" d="M30.0025 33.2199C29.5166 33.2229 29.0408 33.0816 28.6353 32.8139C28.2298 32.5461 27.9129 32.164 27.7249 31.716C27.5368 31.268 27.4861 30.7742 27.579 30.2972C27.6719 29.8203 27.9044 29.3817 28.2469 29.037C28.5894 28.6924 29.0265 28.4572 29.5029 28.3613C29.9792 28.2653 30.4733 28.313 30.9225 28.4983C31.3717 28.6835 31.7558 28.998 32.0261 29.4018C32.2963 29.8056 32.4406 30.2805 32.4407 30.7664C32.4407 31.4145 32.1843 32.0362 31.7275 32.4959C31.2707 32.9556 30.6505 33.2158 30.0025 33.2199ZM30.0025 28.6472C29.5766 28.6442 29.1595 28.7679 28.8041 29.0026C28.4487 29.2374 28.1712 29.5725 28.0068 29.9654C27.8424 30.3583 27.7986 30.7912 27.8809 31.209C27.9633 31.6269 28.1681 32.0108 28.4692 32.312C28.7704 32.6131 29.1543 32.8179 29.5722 32.9003C29.99 32.9826 30.4229 32.9388 30.8158 32.7744C31.2087 32.61 31.5438 32.3325 31.7786 31.9771C32.0133 31.6217 32.137 31.2046 32.134 30.7787C32.13 30.2146 31.9041 29.6748 31.5052 29.276C31.1064 28.8771 30.5666 28.6512 30.0025 28.6472Z" fill="#FF6272"/>
<path opacity="0.5" d="M84.2707 52.127H65.6856V23.3968H41.16V30.932H32.2876V30.6253H40.8533V23.0901H65.9923V51.8203H83.964V43.8618H105V36.1119H118.11V42.2487H117.804V36.4186H105.306V44.1685H84.2707V52.127Z" fill="#FF6272"/>
</g>
<path d="M35.109 15.8309C34.8545 13.2792 33.0941 10.7368 30.0027 10.7368C26.9113 10.7368 25.154 13.2915 24.8995 15.8309C24.51 19.7718 27.1659 23.3416 30.0027 26.5986C32.8395 23.3538 35.4985 19.784 35.109 15.8309ZM30.0027 18.6646C29.4494 18.6646 28.9085 18.5005 28.4485 18.193C27.9885 17.8856 27.63 17.4486 27.4184 16.9373C27.2068 16.426 27.1515 15.8635 27.2597 15.3209C27.3679 14.7782 27.6346 14.2799 28.026 13.8888C28.4175 13.4978 28.9162 13.2316 29.4589 13.1241C30.0017 13.0165 30.5642 13.0723 31.0752 13.2845C31.5862 13.4966 32.0228 13.8556 32.3298 14.316C32.6368 14.7763 32.8003 15.3174 32.7997 15.8707C32.8013 16.2389 32.7301 16.6038 32.5902 16.9444C32.4504 17.285 32.2445 17.5946 31.9846 17.8553C31.7247 18.1161 31.4158 18.3229 31.0757 18.4639C30.7355 18.6049 30.3709 18.6773 30.0027 18.6769V18.6646Z" fill="url(#paint0_linear_1394_1073)"/>
<path d="M53.75 91.3069C57.9591 91.3069 61.0555 94.6971 60.6571 98.8798C60.2586 103.062 56.5196 106.454 52.3063 106.454H48.4102L49.8539 91.3069H53.75Z" fill="#2D2F4D"/>
<path d="M54.1367 104.127C57.3168 101.093 57.6577 96.2889 54.898 93.396C52.1384 90.5031 47.3232 90.6173 44.143 93.651C40.9628 96.6848 40.6219 101.489 43.3816 104.382C46.1413 107.275 50.9565 107.161 54.1367 104.127Z" fill="#2D2F4D"/>
<path d="M52.3379 102.241C54.3734 100.3 54.5917 97.2246 52.8255 95.3732C51.0594 93.5217 47.9775 93.595 45.942 95.5368C43.9065 97.4785 43.6881 100.554 45.4543 102.405C47.2205 104.256 50.3023 104.183 52.3379 102.241Z" fill="#48487A"/>
<path d="M106.969 91.3069C111.178 91.3069 114.275 94.6971 113.876 98.8798C113.478 103.062 109.739 106.454 105.526 106.454H101.629L103.073 91.3069H106.969Z" fill="#2D2F4D"/>
<path d="M107.378 104.124C110.558 101.09 110.899 96.2857 108.139 93.3928C105.38 90.5 100.564 90.6141 97.3842 93.6479C94.204 96.6816 93.8631 101.486 96.6228 104.379C99.3825 107.272 104.198 107.158 107.378 104.124Z" fill="#2D2F4D"/>
<path d="M105.579 102.238C107.615 100.296 107.833 97.2214 106.067 95.37C104.301 93.5186 101.219 93.5918 99.1832 95.5336C97.1477 97.4754 96.9293 100.55 98.6955 102.402C100.462 104.253 103.544 104.18 105.579 102.238Z" fill="#48487A"/>
<path d="M94.5518 91.3069C98.7608 91.3069 101.857 94.6971 101.459 98.8798C101.06 103.062 97.3213 106.454 93.1081 106.454H89.2119L90.6556 91.3069H94.5518Z" fill="#2D2F4D"/>
<path d="M41.1957 91.3069C45.4047 91.3069 48.5025 94.6971 48.1026 98.8798C47.7028 103.062 43.9652 106.454 39.7521 106.454H35.856L37.3067 91.3069H41.1957Z" fill="#2D2F4D"/>
<path d="M120.497 79.9714C119.798 79.0812 119.297 78.053 119.026 76.9548L111.293 46.0306C110.84 44.2167 109.249 43 107.33 43H66.9275L61.647 98.8123H119.27C119.86 98.8005 120.426 98.5738 120.861 98.1745C121.295 97.7752 121.569 97.231 121.631 96.644L122.757 84.742C122.872 83.6804 122.572 82.6156 121.92 81.77L120.497 79.9714Z" fill="#3F3C9E"/>
<path d="M105.54 81.779L104.122 79.9761C103.424 79.0857 102.923 78.0574 102.651 76.959L94.9208 46.031C94.4674 44.2169 92.8769 43 90.9586 43H30.9906C28.8435 43 26.9029 44.6564 26.5416 46.7985L21.974 73.8359L20.0389 94.3035C19.8994 95.8022 20.9374 97.0456 22.4232 97.1502L45.9185 98.8123H102.895C103.484 98.8005 104.049 98.5746 104.484 98.1768C104.918 97.779 105.193 97.2365 105.257 96.6507L106.383 84.7472C106.494 83.6862 106.193 82.6232 105.54 81.779Z" fill="#5853F6"/>
<path d="M27.5317 97.5241L27.6403 96.3801C28.1207 91.3175 32.6316 87.2131 37.7147 87.2131C42.7978 87.2131 46.529 91.3175 46.0487 96.3801L45.8232 98.8123L27.5317 97.5241Z" fill="#2D2F4D"/>
<path d="M80.751 98.8123L80.9823 96.3801C81.4629 91.3175 85.9772 87.2131 91.0641 87.2131C96.151 87.2131 99.8851 91.3175 99.4044 96.3801L99.1731 98.8123H80.751Z" fill="#2D2F4D"/>
<path d="M99.4032 96.3705L99.1736 98.8123H90.0303L90.7356 91.3074H94.5763C96.2143 91.288 97.8051 91.8588 99.0615 92.9167C99.4018 94.0338 99.5179 95.2078 99.4032 96.3705Z" fill="#2D2F4D"/>
<path d="M94.9296 104.123C98.1098 101.09 98.4507 96.2852 95.691 93.3924C92.9313 90.4995 88.1161 90.6136 84.936 93.6474C81.7558 96.6811 81.4149 101.486 84.1746 104.378C86.9343 107.271 91.7495 107.157 94.9296 104.123Z" fill="#48487A"/>
<path d="M93.1308 102.238C95.1663 100.296 95.3847 97.221 93.6185 95.3696C91.8523 93.5181 88.7704 93.5914 86.7349 95.5332C84.6994 97.4749 84.4811 100.55 86.2473 102.401C88.0134 104.253 91.0953 104.18 93.1308 102.238Z" fill="#B5ADC2"/>
<path d="M92.3052 96.2169C92.3627 96.6149 92.357 97.0194 92.2883 97.4157C91.9674 99.3223 90.2757 100.867 88.3294 101.023C87.9486 101.056 87.5652 101.034 87.1908 100.958C86.8812 100.894 86.6279 101.261 86.8249 101.495C87.1671 101.902 87.5978 102.228 88.085 102.448C88.5723 102.669 89.1036 102.778 89.6396 102.769C91.8253 102.761 93.7801 100.98 93.9687 98.8255C94.0254 98.2853 93.9554 97.7394 93.7641 97.23C93.5727 96.7207 93.2652 96.2615 92.8653 95.888C92.6472 95.6854 92.2587 95.9074 92.3052 96.2169Z" fill="white"/>
<path d="M103.131 95.2643H105.495L105.724 92.808H103.358L103.131 95.2643Z" fill="white"/>
<path d="M84.3038 78.3432H79.1138L79.2457 76.9786H84.4357L84.3038 78.3432ZM79.3974 78.0903H84.0642L84.1479 77.2315H79.4754L79.3974 78.0903Z" fill="#2D2F4D"/>
<path d="M99.0933 85.5756H91.2588V85.3199H99.0933C99.3089 85.3154 99.5154 85.2329 99.6746 85.0876C99.8338 84.9423 99.9347 84.7442 99.9585 84.5302L100.556 78.2068L100.811 78.2307L100.213 84.5541C100.182 84.831 100.052 85.0873 99.8455 85.2752C99.6395 85.4631 99.3722 85.5699 99.0933 85.5756Z" fill="#2D2F4D"/>
<path d="M80.1459 94.4455H51.1392V94.1895H79.9533C81.2597 89.1266 86.2061 85.1662 91.2585 85.1662V85.4222C86.2828 85.4222 81.4146 89.3432 80.1739 94.3485L80.1459 94.4455Z" fill="#2D2F4D"/>
<path d="M51.1396 94.4455H47.4057V94.3259C47.2577 91.9159 46.2018 89.6532 44.4532 87.9987C42.7046 86.3441 40.3947 85.4223 37.9939 85.4208C34.6376 85.4208 30.754 87.8415 29.3653 90.0147L29.3276 90.0738H20.436V89.8192H29.1835C29.9401 88.6672 31.2882 87.5082 32.8965 86.6262C34.6152 85.6852 36.4234 85.1662 37.9883 85.1662C40.4311 85.1717 42.7819 86.1042 44.5708 87.7773C46.3597 89.4504 47.455 91.7408 47.6378 94.1909H51.134L51.1396 94.4455Z" fill="#2D2F4D"/>
<path d="M78.7256 69.8554L80.5224 50.9413C80.5607 50.6009 80.7219 50.286 80.976 50.0552C81.2302 49.8244 81.5598 49.6935 81.9037 49.6868H93.3537C93.6141 49.681 93.8683 49.7658 94.0726 49.9266C94.277 50.0874 94.4186 50.3141 94.4733 50.5678L100.1 76.1628C100.299 77.0703 99.4258 77.9526 98.5064 77.7742L82.2283 74.617C79.9738 74.1821 78.5101 72.1832 78.7256 69.8554Z" fill="#2D2F4D"/>
<path d="M46.0476 96.3775L45.8268 98.8123H36.811L37.5061 91.3074H41.2923C42.906 91.2879 44.4733 91.8588 45.7109 92.9167C46.0471 94.036 46.1616 95.2125 46.0476 96.3775Z" fill="#2D2F4D"/>
<path d="M41.6889 104.126C44.8691 101.092 45.21 96.2874 42.4503 93.3945C39.6906 90.5016 34.8754 90.6158 31.6952 93.6495C28.5151 96.6832 28.1742 101.488 30.9339 104.381C33.6935 107.274 38.5087 107.159 41.6889 104.126Z" fill="#48487A"/>
<path d="M39.8901 102.24C41.9256 100.298 42.144 97.2232 40.3778 95.3718C38.6116 93.5203 35.5297 93.5936 33.4942 95.5354C31.4587 97.4771 31.2404 100.552 33.0065 102.404C34.7727 104.255 37.8546 104.182 39.8901 102.24Z" fill="#B5ADC2"/>
<path d="M38.9803 96.2169C39.0367 96.6149 39.0311 97.0194 38.9637 97.4157C38.6489 99.3223 36.9892 100.867 35.0796 101.023C34.7065 101.056 34.3308 101.034 33.9639 100.958C33.6602 100.894 33.4116 101.261 33.6035 101.495C33.9393 101.902 34.3618 102.228 34.8399 102.448C35.3179 102.669 35.8392 102.778 36.3651 102.769C38.5094 102.761 40.4273 100.98 40.6137 98.8255C40.6687 98.2852 40.5996 97.7394 40.4117 97.2301C40.2238 96.7208 39.9221 96.2617 39.5298 95.888C39.3172 95.6854 38.9347 95.9074 38.9803 96.2169Z" fill="white"/>
<path d="M117.868 77.7973H104.207L97.1265 49.6865H110.786L117.868 77.7973Z" fill="white"/>
<path d="M108.093 95.2643H105.314L105.538 92.808H108.316L108.093 95.2643Z" fill="white"/>
<path d="M121.739 95.2643H118.96L119.184 92.808H121.962L121.739 95.2643Z" fill="white"/>
<path d="M122.273 89.9423H120.136C120.066 89.9436 119.998 89.93 119.934 89.9025C119.87 89.875 119.814 89.8342 119.767 89.7828C119.721 89.7314 119.686 89.6707 119.665 89.6047C119.644 89.5387 119.638 89.4691 119.646 89.4004L119.953 86.1503C120.008 85.552 120.102 84.958 120.234 84.3719L120.655 82.5375C120.706 82.3181 120.829 82.1219 121.005 81.9802C121.18 81.8384 121.398 81.7591 121.624 81.7548H121.915C122.571 82.6036 122.873 83.6729 122.757 84.7388L122.273 89.9423Z" fill="white"/>
<path d="M79.1826 49.6321L74.9531 94.2925L75.206 94.3164L79.4356 49.656L79.1826 49.6321Z" fill="#2D2F4D"/>
<path d="M100.259 76.1207L100.011 76.175L100.451 78.1836L100.699 78.1293L100.259 76.1207Z" fill="#2D2F4D"/>
<path d="M104.069 82.4144L104.174 83.3066C104.248 83.9406 104.255 84.5811 104.196 85.2169L103.816 89.4017C103.808 89.4703 103.815 89.5399 103.835 89.6057C103.855 89.6716 103.889 89.7321 103.934 89.7833C103.978 89.8345 104.033 89.8752 104.093 89.9026C104.154 89.93 104.22 89.9436 104.286 89.9423H105.91L106.383 84.7379C106.493 83.6724 106.204 82.6039 105.577 81.7548H104.636C104.556 81.7561 104.477 81.7747 104.405 81.8092C104.332 81.8438 104.267 81.8936 104.214 81.9555C104.161 82.0174 104.12 82.0902 104.095 82.1691C104.07 82.2481 104.061 82.3316 104.069 82.4144Z" fill="white"/>
<path d="M119.61 89.9424H108.589L109.032 85.3027H120.052L119.61 89.9424Z" fill="#2D2F4D"/>
<path d="M108.43 84.1158L107.387 82.3823C107.268 82.1876 107.099 82.0272 106.897 81.9171C106.696 81.8069 106.468 81.751 106.237 81.755H105.587C106.251 82.6039 106.557 83.6723 106.441 84.7375L105.94 89.9424H108.107C108.257 89.9398 108.401 89.8833 108.512 89.7835C108.623 89.6837 108.693 89.5475 108.709 89.4005L108.975 86.6405C109.069 85.7634 108.878 84.8795 108.43 84.1158Z" fill="white"/>
<path d="M22.1804 72.2068L22.077 73.8675L20.5723 89.9423H23.7652L25.343 73.0998C25.3562 72.9859 25.3451 72.8704 25.3104 72.7611C25.2758 72.6518 25.2184 72.5513 25.1421 72.4663C25.0658 72.3813 24.9723 72.3138 24.8681 72.2683C24.7638 72.2228 24.6511 72.2004 24.5375 72.2026L22.1804 72.2068Z" fill="#FA7D86"/>
<path d="M22.7559 82.437H21.1501L20.436 89.9423H22.0417L22.7559 82.437Z" fill="white"/>
<path d="M24.5811 82.437L24.3225 82.4131L25.2199 73.0851C25.2322 72.9879 25.2231 72.8893 25.1931 72.7959C25.1631 72.7026 25.113 72.6166 25.0461 72.544C24.9793 72.4714 24.8972 72.4138 24.8056 72.3752C24.714 72.3366 24.615 72.3178 24.5154 72.3202H22.0732V72.0661H24.5154C24.6511 72.0638 24.7857 72.0901 24.9102 72.143C25.0348 72.196 25.1464 72.2744 25.2376 72.3732C25.3287 72.4719 25.3974 72.5886 25.439 72.7155C25.4805 72.8424 25.494 72.9765 25.4785 73.109L24.5811 82.437Z" fill="#2D2F4D"/>
<path d="M115.139 77.7974H104.213L98.4912 55.1453H109.198C109.459 55.1395 109.715 55.2242 109.92 55.3846C110.125 55.5451 110.267 55.7713 110.322 56.0244L115.139 77.7974Z" fill="#DBCEFF"/>
<path d="M98.6359 77.7742L94.8627 77.0479C94.6906 76.4742 94.6329 75.8728 94.693 75.2773L96.308 58.4199L100.237 76.1689C100.433 77.0729 99.5578 77.952 98.6359 77.7742Z" fill="#725CA4"/>
<path d="M98.768 77.7974C98.6801 77.7973 98.5924 77.789 98.5061 77.7724L82.3887 74.6292L82.4372 74.3822L98.5546 77.524C98.7543 77.5593 98.9597 77.5439 99.1519 77.4792C99.3441 77.4144 99.517 77.3025 99.6548 77.1535C99.7963 77.0141 99.9009 76.8418 99.9595 76.6519C100.018 76.462 100.029 76.2605 99.9901 76.0655L94.4199 50.5816C94.3719 50.357 94.247 50.1563 94.0669 50.0141C93.8867 49.872 93.6627 49.7973 93.4334 49.803V49.5505C93.7195 49.5434 93.9992 49.6366 94.224 49.8139C94.4489 49.9913 94.6049 50.2416 94.6652 50.5219L100.237 76.0072C100.284 76.2429 100.272 76.4866 100.202 76.7165C100.132 76.9463 100.006 77.1551 99.8349 77.3242C99.6979 77.4707 99.5328 77.588 99.3495 77.6693C99.1662 77.7506 98.9684 77.7942 98.768 77.7974Z" fill="#2D2F4D"/>
<path d="M117.868 77.797H105.571C105.18 77.8047 104.798 77.6805 104.488 77.4445C104.177 77.2086 103.957 76.8749 103.862 76.4983L97.1265 49.7475L97.3721 49.6865L104.109 76.4373C104.19 76.7594 104.379 77.0446 104.644 77.2461C104.91 77.4476 105.237 77.5534 105.571 77.5461H117.868V77.797Z" fill="white"/>
<path d="M93.3962 78.2066H96.0174C96.2071 78.2028 96.389 78.1302 96.5294 78.0022C96.6697 77.8743 96.7589 77.6997 96.7804 77.5109L97.6685 68.1222C97.6783 68.0338 97.6693 67.9442 97.6419 67.8595C97.6145 67.7748 97.5693 67.697 97.5095 67.6311C97.4496 67.5653 97.3765 67.513 97.2948 67.4777C97.2132 67.4424 97.125 67.4249 97.0361 67.4265H94.4149C94.225 67.4303 94.0429 67.5029 93.9023 67.6308C93.7618 67.7587 93.6723 67.9333 93.6505 68.1222L92.7638 77.5109C92.7537 77.5994 92.7626 77.689 92.7899 77.7738C92.8173 77.8586 92.8624 77.9366 92.9223 78.0025C92.9821 78.0684 93.0554 78.1207 93.1372 78.1559C93.2189 78.1911 93.3072 78.2084 93.3962 78.2066Z" fill="#DEA364"/>
<path d="M120.052 85.1662H109.135V85.3027H120.052V85.1662Z" fill="white"/>
<path d="M112.546 49.5501H25.894V49.823H112.546V49.5501Z" fill="#2D2F4D"/>
<path d="M122.235 89.8059H97.1265V90.0788H122.235V89.8059Z" fill="#2D2F4D"/>
<path d="M91.5259 60.7062C90.4333 59.9937 89.6492 59.8212 88.7207 59.6709C87.3545 59.4524 86.3138 59.3272 84.9252 59.3926C84.2898 59.4246 82.6249 59.7057 81.953 60.2525C80.664 61.3003 81.4018 66.0049 81.3499 67.1473C81.3008 68.2424 81.1016 68.9019 80.8913 69.7271C80.6809 70.5522 80.1605 72.3709 80.0735 73.196C80.0642 73.2936 80.0689 73.392 80.0875 73.4882C80.6949 74.0611 81.4562 74.4477 82.2798 74.6014L90.3491 76.1599C90.5273 75.3361 91.0687 71.4289 91.2903 70.2753C91.5273 69.0355 92.2903 64.9766 92.3436 63.368C92.3899 61.9863 92.202 61.15 91.5259 60.7062Z" fill="white"/>
<path d="M83.4209 70.4214C82.8677 69.6661 82.8333 68.4308 82.9899 66.7957C83.1134 65.5326 82.2715 64.1119 81.201 64.3056C81.2485 65.5133 81.372 66.6338 81.3447 67.1152C81.2944 68.2039 81.0904 68.8596 80.8749 69.68C80.6766 70.4408 80.2097 72.0192 80.0688 72.9101C80.918 73.0249 83.2298 73.1868 83.7672 72.6002C84.3045 72.0137 83.9152 71.0951 83.4209 70.4214Z" fill="#DADADA"/>
<path d="M88.2873 62.4855C89.0373 62.2521 89.2248 60.57 89.2109 60.1005C89.1928 59.5143 89.1609 58.9726 89.1456 58.6115C89.09 57.3835 86.5956 56.1251 86.4053 56.8682C86.1956 57.685 85.8887 59.0046 85.9428 59.6116C85.9969 60.3161 86.2312 60.9949 86.6234 61.5826C87.1248 62.2994 87.8539 62.6147 88.2873 62.4855Z" fill="#FAB18C"/>
<path d="M89.2119 60.0576V60.0478C89.1929 59.4592 89.1592 58.9152 89.1431 58.5526C89.1095 57.8482 88.2142 57.1284 87.4285 56.7825C87.2249 56.9605 87.0633 57.1778 86.9545 57.42C86.6693 58.3838 87.351 59.5457 89.2119 60.0576Z" fill="#CC6B56"/>
<path d="M86.6758 57.333C86.9294 58.5641 88.0928 59.4984 89.2029 59.3619C90.3131 59.2254 90.8668 58.6696 90.6758 56.6463C90.5585 55.3941 90.9868 54.9945 90.309 54.2051C89.893 53.7197 88.4419 53.852 87.5991 54.5653C87.2194 54.8993 86.9334 55.3323 86.771 55.819C86.6087 56.3058 86.5758 56.8286 86.6758 57.333Z" fill="#FAB18C"/>
<path d="M86.0815 57.3283C86.2169 57.2711 86.3477 57.2043 86.4731 57.1285C86.4646 55.7864 87.3002 55.1718 87.5603 56.1639C87.6683 56.152 87.7685 56.1032 87.8431 56.0261C88.1258 55.7285 88.2898 54.7501 88.55 54.655C89.1055 54.9994 89.7467 55.1899 90.4049 55.2062C91.444 55.231 91.5529 54.1204 91.5288 53.8682C91.4808 53.3735 89.7248 52.9395 88.393 53.1544C87.9689 53.2206 87.7385 53.3336 87.4444 53.7483C86.2356 53.2964 86.0249 56.1143 86.0815 57.3283Z" fill="#2D2F4D"/>
<path d="M89.6851 57.3283C89.6709 57.3284 89.657 57.3239 89.6457 57.3156C89.6344 57.3073 89.6264 57.2956 89.6228 57.2823C89.6189 57.2663 89.6217 57.2494 89.6306 57.2353C89.6396 57.2213 89.654 57.2112 89.6706 57.2072C89.9501 57.1432 89.9776 57.0541 89.9603 56.9762C89.9201 56.7209 89.8665 56.4677 89.7995 56.2177C89.7824 56.1627 89.7844 56.1038 89.8053 56.0501C89.8262 55.9963 89.8649 55.9506 89.9154 55.9199C90.1254 55.7807 90.583 55.8016 90.8219 55.9602C90.8358 55.9698 90.8453 55.9841 90.8482 56.0003C90.8512 56.0164 90.8475 56.033 90.8379 56.0465C90.8282 56.0598 90.8135 56.0688 90.797 56.0717C90.7804 56.0745 90.7634 56.071 90.7495 56.0618C90.554 55.931 90.1558 55.9101 89.9892 56.0215C89.9597 56.0376 89.937 56.0631 89.9251 56.0936C89.9132 56.1241 89.9128 56.1577 89.9241 56.1885C89.9632 56.343 90.0587 56.7271 90.0877 56.9609C90.121 57.2281 89.8097 57.3004 89.6938 57.3269L89.6851 57.3283Z" fill="#2D374D"/>
<path d="M88.3206 56.1001C88.31 56.1002 88.2996 56.0982 88.2903 56.0944C88.2811 56.0907 88.2733 56.0852 88.2677 56.0786C88.2581 56.0683 88.2543 56.0556 88.2574 56.0433C88.2604 56.031 88.2699 56.0201 88.2839 56.013C88.4489 55.9274 88.6376 55.8694 88.8366 55.8432C89.0356 55.8169 89.24 55.8231 89.4353 55.8612C89.4437 55.8627 89.4515 55.8654 89.4584 55.8692C89.4653 55.8729 89.4711 55.8776 89.4755 55.883C89.4798 55.8884 89.4827 55.8944 89.4839 55.9007C89.4851 55.9069 89.4845 55.9132 89.4823 55.9193C89.4775 55.9315 89.4664 55.9419 89.4513 55.9481C89.4362 55.9544 89.4183 55.956 89.4016 55.9527C89.2242 55.9184 89.0388 55.9131 88.8584 55.9371C88.678 55.9611 88.5069 56.0138 88.3573 56.0915C88.3466 56.0971 88.3338 56.1001 88.3206 56.1001Z" fill="#2D374D"/>
<path d="M88.6007 56.5096C88.5875 56.5093 88.5746 56.5048 88.5634 56.4964C88.5522 56.488 88.5431 56.4761 88.5372 56.462C88.5312 56.4479 88.5285 56.4321 88.5295 56.4163C88.5305 56.4005 88.535 56.3854 88.5426 56.3725C88.6088 56.2547 88.707 56.1679 88.8204 56.1267C88.9339 56.0855 89.0558 56.0925 89.1654 56.1465C89.183 56.1547 89.1972 56.1708 89.205 56.1914C89.2129 56.2119 89.2137 56.2353 89.2074 56.2566C89.204 56.2672 89.1989 56.2769 89.1923 56.2852C89.1858 56.2934 89.1779 56.2999 89.1691 56.3044C89.1604 56.3089 89.151 56.3113 89.1415 56.3114C89.132 56.3114 89.1226 56.3092 89.1138 56.3049C89.0332 56.2642 88.9431 56.259 88.8596 56.2901C88.776 56.3212 88.7044 56.3866 88.6572 56.4748C88.6507 56.4855 88.6422 56.4942 88.6324 56.5002C88.6226 56.5062 88.6118 56.5095 88.6007 56.5096Z" fill="#2D374D"/>
<path d="M89.2109 56.4471C89.2063 56.4651 89.1804 56.4818 89.1389 56.4935C89.0974 56.5052 89.0437 56.5109 88.9896 56.5093C88.9355 56.5078 88.8855 56.4992 88.8505 56.4853C88.8155 56.4715 88.7984 56.4536 88.803 56.4356C88.8053 56.4266 88.8128 56.4179 88.8251 56.41C88.8375 56.402 88.8544 56.395 88.875 56.3892C88.8955 56.3834 88.9193 56.379 88.9449 56.3763C88.9705 56.3736 88.9975 56.3726 89.0243 56.3734C89.0511 56.3741 89.0771 56.3766 89.101 56.3807C89.1249 56.3849 89.1461 56.3905 89.1634 56.3974C89.1807 56.4042 89.1938 56.4121 89.202 56.4207C89.2101 56.4292 89.2132 56.4382 89.2109 56.4471Z" fill="#2D374D"/>
<path d="M90.2272 56.5096C90.2182 56.51 90.2093 56.5064 90.2011 56.499C90.1929 56.4916 90.1857 56.4807 90.18 56.467C90.1703 56.4427 90.1658 56.412 90.1673 56.3812C90.1688 56.3504 90.1762 56.322 90.1881 56.3019C90.2556 56.187 90.3399 56.1173 90.4287 56.103C90.5175 56.0886 90.6063 56.1303 90.6824 56.222C90.6892 56.2295 90.6952 56.2395 90.7 56.2516C90.7049 56.2637 90.7085 56.2776 90.7106 56.2925C90.7127 56.3073 90.7133 56.3228 90.7124 56.3382C90.7115 56.3535 90.7091 56.3683 90.7052 56.3817C90.6973 56.4092 90.6843 56.4293 90.6689 56.4378C90.6535 56.4463 90.637 56.4424 90.6231 56.427C90.5682 56.3595 90.5038 56.3286 90.4393 56.3386C90.3749 56.3487 90.3137 56.3993 90.2649 56.4829C90.2541 56.4998 90.2409 56.5092 90.2272 56.5096Z" fill="#2D374D"/>
<path d="M90.5703 56.4687C90.5599 56.4803 90.543 56.4903 90.5216 56.4975C90.5002 56.5048 90.4751 56.5089 90.4491 56.5095C90.4231 56.5101 90.3974 56.5071 90.3747 56.5009C90.352 56.4947 90.3333 56.4855 90.3207 56.4744C90.3081 56.4633 90.3021 56.4506 90.3034 56.4379C90.3047 56.4252 90.3132 56.4129 90.328 56.4025C90.3428 56.392 90.3633 56.3838 90.3871 56.3787C90.411 56.3737 90.4372 56.372 90.463 56.3738C90.5027 56.3796 90.5363 56.3927 90.5564 56.4105C90.5765 56.4282 90.5815 56.4491 90.5703 56.4687Z" fill="#2D374D"/>
<path d="M89.8886 58.0301C89.8537 58.0727 89.794 58.1071 89.7197 58.1273C89.6454 58.1476 89.5611 58.1524 89.4813 58.1411C89.4014 58.1297 89.3309 58.1028 89.2819 58.065C89.2328 58.0272 89.2083 57.9809 89.2124 57.9339C89.2494 57.8456 89.3992 57.8738 89.586 57.9012C89.7728 57.9286 89.9257 57.9427 89.8886 58.0301Z" fill="white"/>
<path d="M89.5332 58.1471C89.387 58.1464 89.2443 58.1034 89.1234 58.0236C89.0344 57.9695 88.9593 57.8965 88.9037 57.81C88.8481 57.7236 88.8134 57.626 88.8023 57.5246C88.8019 57.5169 88.8032 57.5092 88.806 57.502C88.8088 57.4948 88.813 57.4881 88.8185 57.4826C88.824 57.477 88.8306 57.4725 88.8379 57.4695C88.8452 57.4665 88.8531 57.4649 88.8611 57.4649C88.869 57.4644 88.877 57.4654 88.8845 57.468C88.892 57.4705 88.8989 57.4745 88.9048 57.4797C88.9107 57.4849 88.9154 57.4912 88.9187 57.4983C88.922 57.5053 88.9237 57.5129 88.9239 57.5207C88.9347 57.6039 88.9649 57.6836 89.0123 57.7538C89.0596 57.8239 89.1229 57.8826 89.1971 57.9254C89.2872 57.9826 89.3904 58.0175 89.4976 58.027C89.6047 58.0364 89.7127 58.0203 89.8119 57.9799C89.8193 57.9771 89.8271 57.9757 89.835 57.9759C89.8429 57.976 89.8507 57.9777 89.8579 57.9808C89.8652 57.9838 89.8717 57.9883 89.8772 57.9938C89.8826 57.9994 89.8869 58.0059 89.8898 58.013C89.8927 58.0202 89.8941 58.0278 89.8939 58.0355C89.8938 58.0431 89.892 58.0507 89.8889 58.0577C89.8857 58.0648 89.8811 58.0711 89.8754 58.0764C89.8697 58.0817 89.863 58.0859 89.8557 58.0887C89.753 58.1279 89.6435 58.1477 89.5332 58.1471Z" fill="#2D374D"/>
<path d="M99.5827 73.9765C98.6145 73.6113 97.6602 73.2308 96.9548 72.9048C95.2176 72.1044 93.7473 70.911 92.1623 68.8556C89.4846 65.3788 88.5925 62.9205 90.031 60.9141C90.6188 60.0956 91.7557 60.3195 93.1471 62.2657C94.7072 64.4442 96.3476 68.0301 98.5868 69.3481L99.5827 73.9765Z" fill="white"/>
<path d="M90.5461 71.6689C90.54 71.8808 90.5822 72.0912 90.6694 72.2842C90.7566 72.4772 90.8866 72.6477 91.0493 72.7826C90.9301 73.5636 90.7111 75.0852 90.535 76.1599L82.4198 74.5729C81.8618 74.4688 81.3301 74.2538 80.8561 73.9403C80.3821 73.6269 79.9753 73.2215 79.6597 72.7478C79.6699 72.7405 79.6818 72.7357 79.6943 72.7339C80.7507 72.539 82.4794 71.9849 83.0644 71.5743C83.6189 71.1887 84.0348 70.6917 84.1928 70.1C84.5324 68.8805 84.8859 66.5655 85.0246 65.2346C85.1313 64.2393 85.2186 62.6175 84.6808 61.3242C84.4038 60.6735 84.0004 60.0847 83.4941 59.5924C83.8563 59.4996 84.2233 59.4271 84.5934 59.3752C86.0379 60.8634 86.3623 63.1604 86.2001 64.9576C87.1705 65.0174 89.2084 65.1511 90.158 65.2235C90.4685 63.2662 90.1053 60.9469 89.1876 59.6551C89.5608 59.7231 89.928 59.8214 90.2855 59.9488C91.3058 61.2142 91.5137 63.7604 91.3405 65.5256C91.1394 67.5469 90.5808 70.9311 90.5461 71.6689Z" fill="#FA7D86"/>
<path d="M93.3962 78.2066H96.0174C96.2071 78.2028 96.389 78.1302 96.5294 78.0022C96.6697 77.8743 96.7589 77.6997 96.7804 77.5109L97.6685 68.1222C97.6783 68.0338 97.6693 67.9442 97.6419 67.8595C97.6145 67.7748 97.5693 67.697 97.5095 67.6311C97.4496 67.5653 97.3765 67.513 97.2948 67.4777C97.2132 67.4424 97.125 67.4249 97.0361 67.4265H94.4149C94.225 67.4303 94.0429 67.5029 93.9023 67.6308C93.7618 67.7587 93.6723 67.9333 93.6505 68.1222L92.7638 77.5109C92.7537 77.5994 92.7626 77.689 92.7899 77.7738C92.8173 77.8586 92.8624 77.9366 92.9223 78.0025C92.9821 78.0684 93.0554 78.1207 93.1372 78.1559C93.2189 78.1911 93.3072 78.2084 93.3962 78.2066Z" fill="#DEA364"/>
<path d="M90.9384 75.9953C90.7729 76.484 89.9825 76.2617 89.2331 76.1285C88.3354 75.9607 87.3623 75.8928 87.3053 75.175C87.2352 74.2841 88.0852 73.9885 88.9828 74.1589C89.9136 74.3307 91.2549 75.0578 90.9384 75.9953Z" fill="#FAB18C"/>
<path d="M75.6961 69.6377C76.3178 66.974 79.4518 61.9619 81.7511 60.2936C81.9811 60.1184 82.2489 60.0005 82.5327 59.9496C82.8165 59.8987 83.1083 59.9161 83.3841 60.0005C84.1213 60.2669 84.3578 61.4712 84.3578 62.175C84.3067 63.3061 83.9567 64.4029 83.3438 65.3519C82.448 66.6515 81.306 67.9806 80.5353 69.1372C79.7647 70.2938 80.5187 70.6275 81.1363 70.9261C82.2491 71.4659 85.6751 72.8594 87.8131 73.7567C88.6017 74.0876 88.5683 74.8418 88.4932 75.2217C88.3959 75.7138 87.98 76.227 87.3554 76.1526C85.664 75.955 80.495 74.7955 78.1665 74.0497C76.6878 73.58 75.0951 72.2103 75.6961 69.6377Z" fill="white"/>
<path d="M42.6117 68.0478C42.3859 68.0478 42.1817 68.0099 41.9991 67.9341C41.8196 67.8582 41.6773 67.7491 41.5721 67.6066C41.4669 67.464 41.4128 67.2957 41.4097 67.1017H42.1058C42.1151 67.232 42.1615 67.3351 42.2451 67.411C42.3317 67.4868 42.4493 67.5247 42.5978 67.5247C42.7494 67.5247 42.8685 67.4898 42.9552 67.4201C43.0418 67.3473 43.0851 67.2533 43.0851 67.138C43.0851 67.044 43.0557 66.9667 42.997 66.9061C42.9382 66.8454 42.8639 66.7984 42.7742 66.765C42.6875 66.7287 42.5669 66.6892 42.4122 66.6468C42.2018 66.5861 42.03 66.527 41.897 66.4694C41.767 66.4087 41.6541 66.3193 41.5582 66.201C41.4654 66.0797 41.419 65.919 41.419 65.7189C41.419 65.5308 41.4669 65.3671 41.5628 65.2276C41.6587 65.0881 41.7933 64.982 41.9666 64.9092C42.1399 64.8334 42.3379 64.7955 42.5607 64.7955C42.8948 64.7955 43.1656 64.8758 43.3729 65.0366C43.5833 65.1942 43.6993 65.4156 43.721 65.7007H43.0062C43 65.5915 42.9521 65.502 42.8624 65.4323C42.7757 65.3595 42.6597 65.3231 42.5143 65.3231C42.3874 65.3231 42.2853 65.355 42.208 65.4186C42.1337 65.4823 42.0966 65.5748 42.0966 65.6961C42.0966 65.781 42.1244 65.8523 42.1801 65.9099C42.2389 65.9645 42.3101 66.01 42.3936 66.0464C42.4802 66.0797 42.6009 66.1191 42.7556 66.1646C42.966 66.2253 43.1377 66.2859 43.2708 66.3466C43.4038 66.4072 43.5183 66.4982 43.6142 66.6195C43.7101 66.7408 43.7581 66.9 43.7581 67.0971C43.7581 67.2669 43.7132 67.4246 43.6235 67.5702C43.5338 67.7157 43.4023 67.8325 43.229 67.9204C43.0557 68.0053 42.85 68.0478 42.6117 68.0478Z" fill="white"/>
<path d="M44.9248 65.8599C45.0083 65.7446 45.1228 65.6491 45.2682 65.5733C45.4167 65.4945 45.5854 65.455 45.7741 65.455C45.9938 65.455 46.1918 65.5081 46.3682 65.6142C46.5477 65.7204 46.6884 65.872 46.7905 66.0691C46.8957 66.2632 46.9483 66.4891 46.9483 66.7469C46.9483 67.0046 46.8957 67.2336 46.7905 67.4337C46.6884 67.6308 46.5477 67.784 46.3682 67.8931C46.1918 68.0023 45.9938 68.0569 45.7741 68.0569C45.5854 68.0569 45.4183 68.019 45.2729 67.9432C45.1305 67.8673 45.0145 67.7718 44.9248 67.6566V69.2168H44.275V65.496H44.9248V65.8599ZM46.2847 66.7469C46.2847 66.5952 46.2522 66.4648 46.1872 66.3557C46.1253 66.2435 46.0418 66.1586 45.9366 66.1009C45.8345 66.0433 45.7231 66.0145 45.6024 66.0145C45.4848 66.0145 45.3734 66.0448 45.2682 66.1055C45.1661 66.1631 45.0826 66.248 45.0176 66.3602C44.9557 66.4724 44.9248 66.6043 44.9248 66.756C44.9248 66.9076 44.9557 67.0395 45.0176 67.1517C45.0826 67.2639 45.1661 67.3503 45.2682 67.411C45.3734 67.4686 45.4848 67.4974 45.6024 67.4974C45.7231 67.4974 45.8345 67.4671 45.9366 67.4064C46.0418 67.3458 46.1253 67.2593 46.1872 67.1471C46.2522 67.0349 46.2847 66.9015 46.2847 66.7469Z" fill="white"/>
<path d="M47.207 66.7469C47.207 66.4921 47.2581 66.2662 47.3602 66.0691C47.4654 65.872 47.6062 65.7204 47.7825 65.6142C47.962 65.5081 48.1616 65.455 48.3812 65.455C48.5731 65.455 48.7402 65.4929 48.8825 65.5687C49.0279 65.6446 49.1439 65.7401 49.2306 65.8553V65.496H49.885V68.0159H49.2306V67.6475C49.147 67.7658 49.031 67.8643 48.8825 67.9432C48.7371 68.019 48.5684 68.0569 48.3766 68.0569C48.16 68.0569 47.962 68.0023 47.7825 67.8931C47.6062 67.784 47.4654 67.6308 47.3602 67.4337C47.2581 67.2336 47.207 67.0046 47.207 66.7469ZM49.2306 66.756C49.2306 66.6013 49.1996 66.4694 49.1377 66.3602C49.0759 66.248 48.9923 66.1631 48.8871 66.1055C48.7819 66.0448 48.669 66.0145 48.5483 66.0145C48.4276 66.0145 48.3163 66.0433 48.2142 66.1009C48.112 66.1586 48.0285 66.2435 47.9635 66.3557C47.9016 66.4648 47.8707 66.5952 47.8707 66.7469C47.8707 66.8985 47.9016 67.0319 47.9635 67.1471C48.0285 67.2593 48.112 67.3458 48.2142 67.4064C48.3194 67.4671 48.4307 67.4974 48.5483 67.4974C48.669 67.4974 48.7819 67.4686 48.8871 67.411C48.9923 67.3503 49.0759 67.2654 49.1377 67.1562C49.1996 67.044 49.2306 66.9106 49.2306 66.756Z" fill="white"/>
<path d="M50.3061 66.756C50.3061 66.4952 50.3602 66.2677 50.4685 66.0736C50.5768 65.8765 50.7269 65.7249 50.9187 65.6188C51.1106 65.5096 51.3302 65.455 51.5778 65.455C51.8965 65.455 52.1595 65.5339 52.3668 65.6916C52.5772 65.8462 52.718 66.0646 52.7891 66.3466H52.0883C52.0512 66.2374 51.9877 66.1525 51.898 66.0918C51.8114 66.0282 51.7031 65.9963 51.5731 65.9963C51.3875 65.9963 51.2405 66.063 51.1322 66.1965C51.0239 66.3269 50.9698 66.5134 50.9698 66.756C50.9698 66.9955 51.0239 67.182 51.1322 67.3154C51.2405 67.4458 51.3875 67.511 51.5731 67.511C51.8361 67.511 52.0079 67.3958 52.0883 67.1653H52.7891C52.718 67.4383 52.5772 67.6551 52.3668 67.8158C52.1564 67.9765 51.8934 68.0569 51.5778 68.0569C51.3302 68.0569 51.1106 68.0038 50.9187 67.8977C50.7269 67.7885 50.5768 67.6369 50.4685 67.4428C50.3602 67.2457 50.3061 67.0167 50.3061 66.756Z" fill="white"/>
<path d="M55.6089 66.7014C55.6089 66.7923 55.6027 66.8742 55.5904 66.947H53.7107C53.7262 67.1289 53.7911 67.2715 53.9056 67.3746C54.0201 67.4777 54.1609 67.5292 54.328 67.5292C54.5693 67.5292 54.741 67.4276 54.8431 67.2245H55.544C55.4697 67.4671 55.3274 67.6672 55.117 67.8249C54.9066 67.9795 54.6482 68.0569 54.3419 68.0569C54.0944 68.0569 53.8716 68.0038 53.6736 67.8977C53.4786 67.7885 53.3255 67.6354 53.2141 67.4383C53.1058 67.2411 53.0516 67.0137 53.0516 66.756C53.0516 66.4952 53.1058 66.2662 53.2141 66.0691C53.3224 65.872 53.474 65.7204 53.6689 65.6142C53.8638 65.5081 54.0882 65.455 54.3419 65.455C54.5863 65.455 54.8045 65.5066 54.9963 65.6097C55.1912 65.7128 55.3413 65.8599 55.4465 66.0509C55.5548 66.2389 55.6089 66.4557 55.6089 66.7014ZM54.936 66.5194C54.9329 66.3557 54.8725 66.2253 54.755 66.1282C54.6374 66.0282 54.4935 65.9781 54.3233 65.9781C54.1624 65.9781 54.0263 66.0266 53.9149 66.1237C53.8066 66.2177 53.7401 66.3496 53.7153 66.5194H54.936Z" fill="white"/>
<path d="M58.2924 65.7962C58.2182 65.6628 58.116 65.5612 57.9861 65.4914C57.8561 65.4217 57.7045 65.3868 57.5313 65.3868C57.3394 65.3868 57.1692 65.4293 57.0207 65.5142C56.8722 65.5991 56.7562 65.7204 56.6726 65.8781C56.5891 66.0357 56.5473 66.2177 56.5473 66.4239C56.5473 66.6362 56.5891 66.8211 56.6726 66.9788C56.7593 67.1365 56.8784 67.2578 57.03 67.3427C57.1816 67.4276 57.358 67.4701 57.5591 67.4701C57.8066 67.4701 58.0093 67.4064 58.1671 67.279C58.3249 67.1487 58.4286 66.9682 58.4781 66.7378H57.3642V66.251H59.1185V66.806C59.0752 67.0274 58.9824 67.232 58.8401 67.4201C58.6977 67.6081 58.5136 67.7597 58.2878 67.8749C58.065 67.9871 57.8144 68.0432 57.5359 68.0432C57.2234 68.0432 56.9403 67.975 56.6866 67.8385C56.4359 67.699 56.2379 67.5065 56.0925 67.2609C55.9502 67.0152 55.879 66.7362 55.879 66.4239C55.879 66.1116 55.9502 65.8326 56.0925 65.5869C56.2379 65.3383 56.4359 65.1457 56.6866 65.0093C56.9403 64.8698 57.2218 64.8 57.5313 64.8C57.8964 64.8 58.2135 64.888 58.4827 65.0638C58.7519 65.2367 58.9375 65.4808 59.0396 65.7962H58.2924Z" fill="white"/>
<path d="M61.9802 65.496V68.0159H61.3258V67.6975C61.2422 67.8067 61.1324 67.8931 60.9963 67.9568C60.8632 68.0175 60.7178 68.0478 60.56 68.0478C60.3589 68.0478 60.181 68.0068 60.0263 67.925C59.8715 67.8401 59.7493 67.7172 59.6596 67.5565C59.573 67.3928 59.5296 67.1987 59.5296 66.9743V65.496H60.1794V66.8833C60.1794 67.0835 60.2305 67.2381 60.3326 67.3473C60.4347 67.4534 60.5739 67.5065 60.7503 67.5065C60.9297 67.5065 61.0705 67.4534 61.1726 67.3473C61.2747 67.2381 61.3258 67.0835 61.3258 66.8833V65.496H61.9802Z" fill="white"/>
<path d="M63.2246 65.8872C63.3082 65.7537 63.4165 65.6491 63.5495 65.5733C63.6857 65.4975 63.8404 65.4596 64.0137 65.4596V66.1282H63.8419C63.6377 66.1282 63.483 66.1752 63.3778 66.2692C63.2757 66.3632 63.2246 66.527 63.2246 66.7605V68.0159H62.5749V65.496H63.2246V65.8872Z" fill="white"/>
<path d="M66.8322 65.496V68.0159H66.1778V67.6975C66.0943 67.8067 65.9844 67.8931 65.8483 67.9568C65.7152 68.0175 65.5698 68.0478 65.412 68.0478C65.2109 68.0478 65.033 68.0068 64.8783 67.925C64.7236 67.8401 64.6014 67.7172 64.5116 67.5565C64.425 67.3928 64.3817 67.1987 64.3817 66.9743V65.496H65.0314V66.8833C65.0314 67.0835 65.0825 67.2381 65.1846 67.3473C65.2867 67.4534 65.4259 67.5065 65.6023 67.5065C65.7818 67.5065 65.9226 67.4534 66.0247 67.3473C66.1268 67.2381 66.1778 67.0835 66.1778 66.8833V65.496H66.8322Z" fill="white"/>
<path d="M39.062 63.4691H34.2515C33.9318 63.4691 33.6724 63.7285 33.6724 64.0483V68.8587C33.6724 69.1785 33.9318 69.4379 34.2515 69.4379H39.062C39.3817 69.4379 39.6411 69.1785 39.6411 68.8587V64.0483C39.6416 63.7285 39.3822 63.4691 39.062 63.4691Z" fill="white"/>
<path d="M35.8828 64.3534C35.8828 64.3534 38.3562 64.3597 38.4289 64.3563C38.502 64.3534 38.5913 64.4679 38.4903 64.5623C38.3544 64.6898 37.2952 65.6798 37.2952 65.6798L35.8828 64.3534Z" fill="url(#paint1_linear_1394_1073)"/>
<path d="M37.4305 68.7746C37.4305 68.7746 34.751 68.7673 34.6723 68.7712C34.593 68.7746 34.4963 68.6418 34.6057 68.5324C34.753 68.385 35.9048 67.2272 35.9048 67.2272L37.4305 68.7746Z" fill="url(#paint2_linear_1394_1073)"/>
<path d="M38.7382 67.2519L37.3668 65.8277L35.9918 64.404L35.9408 64.3533L34.578 65.7719C34.5627 65.7868 34.5554 65.8073 34.5568 65.8277C34.5577 65.8435 34.5636 65.8594 34.5748 65.8715L35.9598 67.2956H35.9661L37.3217 68.7244L37.3731 68.7746L38.7355 67.3514C38.7509 67.3365 38.7581 67.3161 38.7567 67.2956C38.7549 67.2798 38.7491 67.2644 38.7382 67.2519Z" fill="#5D58F7"/>
<defs>
<linearGradient id="paint0_linear_1394_1073" x1="30.0042" y1="10.7368" x2="30.0042" y2="26.5986" gradientUnits="userSpaceOnUse">
<stop stop-color="#FF6272"/>
<stop offset="1" stop-color="#FF6272"/>
</linearGradient>
<linearGradient id="paint1_linear_1394_1073" x1="35.9261" y1="64.4552" x2="37.9427" y2="65.124" gradientUnits="userSpaceOnUse">
<stop stop-color="#5D58F7"/>
<stop offset="1" stop-color="#5D58F7" stop-opacity="0.6"/>
</linearGradient>
<linearGradient id="paint2_linear_1394_1073" x1="35.2002" y1="67.8889" x2="36.2204" y2="68.975" gradientUnits="userSpaceOnUse">
<stop stop-color="#5D58F7"/>
<stop offset="1" stop-color="#5D58F7" stop-opacity="0.6"/>
</linearGradient>
</defs>
</svg>
