<svg width="137" height="136" viewBox="0 0 137 136" fill="none" xmlns="http://www.w3.org/2000/svg">
<ellipse cx="68.5" cy="67.6468" rx="68" ry="67.6468" fill="#FFEAEC"/>
<path d="M116.067 16.9985V118.668C116.079 120.093 115.522 121.464 114.519 122.481C113.516 123.498 112.148 124.077 110.716 124.092H57.8551C56.4238 124.077 55.0568 123.498 54.0541 122.482C53.0515 121.466 52.4951 120.095 52.5071 118.672V16.9985C52.4941 15.5743 53.0502 14.2034 54.0531 13.187C55.056 12.1706 56.4235 11.592 57.8551 11.5784H110.716C111.425 11.5847 112.126 11.7299 112.778 12.0057C113.431 12.2815 114.023 12.6825 114.52 13.1858C115.017 13.6891 115.409 14.2848 115.675 14.939C115.94 15.5932 116.073 16.293 116.067 16.9985Z" fill="#5853F6"/>
<path d="M112.723 22.1121V115.321C112.723 118.169 110.581 120.486 107.936 120.486H60.6418C57.9938 120.486 55.8477 118.179 55.8477 115.321V22.1121C55.8477 16.3064 57.9938 15.0254 60.6418 15.0254H70.1159C70.6663 15.0254 71.1163 15.6452 71.1163 16.4028V16.7471C71.1163 18.555 72.1098 18.5619 73.3317 18.5619H95.2395C96.4718 18.5619 97.4583 18.5619 97.4583 16.7471V16.4028C97.4583 15.6349 97.9013 15.0254 98.4586 15.0254H107.936C110.595 15.0254 112.723 16.7954 112.723 22.1121Z" fill="white"/>
<path d="M87.2746 16.3097H81.3001C81.2018 16.3097 81.1076 16.2708 81.0382 16.2017C80.9687 16.1326 80.9297 16.0389 80.9297 15.9412C80.9297 15.8435 80.9687 15.7498 81.0382 15.6807C81.1076 15.6116 81.2018 15.5728 81.3001 15.5728H87.2746C87.3728 15.5728 87.467 15.6116 87.5365 15.6807C87.606 15.7498 87.645 15.8435 87.645 15.9412C87.645 16.0389 87.606 16.1326 87.5365 16.2017C87.467 16.2708 87.3728 16.3097 87.2746 16.3097Z" fill="white"/>
<path d="M106.112 32.063H62.2656V83.2818H106.112V32.063Z" fill="#FAFAFA"/>
<path d="M67.378 23.0557H62.3623V23.8752H67.378V23.0557Z" fill="#DBDBDB"/>
<path d="M67.378 24.6981H62.3623V25.5177H67.378V24.6981Z" fill="#DBDBDB"/>
<path d="M67.378 26.337H62.3623V27.1566H67.378V26.337Z" fill="#DBDBDB"/>
<path d="M89.8003 88.3447H62.4434V91.1689H89.8003V88.3447Z" fill="#DBDBDB"/>
<path d="M86.1871 93.7363H62.4434V96.5605H86.1871V93.7363Z" fill="#DBDBDB"/>
<path d="M59.593 59.1057L58.4854 58.0726L59.593 57.0361L59.773 57.2255L58.8627 58.0726L59.773 58.9163L59.593 59.1057Z" fill="#C7C7C7"/>
<path d="M59.3637 59.9151C58.9965 59.9158 58.6373 59.808 58.3316 59.6055C58.026 59.4029 57.7876 59.1147 57.6468 58.7773C57.5059 58.4399 57.4689 58.0685 57.5404 57.7101C57.6118 57.3518 57.7886 57.0226 58.0483 56.7642C58.308 56.5059 58.6389 56.33 58.9991 56.2589C59.3594 56.1878 59.7327 56.2247 60.0719 56.3648C60.411 56.5049 60.7008 56.742 60.9044 57.0461C61.108 57.3501 61.2163 57.7075 61.2156 58.0728C61.2147 58.5611 61.0193 59.0292 60.6722 59.3745C60.3251 59.7198 59.8546 59.9142 59.3637 59.9151ZM59.3637 56.5714C59.0651 56.5707 58.7729 56.6582 58.5243 56.8228C58.2756 56.9873 58.0817 57.2216 57.9669 57.4959C57.8521 57.7701 57.8218 58.0721 57.8796 58.3636C57.9374 58.655 58.0809 58.9229 58.2918 59.1332C58.5028 59.3435 58.7717 59.4869 59.0645 59.5451C59.3574 59.6033 59.661 59.5737 59.937 59.4602C60.213 59.3467 60.4489 59.1542 60.6149 58.9073C60.7808 58.6603 60.8695 58.3699 60.8695 58.0728C60.8695 57.6752 60.7109 57.2938 60.4286 57.0124C60.1464 56.7309 59.7634 56.5723 59.3637 56.5714Z" fill="#C7C7C7"/>
<path d="M108.981 59.1057L108.801 58.9163L109.708 58.0726L108.801 57.2255L108.981 57.0361L110.089 58.0726L108.981 59.1057Z" fill="#C7C7C7"/>
<path d="M109.209 59.9151C108.842 59.9151 108.483 59.8067 108.178 59.6038C107.873 59.4008 107.635 59.1123 107.495 58.7749C107.355 58.4374 107.318 58.0661 107.39 57.708C107.462 57.3499 107.639 57.021 107.899 56.763C108.158 56.505 108.489 56.3295 108.85 56.2587C109.21 56.1879 109.583 56.2249 109.922 56.3651C110.261 56.5053 110.55 56.7425 110.754 57.0464C110.957 57.3504 111.065 57.7076 111.065 58.0728C111.064 58.5617 110.868 59.0303 110.52 59.3757C110.172 59.7211 109.701 59.9151 109.209 59.9151ZM109.209 56.5714C108.911 56.5714 108.619 56.6595 108.371 56.8245C108.123 56.9894 107.929 57.2239 107.815 57.4982C107.701 57.7726 107.671 58.0745 107.729 58.3657C107.787 58.6569 107.931 58.9245 108.142 59.1344C108.353 59.3444 108.622 59.4874 108.915 59.5453C109.208 59.6033 109.511 59.5735 109.787 59.4599C110.063 59.3463 110.298 59.1538 110.464 58.9069C110.63 58.66 110.719 58.3697 110.719 58.0728C110.719 57.8756 110.68 57.6804 110.604 57.4982C110.528 57.3161 110.417 57.1506 110.277 57.0112C110.136 56.8718 109.97 56.7612 109.787 56.6857C109.604 56.6103 109.408 56.5714 109.209 56.5714Z" fill="#C7C7C7"/>
<path d="M101.439 104.263H66.1313V111.973H101.439V104.263Z" fill="#5D58F7"/>
<path d="M64.6335 98.2688H44.2695V104.546H64.6335V98.2688Z" fill="#37474F"/>
<path d="M49.4828 104.546L48.8424 108.599L44.4428 134.694H42.9302L45.2425 108.599L45.599 104.546H49.4828Z" fill="#37474F"/>
<path d="M45.5987 104.546H49.4825L48.8421 108.599H45.2422L45.5987 104.546Z" fill="#263238"/>
<path d="M65.9725 134.694H64.4599L60.0603 108.599L59.4199 104.546H63.3037L63.6603 108.599L65.9725 134.694Z" fill="#37474F"/>
<path d="M63.6603 108.599H60.0603L59.4199 104.546H63.3037L63.6603 108.599Z" fill="#263238"/>
<path d="M31.2473 135.844C31.9396 136.079 52.4385 136.085 53.2001 135.607C53.2901 135.552 53.2831 133.072 53.3454 131.185C53.4354 128.3 49.5378 115.455 49.5378 115.455L36.8203 116.072L40.3648 129.016C40.3648 129.016 37.4364 130.307 35.0203 131.426C33.9632 131.885 32.9345 132.406 31.9396 132.986C31.1746 133.616 30.5515 135.61 31.2473 135.844Z" fill="#FFBE90"/>
<path d="M31.247 135.845C31.9393 136.079 52.4382 136.086 53.1998 135.607C53.2898 135.552 53.3313 133.71 53.3452 131.185C48.2637 132.219 34.7431 133.84 34.3623 132.776C34.2135 132.356 34.5423 131.878 35.0304 131.444C33.9733 131.902 32.9446 132.423 31.9497 133.004C31.1743 133.617 30.5512 135.61 31.247 135.845Z" fill="#263238"/>
<path d="M61.6107 95.3625C59.1011 97.8453 55.605 99.4121 52.6316 100.938C50.0735 102.246 47.9066 103.524 47.0932 105.318C46.3732 106.902 51.8181 122.401 51.8181 122.401L37.8545 125.727C37.8545 125.727 31.5441 108.596 33.1226 101.23C33.3787 100.022 34.5937 98.4548 36.3349 96.7537C42.5344 90.6621 55.3731 82.7524 55.3731 82.7524H63.2687C63.2687 82.7524 66.5502 90.4762 61.6107 95.3625Z" fill="#FF6272"/>
<path d="M62.3861 84.4534C62.355 84.1091 62.3203 83.7406 62.2823 83.386C62.2838 83.3818 62.2843 83.3773 62.2838 83.3729C62.2832 83.3685 62.2816 83.3643 62.279 83.3606C62.2765 83.357 62.2731 83.354 62.2691 83.3519C62.2652 83.3499 62.2608 83.3488 62.2563 83.3488C62.2518 83.3488 62.2474 83.3499 62.2435 83.3519C62.2395 83.354 62.2361 83.357 62.2336 83.3606C62.231 83.3643 62.2294 83.3685 62.2288 83.3729C62.2283 83.3773 62.2288 83.3818 62.2304 83.386C62.5557 86.2441 62.8257 89.3811 61.4723 92.0395C60.1673 94.5946 57.5539 96.1304 55.2416 97.6593L51.0116 100.438L48.8967 101.816C48.3164 102.18 47.7549 102.573 47.2144 102.993C46.7216 103.371 46.3057 103.838 45.989 104.371C45.6619 104.973 45.521 105.658 45.584 106.34C45.9302 110.941 50.0355 121.595 50.1428 121.991C50.1705 122.088 50.3297 122.039 50.2951 121.943C49.3017 118.875 47.0932 113.575 45.8921 107.418C45.6868 106.628 45.6809 105.8 45.8748 105.008C46.0928 104.383 46.4724 103.826 46.9756 103.393C47.4647 102.96 47.9892 102.568 48.5436 102.222L50.6967 100.807L54.8885 98.0519C57.18 96.5471 59.7623 95.0836 61.2507 92.7007C62.7911 90.2385 62.6423 87.2461 62.3861 84.4534Z" fill="#455A64"/>
<path d="M61.6108 95.3626C59.1012 97.8454 55.6051 99.4122 52.6317 100.938C47.3702 99.5602 40.7311 97.8385 36.335 96.7469C42.5345 90.6553 55.3732 82.7455 55.3732 82.7455H63.2688C63.2688 82.7455 66.5503 90.4762 61.6108 95.3626Z" fill="#263238"/>
<path d="M6.26142 132.284C6.98487 132.425 27.2935 129.694 27.9823 129.116C28.0654 129.05 27.8577 127.222 27.5288 124.715L31.1288 109.453L17.7536 111.086L13.5444 124.198C12.2595 125.378 10.8808 126.453 9.42176 127.411C8.43657 128.008 7.48763 128.662 6.57987 129.371C5.88757 130.087 5.54142 132.146 6.26142 132.284Z" fill="#FFBE90"/>
<path d="M6.26182 132.284C6.98528 132.425 27.2939 129.694 27.9827 129.116C28.0658 129.05 27.8581 127.222 27.5292 124.715C22.6381 126.437 9.45332 129.832 8.9341 128.83C8.72987 128.431 8.98948 127.914 9.41524 127.418C8.43005 128.015 7.48111 128.669 6.57336 129.377C5.88798 130.087 5.54183 132.146 6.26182 132.284Z" fill="#263238"/>
<path d="M14.0884 119.663L28.4293 122.232L32.9051 105.841C33.2962 100.428 34.2897 97.8006 37.4812 96.8123C42.933 95.1319 56.2563 101.337 62.2862 97.1739C67.1842 93.7923 63.2762 82.7421 63.2762 82.7421H49.1152C49.1152 82.7421 47.4053 84.8082 47.0868 86.0307C47.0868 86.0307 29.5439 84.6843 25.6255 89.636C20.3606 96.2717 14.0884 119.663 14.0884 119.663Z" fill="#FF6272"/>
<path d="M39.9319 96.5674C39.0881 96.492 38.2376 96.5572 37.4154 96.7603C36.631 96.9687 35.8997 97.3395 35.2693 97.8484C34.6613 98.3418 34.1687 98.9611 33.8258 99.6632C33.4623 100.506 33.2289 101.399 33.1335 102.311C33.0539 102.838 33.0054 103.368 32.9743 103.902C32.9431 104.436 32.9224 105.176 32.9224 105.624C32.9224 105.665 32.9777 105.669 32.9777 105.624C32.9853 105.145 33.0246 104.668 33.0954 104.195C33.1577 103.747 33.2339 103.3 33.3135 102.855C33.4428 101.965 33.6513 101.088 33.9366 100.235C34.213 99.5051 34.638 98.84 35.1848 98.2813C35.7315 97.7225 36.3884 97.2821 37.1142 96.9876C37.5589 96.8091 38.0239 96.6853 38.4988 96.6191C38.9735 96.5681 39.4514 96.5532 39.9284 96.5743C39.9284 96.5743 39.9423 96.5674 39.9319 96.5674Z" fill="#263238"/>
<path d="M60.2372 88.0865C59.745 87.9764 59.2684 87.8064 58.818 87.5803C58.3676 87.3768 57.9592 87.0919 57.6134 86.7401C57.3515 86.3989 57.1768 85.9994 57.1046 85.5762C57.0457 85.3489 57.0146 85.1147 56.9765 84.8875C56.9384 84.6602 56.8726 84.3813 56.8553 84.1265C56.8553 84.0955 56.7965 84.0955 56.8 84.1265C56.9211 85.0872 56.6476 86.1616 57.3711 86.9811C57.7378 87.3552 58.1852 87.6413 58.6795 87.8179C59.1679 88.0325 59.6906 88.1595 60.2234 88.1932C60.2304 88.1941 60.2376 88.1937 60.2444 88.1918C60.2513 88.19 60.2577 88.1868 60.2633 88.1825C60.269 88.1782 60.2737 88.1728 60.2772 88.1667C60.2807 88.1605 60.283 88.1538 60.2839 88.1468C60.2849 88.1397 60.2844 88.1326 60.2825 88.1258C60.2807 88.119 60.2775 88.1126 60.2731 88.107C60.2688 88.1014 60.2634 88.0967 60.2572 88.0932C60.2511 88.0897 60.2443 88.0874 60.2372 88.0865Z" fill="#263238"/>
<path d="M62.8883 85.8686C62.7602 85.3486 62.6079 84.8355 62.4383 84.3293C62.4353 84.3235 62.4302 84.3189 62.4241 84.3164C62.418 84.3139 62.4112 84.3137 62.4049 84.3158C62.3987 84.3179 62.3933 84.3221 62.3899 84.3278C62.3865 84.3334 62.3853 84.3401 62.3864 84.3465C63.0808 86.4555 63.3857 88.6722 63.2864 90.8892C63.2747 91.9359 63.1317 92.977 62.8606 93.9884C62.6011 94.956 61.9712 95.7841 61.1056 96.2955C60.2109 96.7587 59.2404 97.0596 58.2395 97.184C57.1177 97.3594 55.9827 97.4389 54.8472 97.4216C52.5359 97.3416 50.2306 97.137 47.9416 96.8086C45.7227 96.5504 43.5005 96.2439 41.2747 96.0442C39.4505 95.8823 37.5086 95.8617 35.8194 96.6674C34.2133 97.4353 33.1714 98.8988 32.486 100.493C31.7141 102.294 31.2779 104.233 30.7552 106.113C30.1356 108.355 26.9476 120.576 26.8818 121.103C26.8818 121.154 26.958 121.151 26.9614 121.103C27.0757 119.952 29.8449 109.842 30.4679 107.587C30.7818 106.457 31.0945 105.329 31.406 104.202C31.6552 103.3 31.901 102.397 32.2125 101.516C32.8079 99.832 33.6767 98.1413 35.2171 97.1392C36.8613 96.0648 38.9105 95.9856 40.8109 96.1061C41.8805 96.1819 42.9466 96.3231 44.0128 96.4505L47.5331 96.8878C49.7727 97.1495 52.0331 97.4629 54.2692 97.5318C55.3971 97.5732 56.5266 97.5283 57.6476 97.3975C58.6609 97.302 59.6565 97.0703 60.6072 96.7088C61.4483 96.3853 62.1547 95.7882 62.6114 95.0146C63.0402 94.1547 63.2909 93.2179 63.3487 92.2597C63.5715 90.119 63.4157 87.9559 62.8883 85.8686Z" fill="#263238"/>
<path d="M44.5179 56.0065C42.3164 57.8005 41.4233 61.0168 41.4233 61.0168C41.4233 61.0168 39.1768 64.1159 39.5403 65.9651C39.633 66.4877 39.8519 66.98 40.178 67.3999C40.5042 67.8197 40.928 68.1546 41.4129 68.3756L41.316 67.3666C41.316 67.3666 41.8387 68.6993 43.9468 69.4327C46.0548 70.1662 48.9728 69.7771 50.5236 69.1607C51.4471 68.8064 52.2628 68.2204 52.8913 67.4596L52.199 68.837C52.9093 68.8278 53.6063 68.6434 54.2274 68.3002C54.8484 67.957 55.3741 67.4658 55.7574 66.8708C57.2181 64.7737 53.9539 61.244 53.7186 60.5312C53.4832 59.8184 53.5836 54.7771 48.2113 55.1318C48.2113 55.1249 46.034 54.7702 44.5179 56.0065Z" fill="#263238"/>
<path d="M40.6724 68.1688C40.1001 67.7795 39.6625 67.2239 39.4194 66.5779C39.1475 65.9459 39.0963 65.2416 39.274 64.5772C39.5467 63.8033 39.9558 63.0839 40.482 62.4526C40.9839 61.7639 41.5205 61.1303 42.0259 60.445C42.0501 60.4072 41.9947 60.3693 41.9636 60.3968C41.4387 60.8989 40.944 61.4312 40.482 61.9912C40.0172 62.4994 39.6119 63.0585 39.274 63.6578C38.9617 64.2114 38.8152 64.8423 38.8517 65.476C38.9065 65.9934 39.0871 66.4898 39.3778 66.9223C39.7402 67.405 40.165 67.838 40.6413 68.2102C40.6724 68.2343 40.6932 68.1895 40.6724 68.1688Z" fill="#263238"/>
<path d="M56.4265 64.6258C55.973 62.725 54.4223 61.3958 53.5638 59.6947C53.1 58.7718 52.7712 57.7698 52.1308 56.9399C52.1308 56.9192 52.0754 56.9399 52.0927 56.9709C52.6119 57.7078 52.8715 58.5549 53.2177 59.3813C53.5923 60.1981 54.048 60.9756 54.5781 61.7023C55.5057 63.0521 56.6169 64.6534 56.2084 66.3786C56.018 67.174 55.4504 68.0246 54.5954 68.1967C54.5922 68.1967 54.589 68.1974 54.5861 68.1986C54.5831 68.1998 54.5805 68.2016 54.5782 68.2038C54.576 68.206 54.5742 68.2087 54.573 68.2116C54.5718 68.2145 54.5711 68.2177 54.5711 68.2208C54.5711 68.224 54.5718 68.2271 54.573 68.2301C54.5742 68.233 54.576 68.2357 54.5782 68.2379C54.5805 68.2401 54.5831 68.2419 54.5861 68.2431C54.589 68.2443 54.5922 68.245 54.5954 68.245C54.9363 68.1461 55.2534 67.979 55.5272 67.754C55.8009 67.529 56.0257 67.2508 56.1877 66.9364C56.5456 66.2203 56.6305 65.3994 56.4265 64.6258Z" fill="#263238"/>
<path d="M56.454 65.1286C56.5785 64.4369 56.4854 63.7238 56.1875 63.0866C55.8428 62.4784 55.3705 61.9511 54.8029 61.5405C54.1868 61.0412 53.5291 60.5591 53.176 59.8187C53.176 59.7912 53.1172 59.8187 53.131 59.8463C53.6849 61.0549 54.8998 61.7092 55.6648 62.756C56.5371 63.9475 56.3814 65.5522 55.5852 66.7471C55.082 67.4711 54.4144 68.0668 53.6364 68.486C53.6364 68.486 53.6364 68.5136 53.6364 68.5067C54.9829 67.8146 56.2048 66.6679 56.454 65.1286Z" fill="#263238"/>
<path d="M52.6867 69.1472C51.5063 73.9234 48.3875 80.0149 45.8641 79.9839C43.5588 79.9461 38.3423 77.4598 36.1719 76.1272C34.0016 74.7946 38.7057 69.4502 39.9796 70.2147C41.7103 71.2477 44.6803 73.4791 45.1718 73.3139C45.7776 73.121 46.3764 72.1637 49.8206 67.8042C51.2467 66.0377 53.1921 67.1121 52.6867 69.1472Z" fill="#FFBE91"/>
<path d="M37.6509 68.2344C36.6125 67.9313 35.4563 67.5043 34.3279 67.5835C33.1994 67.6627 32.3444 69.1985 32.3687 69.6221C32.3929 70.0457 32.9606 72.6696 34.0994 72.6076C35.2382 72.5456 34.4456 70.5415 34.4698 70.3177C34.494 70.0939 34.5252 69.7805 34.7398 69.7908C34.9544 69.8012 38.7724 71.3611 38.7724 71.3611L37.6509 68.2344Z" fill="#AD6359"/>
<path d="M37.5887 68.3926C37.5229 68.3926 34.4387 67.3596 33.3103 67.456C32.1818 67.5524 31.3269 69.0676 31.3511 69.4911C31.3753 69.9147 31.943 72.5386 33.0818 72.4801C34.2207 72.4215 33.428 70.414 33.4522 70.1867C33.4764 69.9594 33.5076 69.653 33.7222 69.6633C33.9368 69.6736 37.7549 71.2301 37.7549 71.2301L37.5887 68.3926Z" fill="#FFBE91"/>
<path d="M33.4448 72.3149C33.5532 72.108 33.6057 71.8766 33.5971 71.6434C33.6068 71.402 33.5799 71.1606 33.5175 70.9271C33.4436 70.7291 33.3869 70.5252 33.3479 70.3176C33.3369 70.1106 33.3798 69.9042 33.4725 69.7185C33.5486 69.5566 33.7183 69.6014 33.8636 69.6427C34.0788 69.7104 34.2892 69.7921 34.4936 69.8872C34.7152 69.9802 34.9332 70.08 35.1513 70.1799C35.3889 70.2713 35.6202 70.3783 35.8436 70.5001C35.8436 70.5001 35.8436 70.538 35.8436 70.5346C35.6436 70.469 35.4472 70.3931 35.2552 70.3073C35.0371 70.2178 34.8155 70.1317 34.594 70.049C34.3725 69.9664 34.1856 69.8803 33.9779 69.8046C33.9052 69.777 33.7563 69.7081 33.6767 69.7322C33.5971 69.7563 33.559 69.9698 33.5452 70.0387C33.509 70.242 33.533 70.4514 33.6144 70.6413C33.6854 70.839 33.7364 71.0431 33.7667 71.2508C33.8013 71.4456 33.8013 71.6449 33.7667 71.8397C33.7057 72.0138 33.6244 72.1803 33.5244 72.3355C33.469 72.3596 33.4309 72.3355 33.4448 72.3149Z" fill="#263238"/>
<path d="M41.3272 71.1476C41.3272 71.1476 38.0457 68.4823 37.3638 67.952C36 66.8948 30.3785 64.9527 29.6101 64.9114C28.8416 64.8701 28.6443 66.4506 32.4658 67.8762C34.4769 68.6269 34.8888 69.7289 34.8888 70.3521C34.8888 70.9754 34.3523 72.1634 33.3 72.191C32.2477 72.2185 31.4862 70.7309 30.51 70.6138C29.5339 70.4968 30.2677 72.2185 31.005 73.1999C31.771 74.1447 32.7915 74.853 33.9473 75.2419C34.875 75.5312 37.755 76.5883 37.755 76.5883L41.3272 71.1476Z" fill="#FFBE91"/>
<path d="M31.9533 71.5268C32.3652 71.8091 32.836 72.181 33.3379 72.1707C33.5812 72.1539 33.8145 72.0672 34.0092 71.9211C34.204 71.775 34.352 71.5758 34.4352 71.3477C34.6869 70.9043 34.7576 70.3815 34.6325 69.8876C34.4858 69.4434 34.2143 69.0503 33.8502 68.7547C33.4026 68.3982 32.906 68.1071 32.3756 67.8904C32.3514 67.8904 32.3756 67.8456 32.3964 67.856C32.8914 68.0454 34.4248 68.5757 34.7986 69.8808C34.9212 70.3857 34.8444 70.9181 34.584 71.3684C34.5011 71.5949 34.3628 71.7973 34.1814 71.9572C34.0001 72.1172 33.7816 72.2296 33.5456 72.2843C32.9294 72.367 32.3687 71.8918 31.9014 71.544C31.9014 71.5268 31.9325 71.513 31.9533 71.5268Z" fill="#263238"/>
<path d="M52.9443 70.139C52.606 72.0605 52.005 73.927 51.1581 75.6865C50.9816 76.0308 50.8708 76.2168 50.8708 76.2168L46.3501 72.6699L45.7271 72.181C45.7271 72.181 45.8101 72.0536 46.0732 71.7058C46.4678 71.2133 47.257 70.2836 48.7593 68.6651C49.4084 67.9098 50.1765 67.2644 51.0335 66.754C52.8058 65.8277 53.4808 67.243 52.9443 70.139Z" fill="#CECDFD"/>
<path d="M51.6452 76.072L50.6068 77.718L45.5391 73.6787L44.4072 72.7834C44.5353 72.6629 45.7641 71.4611 45.7641 71.4611L46.0861 71.7159L46.723 72.2153L51.1571 75.6966L51.6452 76.072Z" fill="#CECDFD"/>
<path d="M52.9437 70.1388C52.6054 72.0604 52.0045 73.9269 51.1576 75.6863L51.6456 76.072L50.6072 77.718L45.5396 73.6788L46.3495 72.6698L46.7234 72.2049C48.3918 70.1147 50.0533 68.028 51.0468 66.7539C52.8052 65.8276 53.4802 67.2428 52.9437 70.1388Z" fill="#263238"/>
<path d="M46.7511 86.158C46.7511 86.158 52.9645 87.1118 64.4324 85.2007C64.4324 85.2007 58.766 71.22 54.8199 67.6388C53.0233 66.0134 51.4276 66.4094 50.1468 67.6388C49.8284 67.9487 46.0173 73.6408 45.8061 75.5347C45.6227 77.2083 47.118 78.9335 47.118 78.9335L46.7511 86.158Z" fill="#CECDFD"/>
<path d="M52.7871 67.0946C52.7871 67.4114 51.8837 69.7427 50.4887 70.0457C50.0352 70.1422 49.3879 67.7007 49.3879 67.7007L49.2979 67.532L48.0483 65.1594L50.5164 62.4597L50.8625 62.0947C50.8625 62.0947 51.1637 62.7662 51.5271 63.6064L51.5791 63.7234C51.5998 63.7717 51.6206 63.8164 51.6379 63.8612C51.6933 63.9852 51.7521 64.1126 51.8041 64.24C51.856 64.3674 51.8871 64.4328 51.9252 64.5361C51.9633 64.6394 52.0083 64.7427 52.0498 64.846C52.3476 65.5777 52.5939 66.329 52.7871 67.0946Z" fill="#FFBE90"/>
<path d="M51.5312 63.6064C51.4648 64.3831 51.2299 65.1363 50.8426 65.814C50.4554 66.4917 49.9251 67.0778 49.2882 67.532L48.0386 65.1594L50.5066 62.4597L50.8528 62.0947C50.8528 62.0947 51.1678 62.7662 51.5312 63.6064Z" fill="#263238"/>
<path d="M43.4181 62.0017C43.9477 66.6746 46.8208 66.8846 47.8315 66.771C48.7523 66.6643 51.8676 66.1959 51.8226 61.4955C51.7776 56.7951 49.4307 55.5624 47.3227 55.6932C45.2146 55.8241 42.8885 57.3323 43.4181 62.0017Z" fill="#FFBE90"/>
<path d="M43.988 61.1236C44.0953 61.096 44.1887 61.0513 44.296 61.0134C44.41 60.9909 44.5127 60.9301 44.5868 60.8412C44.6056 60.8097 44.6131 60.7728 44.608 60.7365C44.603 60.7003 44.5858 60.6668 44.5591 60.6415C44.4998 60.5971 44.4294 60.5697 44.3555 60.5625C44.2817 60.5552 44.2072 60.5682 44.1403 60.6002C43.9958 60.6426 43.8723 60.7372 43.7941 60.8653C43.7786 60.8952 43.7718 60.9288 43.7745 60.9623C43.7773 60.9959 43.7895 61.0279 43.8097 61.0549C43.8299 61.0818 43.8574 61.1026 43.8889 61.1147C43.9204 61.1269 43.9548 61.1299 43.988 61.1236Z" fill="#263238"/>
<path d="M47.1972 60.5381C47.0883 60.537 46.9797 60.5289 46.8718 60.514C46.7558 60.5208 46.6406 60.4907 46.543 60.428C46.5176 60.4012 46.5012 60.3673 46.4962 60.3308C46.4913 60.2944 46.4979 60.2573 46.5153 60.2248C46.5621 60.1675 46.6231 60.1234 46.6923 60.0968C46.7615 60.0703 46.8365 60.0621 46.9099 60.0733C47.0625 60.0752 47.2091 60.1328 47.3218 60.2351C47.346 60.2601 47.3623 60.2916 47.3688 60.3256C47.3753 60.3597 47.3718 60.3949 47.3586 60.427C47.3454 60.459 47.3231 60.4866 47.2945 60.5064C47.2658 60.5261 47.232 60.5371 47.1972 60.5381Z" fill="#263238"/>
<path d="M46.6083 61.9223C46.6083 61.9223 46.636 61.9223 46.636 61.9498C46.6637 62.2666 46.7468 62.6385 47.0479 62.704V62.7212C46.6879 62.7109 46.5841 62.2288 46.6083 61.9223Z" fill="#263238"/>
<path d="M46.8578 61.5611C47.3666 61.4646 47.5224 62.4839 47.0516 62.5734C46.5809 62.663 46.432 61.6403 46.8578 61.5611Z" fill="#263238"/>
<path d="M47.0693 61.5818C47.1663 61.6266 47.2701 61.7161 47.3809 61.7092C47.4916 61.7024 47.5851 61.5818 47.6509 61.4682C47.6509 61.4682 47.6682 61.4682 47.6716 61.4682C47.7007 61.5593 47.6944 61.6578 47.6541 61.7445C47.6137 61.8312 47.5422 61.8997 47.4536 61.9365C47.2632 61.9916 47.1074 61.8367 47.0209 61.6473C47.007 61.6232 47.0278 61.5646 47.0693 61.5818Z" fill="#263238"/>
<path d="M44.8264 62.1086C44.8264 62.1086 44.8022 62.1292 44.8057 62.1396C44.868 62.4564 44.8818 62.8283 44.6118 62.9763C44.6118 62.9763 44.6118 62.997 44.6118 62.9936C44.9684 62.904 44.9407 62.4116 44.8264 62.1086Z" fill="#263238"/>
<path d="M44.497 61.8364C43.9777 61.8811 44.1024 62.9073 44.58 62.8694C45.0577 62.8315 44.9297 61.8019 44.497 61.8364Z" fill="#263238"/>
<path d="M44.2899 61.9294C44.2138 61.9948 44.1445 62.1016 44.0476 62.1222C43.9507 62.1429 43.8399 62.0396 43.7568 61.9432C43.7776 62.1395 43.8641 62.3357 44.058 62.3495C44.2518 62.3633 44.3418 62.1808 44.3661 61.9811C44.3522 61.957 44.3176 61.9053 44.2899 61.9294Z" fill="#263238"/>
<path d="M47.0418 64.519C46.983 64.6085 46.9276 64.7222 46.8134 64.7566C46.6993 64.7813 46.5813 64.7813 46.4672 64.7566C46.4672 64.7566 46.4465 64.7566 46.4672 64.7772C46.5244 64.8298 46.5949 64.8659 46.6711 64.8817C46.7473 64.8974 46.8264 64.8923 46.8999 64.8668C46.9638 64.8361 47.0167 64.7866 47.0514 64.725C47.086 64.6634 47.1008 64.5927 47.0938 64.5224C47.0938 64.5224 47.0522 64.519 47.0418 64.519Z" fill="#263238"/>
<path d="M45.5502 63.5547C45.5502 63.5547 45.5502 64.0368 45.5814 64.2606C45.5814 64.2813 45.6402 64.2847 45.7164 64.2779C45.9136 64.287 46.1095 64.2416 46.2824 64.1468C46.4553 64.052 46.5984 63.9114 46.696 63.7407C46.696 63.7166 46.6787 63.6959 46.6579 63.7131C46.3997 63.9481 46.0717 64.0931 45.7233 64.1263C45.6991 64.0678 45.751 63.2999 45.7233 63.3033C45.5517 63.3409 45.3862 63.4024 45.2318 63.4859C45.2006 62.4838 45.3322 61.4817 45.2872 60.4797C45.2872 60.4714 45.2839 60.4636 45.278 60.4577C45.2722 60.4519 45.2643 60.4487 45.256 60.4487C45.2477 60.4487 45.2398 60.4519 45.234 60.4577C45.2281 60.4636 45.2249 60.4714 45.2249 60.4797C45.0523 61.5496 44.9862 62.6338 45.0276 63.7166C45.0276 63.8302 45.4672 63.6029 45.5502 63.5547Z" fill="#263238"/>
<path d="M45.7324 64.1746C45.8824 64.3433 46.073 64.4712 46.2863 64.5465C46.3991 64.5807 46.5196 64.5807 46.6324 64.5465C46.8886 64.4639 46.8782 64.2263 46.8193 64.0266C46.7844 63.922 46.7379 63.8215 46.6809 63.727C46.4205 63.9726 46.0883 64.1294 45.7324 64.1746Z" fill="#263238"/>
<path d="M46.2871 64.5363C46.3999 64.5704 46.5204 64.5704 46.6333 64.5363C46.8894 64.4536 46.879 64.216 46.8202 64.0163C46.6857 64.0313 46.5602 64.0906 46.4636 64.1849C46.3669 64.2791 46.3048 64.4028 46.2871 64.5363Z" fill="#FF9CBD"/>
<path d="M51.5171 61.8953C51.0013 61.8953 49.5613 60.604 49.3294 58.1453C49.3294 58.1453 49.6756 60.3388 49.8832 60.6487C50.0909 60.9587 49.0767 59.9187 48.8448 57.9387C48.251 58.4341 47.5889 58.8423 46.8787 59.1508C45.9579 59.4952 45.3798 59.5193 45.3071 59.4573C45.2345 59.3953 46.5879 58.8547 46.9306 58.3967C46.9306 58.3967 44.5075 59.7465 43.3652 59.9222C43.2303 59.9222 42.8633 57.219 44.5595 55.9242C46.2556 54.6295 49.1806 55.666 49.9975 56.3375C49.9975 56.3375 50.9009 56.396 51.9705 57.6357C53.0401 58.8753 52.0709 61.885 51.5171 61.8953Z" fill="#263238"/>
<path d="M52.1891 63.0794C52.1258 63.1195 52.0585 63.153 51.9883 63.1793C51.9182 63.2054 51.8448 63.2216 51.7702 63.2275C51.6745 63.2375 51.5777 63.227 51.4864 63.1965C51.4142 63.1724 51.3455 63.1388 51.2822 63.0966C51.1937 63.0356 51.1164 62.9599 51.0537 62.8728V61.5918C51.0537 61.5918 51.7737 59.9493 52.5006 60.1766C53.2275 60.4038 52.9021 62.6421 52.1891 63.0794Z" fill="#FFBE90"/>
<path d="M52.3973 60.8137C52.3973 60.8137 52.3973 60.8137 52.3973 60.8343C52.1736 61.0065 51.9889 61.2237 51.8553 61.4717C51.7217 61.7198 51.6421 61.993 51.6219 62.2737C51.6421 62.2134 51.6753 62.1583 51.7191 62.112C51.7629 62.0658 51.8164 62.0296 51.8757 62.006C51.935 61.9824 51.9987 61.972 52.0625 61.9754C52.1263 61.9788 52.1886 61.996 52.245 62.0258V62.0568C52.1439 62.0457 52.0418 62.0658 51.9526 62.1145C51.8634 62.1632 51.7915 62.238 51.7465 62.3288C51.6742 62.482 51.6185 62.6425 51.5804 62.8075C51.5631 62.8625 51.4731 62.8522 51.48 62.8075C51.3312 62.1084 51.6738 61.034 52.3973 60.8137Z" fill="#263238"/>
<path d="M52.0952 65.0219C52.0741 65.0663 52.0427 65.105 52.0035 65.135C51.9644 65.1649 51.9187 65.1852 51.8702 65.1941C51.6902 65.2216 51.3475 65.0563 51.216 64.2506C51.1553 63.8654 51.1801 63.4716 51.2886 63.097C51.3198 63.004 51.344 62.9455 51.344 62.9386C51.3568 62.912 51.3795 62.8914 51.4073 62.8811C51.435 62.8708 51.4657 62.8717 51.4929 62.8835C51.5194 62.8955 51.54 62.9174 51.5504 62.9445C51.5608 62.9716 51.56 63.0016 51.5483 63.0281C51.5263 63.0832 51.5078 63.1395 51.4929 63.1969C51.4003 63.5333 51.3815 63.8856 51.4375 64.2299C51.5413 64.8876 51.7836 64.9978 51.8356 64.9875C51.8875 64.9771 51.8806 64.9634 51.9013 64.9289C52.064 64.6328 51.9706 63.7203 51.7767 63.2416C51.8513 63.2357 51.9247 63.2195 51.9948 63.1934C52.1748 63.6721 52.2959 64.6466 52.0952 65.0219Z" fill="#FFC727"/>
<path d="M54.3525 70.8203C52.7879 75.5103 45.6226 84.219 42.8465 84.6632C39.6273 85.1763 31.4236 80.9821 29.5647 79.1536C28.8274 78.4201 33.7462 73.6887 34.7224 74.2259C38.8104 76.4711 42.2373 77.3836 42.8534 77.0909C43.7984 76.6433 47.9868 72.5902 50.7352 69.8595C54.1898 66.3885 55.0586 68.7163 54.3525 70.8203Z" fill="#FFBE91"/>
<path d="M29.7651 79.2986C29.3427 79.0713 26.6012 76.375 25.8536 75.1905C25.0382 73.9575 24.4314 72.6 24.057 71.1719C23.4686 68.9129 23.2782 67.2979 23.6071 66.6368C23.9878 65.8654 24.0813 65.7483 25.684 69.5913C26.5839 71.7642 27.6985 72.1636 28.6989 72.2979C31.1402 72.6275 33.4756 73.4997 35.5319 74.8496C35.5319 74.8496 31.392 80.1732 29.7651 79.2986Z" fill="#FFBE91"/>
<path d="M27.4711 63.6479L31.2372 70.5866C31.3479 70.7932 31.2648 70.9826 31.0502 71.0136L27.2426 71.5714C27.1248 71.5797 27.007 71.5546 26.9029 71.4992C26.7988 71.4437 26.7126 71.3602 26.6541 71.2581L22.8846 64.3159C22.8552 64.2786 22.8365 64.234 22.8304 64.187C22.8242 64.14 22.8308 64.0922 22.8496 64.0486C22.8683 64.0049 22.8985 63.9671 22.9369 63.9391C22.9753 63.911 23.0206 63.8937 23.068 63.8889L26.8757 63.3311C26.995 63.3214 27.1146 63.3461 27.2202 63.4023C27.3258 63.4585 27.4129 63.5438 27.4711 63.6479Z" fill="#263238"/>
<path d="M27.813 63.6135L31.5791 70.5557C31.6086 70.5933 31.6272 70.6381 31.6332 70.6854C31.6392 70.7327 31.6323 70.7807 31.6132 70.8244C31.594 70.8681 31.5634 70.9059 31.5245 70.9337C31.4856 70.9616 31.4399 70.9785 31.3922 70.9827L27.5846 71.5371C27.4665 71.547 27.3481 71.5227 27.2437 71.4671C27.1392 71.4115 27.0532 71.3269 26.9961 71.2237L23.2265 64.2816C23.1969 64.2445 23.178 64.2002 23.1717 64.1533C23.1655 64.1064 23.1721 64.0587 23.1909 64.0152C23.2097 63.9718 23.24 63.9342 23.2786 63.9065C23.3172 63.8788 23.3626 63.8621 23.41 63.858L27.2176 63.3002C27.3367 63.2897 27.4562 63.3137 27.5619 63.3693C27.6675 63.4249 27.7547 63.5097 27.813 63.6135Z" fill="#37474F"/>
<path d="M27.7617 63.9955L31.2232 70.3626C31.3305 70.5554 31.2613 70.7345 31.0709 70.762L27.6579 71.2613C27.5492 71.2667 27.4412 71.2414 27.3462 71.1884C27.2513 71.1354 27.1734 71.0569 27.1214 70.9617L23.6599 64.5947C23.4453 64.1987 23.5526 64.0885 23.743 64.0609L24.4353 63.9611C24.4733 63.9611 24.5287 63.9921 24.5564 64.0472V64.0678C24.6222 64.1918 24.6949 64.1815 24.7849 64.1677L26.3633 63.937C26.4533 63.937 26.5225 63.9129 26.4568 63.7923V63.7682C26.4291 63.7166 26.4395 63.6684 26.4775 63.6615L27.1698 63.5616C27.3429 63.5341 27.5644 63.6339 27.7617 63.9955Z" fill="white"/>
<path d="M25.7081 63.8682L25.2754 63.9302C25.2677 63.931 25.2599 63.9295 25.2531 63.9258C25.2463 63.9221 25.2408 63.9165 25.2373 63.9096V63.882L25.6665 63.8166C25.6749 63.817 25.683 63.8194 25.6903 63.8236C25.6975 63.8278 25.7036 63.8336 25.7081 63.8407C25.7102 63.8423 25.712 63.8444 25.7132 63.8468C25.7144 63.8492 25.715 63.8518 25.715 63.8545C25.715 63.8571 25.7144 63.8598 25.7132 63.8622C25.712 63.8646 25.7102 63.8666 25.7081 63.8682Z" fill="white"/>
<path d="M29.1903 67.8349L26.293 68.2584L24.8115 65.5277L27.7088 65.1042L29.1903 67.8349Z" fill="#FF6272"/>
<path d="M28.2284 68.4584L26.5358 68.7063L26.4492 68.5445L28.1419 68.2966L28.2284 68.4584Z" fill="#A6A6A6"/>
<path d="M28.6815 68.6753L26.6773 68.968L26.6357 68.8888L28.6365 68.5961L28.6815 68.6753Z" fill="#A6A6A6"/>
<path d="M28.7616 68.8233L26.7574 69.116L26.7158 69.0368L28.72 68.7441L28.7616 68.8233Z" fill="#A6A6A6"/>
<path d="M28.8412 68.9715L26.8369 69.2642L26.7954 69.1816L28.7962 68.8889L28.8412 68.9715Z" fill="#A6A6A6"/>
<path d="M24.7213 64.6428L24.3613 64.6979L24.3232 64.629L24.6867 64.5773L24.7213 64.6428Z" fill="#A6A6A6"/>
<path d="M24.7867 64.7671L24.4267 64.8187L24.3887 64.7533L24.7521 64.6982L24.7867 64.7671Z" fill="#A6A6A6"/>
<path d="M24.8536 64.8874L24.4936 64.939L24.4556 64.8736L24.819 64.822L24.8536 64.8874Z" fill="#A6A6A6"/>
<path d="M29.3773 68.2415C29.3696 68.2779 29.3516 68.3113 29.3254 68.3379C29.2758 68.3227 29.229 68.2994 29.1869 68.269C29.1004 68.2139 29.0589 68.1244 29.1316 68.1141C29.2043 68.1037 29.2423 68.1795 29.2423 68.1795C29.2423 68.1795 29.2112 68.1037 29.2666 68.0934C29.3219 68.0831 29.3946 68.1726 29.3773 68.2415Z" fill="#FF6272"/>
<path d="M30.1777 70.2075L27.8378 70.5484L27.4985 69.9182L29.835 69.5773L30.1777 70.2075Z" fill="#FF6272"/>
<path d="M28.1793 72.2051C29.2178 72.3773 26.1786 69.7947 26.3067 68.6135C26.4348 67.4324 27.5217 67.9799 28.3213 68.7754C31.0905 71.5302 33.472 71.7885 34.7216 74.2161C35.9712 76.6438 28.1793 72.2051 28.1793 72.2051Z" fill="#FFBE91"/>
<path d="M44.6672 75.6725C44.3661 75.8929 44.0753 76.1236 43.7845 76.3612C43.5224 76.5888 43.2397 76.7916 42.9399 76.9673C42.579 77.1144 42.1782 77.1339 41.8046 77.0224C41.4669 76.9533 41.133 76.8671 40.8042 76.7641C39.4564 76.341 38.1401 75.8243 36.865 75.218C36.1408 74.9139 35.4347 74.569 34.75 74.1849L34.8262 74.2779C34.6664 73.9452 34.4702 73.6311 34.2412 73.3412C33.9756 73.0054 33.6751 72.6983 33.3447 72.4253C32.9921 72.1364 32.6209 71.8706 32.2335 71.6298C32.0328 71.5024 31.8285 71.3785 31.6243 71.2579L31.3266 71.0616C31.2005 71.0063 31.0838 70.932 30.9805 70.8413C31.0047 70.8757 31.0532 70.8413 31.022 70.8068C31.022 70.8068 30.9978 70.8068 30.9874 70.8068C30.9849 70.8103 30.9835 70.8146 30.9835 70.8189C30.9835 70.8232 30.9849 70.8274 30.9874 70.8309C31.0185 70.8895 31.0912 70.917 31.1432 70.9549L31.427 71.1684L31.9601 71.5575C32.3581 71.8433 32.7597 72.136 33.1404 72.4494C33.466 72.7159 33.7725 73.0047 34.0577 73.3137C34.2031 73.4687 34.3347 73.6374 34.4731 73.8027C34.602 73.9631 34.7178 74.1335 34.8193 74.3123C34.8193 74.3295 36.0689 75.001 36.7162 75.3454C37.3635 75.6897 38.0281 75.979 38.7065 76.251C39.385 76.5231 40.0704 76.771 40.7834 76.9879C41.1373 77.1012 41.498 77.1921 41.8634 77.26C42.1889 77.3547 42.5348 77.3547 42.8603 77.26C43.1834 77.0742 43.4773 76.8421 43.7326 76.5713C44.0788 76.2786 44.4249 75.9859 44.7711 75.6794C44.7053 75.6863 44.6845 75.6622 44.6672 75.6725Z" fill="#263238"/>
<path d="M44.6084 75.4899L49.3818 79.9493C49.3818 79.9493 53.4525 74.9665 54.529 71.1167C55.6056 67.2668 53.6048 66.74 50.0533 70.242C46.578 73.6649 44.6084 75.4899 44.6084 75.4899Z" fill="#CECDFD"/>
<path d="M48.3329 71.8952C47.7133 72.4358 47.1214 73.0143 46.533 73.5859C46.2457 73.8649 45.9618 74.1438 45.6849 74.4296C45.5361 74.5811 45.3872 74.7292 45.2418 74.8807C45.0882 75.0561 44.919 75.2174 44.7365 75.3628C44.7053 75.3869 44.7364 75.4351 44.7711 75.4041C45.0522 75.1044 45.3554 74.8259 45.678 74.5708C45.993 74.2884 46.3045 73.9992 46.6091 73.7065C47.2045 73.128 47.8033 72.5391 48.3399 71.9158C48.3676 71.9021 48.3468 71.8848 48.3329 71.8952Z" fill="#263238"/>
<path d="M53.2822 74.6671C53.1251 74.8566 52.9513 75.0317 52.763 75.1905L52.5484 75.3833C52.8703 74.853 53.1784 74.3159 53.4587 73.7683C53.4587 73.7683 53.4587 73.7511 53.4587 73.7683C52.7491 74.8014 52.0984 75.8861 51.3818 76.926C50.6653 77.966 49.9972 79.0886 49.2461 80.1147C49.2423 80.1171 49.2392 80.1204 49.237 80.1243C49.2348 80.1281 49.2336 80.1325 49.2334 80.1369C49.2333 80.1414 49.2342 80.1458 49.2361 80.1498C49.238 80.1538 49.2409 80.1573 49.2445 80.1599C49.248 80.1626 49.2522 80.1644 49.2566 80.1651C49.261 80.1658 49.2655 80.1655 49.2698 80.1641C49.274 80.1627 49.2779 80.1603 49.281 80.1571C49.2841 80.1539 49.2864 80.15 49.2876 80.1457C50.0284 79.1127 50.828 78.1175 51.5168 77.0466C51.7903 76.6161 52.0672 76.1857 52.3372 75.7484C52.4212 75.6847 52.4999 75.6145 52.5726 75.5383C52.6644 75.4539 52.751 75.3642 52.8322 75.2697C52.9914 75.0803 53.1576 74.8944 53.3272 74.7119C53.3445 74.6809 53.303 74.643 53.2822 74.6671Z" fill="#263238"/>
<path d="M43.2412 75.9686L44.7089 74.7668L50.1677 79.8701L48.9804 81.4231L43.2412 75.9686Z" fill="#CECDFD"/>
<path d="M49.503 79.1986C48.828 78.5099 48.0976 77.8729 47.3914 77.2186C46.6853 76.5643 45.9272 75.9548 45.2419 75.2764C45.2366 75.2732 45.2303 75.2719 45.2241 75.2726C45.218 75.2733 45.2122 75.2761 45.2078 75.2805C45.2034 75.2848 45.2006 75.2906 45.1999 75.2967C45.1992 75.3028 45.2005 75.3091 45.2038 75.3143C45.8961 75.9824 46.5468 76.6917 47.2599 77.3563C47.9616 78.0218 48.6976 78.6505 49.4649 79.2399C49.4926 79.2606 49.5306 79.2262 49.503 79.1986Z" fill="#263238"/>
<path d="M48.0312 80.5243C48.3774 80.7895 48.7236 81.0753 49.0282 81.3645H48.9105C49.2982 80.8377 49.6997 80.3315 50.1289 79.8322V79.8941C50.0008 79.7564 49.8728 79.6187 49.7516 79.4775C49.9005 79.5877 50.0493 79.7082 50.1947 79.8218L50.2224 79.8494L50.1981 79.8838C49.8312 80.4279 49.4401 80.9479 49.0282 81.4541L48.9728 81.5264L48.9139 81.4644C48.6128 81.1682 48.3151 80.8549 48.0312 80.5243Z" fill="#263238"/>
<path d="M52.7879 68.1725C52.4675 68.3046 52.166 68.4783 51.8914 68.6891C51.6017 68.8909 51.3233 69.1082 51.0572 69.3399C50.538 69.8013 50.0464 70.2869 49.5376 70.7586C49.7591 70.49 49.998 70.2352 50.2299 69.9873C50.4618 69.7393 50.7387 69.5121 51.0087 69.2986C51.2787 69.0851 51.5522 68.8647 51.8395 68.6684C52.1253 68.4677 52.4359 68.3045 52.7637 68.1829L52.7879 68.1725Z" fill="#263238"/>
<path d="M79.1139 54.2876L75.7557 69.425H76.9859L82.3599 54.2876H79.1139Z" fill="#C1535E"/>
<path d="M79.1129 54.2876L75.7547 69.425H76.2596L81.0444 54.2876H79.1129Z" fill="#FF6272"/>
<path d="M89.8605 54.2876L93.2188 69.425H91.9885L86.6146 54.2876H89.8605Z" fill="#C1535E"/>
<path d="M89.8605 54.2876L93.2188 69.425H92.5455L87.7607 54.2876H89.8605Z" fill="#FF6272"/>
<path d="M83.8144 54.7297L84.712 70.9548H85.7179L86.3911 54.5105L83.8144 54.7297Z" fill="#FF6272"/>
<path d="M83.7613 55.0925C74.9815 55.0925 67.864 54.4449 67.864 53.646C67.864 52.8472 74.9815 52.1996 83.7613 52.1996C92.5412 52.1996 99.6587 52.8472 99.6587 53.646C99.6587 54.4449 92.5412 55.0925 83.7613 55.0925Z" fill="#C1535E"/>
<path d="M99.654 53.5779L67.8633 53.5779V52.6415L99.654 52.6415V53.5779Z" fill="#C1535E"/>
<path d="M99.6543 52.6459C99.6543 53.4468 92.5372 54.0923 83.7569 54.0923C74.9767 54.0923 67.8596 53.4428 67.8596 52.6459C67.8596 51.849 74.9767 51.1995 83.7569 51.1995C92.5372 51.1995 99.6543 51.845 99.6543 52.6459Z" fill="#FF6272"/>
</svg>
