<svg width="207" height="44" viewBox="0 0 207 44" fill="none" xmlns="http://www.w3.org/2000/svg">
<g clip-path="url(#clip0_822_8822)">
<rect y="3.07422" width="36.8911" height="36.8911" rx="4" fill="#5D58F7"/>
<path d="M27.4747 9.22266H14.1763L22.0326 17.079L28.1818 10.9298C28.8118 10.2998 28.3656 9.22266 27.4747 9.22266Z" fill="url(#paint0_linear_822_8822)"/>
<path d="M9.00475 33.8169L22.374 33.8169L14.5177 25.619L8.28277 32.125C7.67342 32.7608 8.12407 33.8169 9.00475 33.8169Z" fill="url(#paint1_linear_822_8822)"/>
<path d="M7.30964 18.0973C6.94489 17.7167 6.93825 17.1183 7.29448 16.7296L14.1759 9.22266L29.8646 24.9114C30.2551 25.3019 30.2551 25.9351 29.8646 26.3256L22.3738 33.8164L7.30964 18.0973Z" fill="white"/>
</g>
<path d="M54.7938 31.196C53.4311 31.196 52.1991 30.9627 51.0978 30.496C50.0151 30.0293 49.1564 29.3573 48.5218 28.48C47.8871 27.6027 47.5604 26.5667 47.5418 25.372H51.7418C51.7978 26.1747 52.0778 26.8093 52.5818 27.276C53.1044 27.7427 53.8138 27.976 54.7098 27.976C55.6244 27.976 56.3431 27.7613 56.8658 27.332C57.3884 26.884 57.6498 26.3053 57.6498 25.596C57.6498 25.0173 57.4724 24.5413 57.1178 24.168C56.7631 23.7947 56.3151 23.5053 55.7738 23.3C55.2511 23.076 54.5231 22.8333 53.5898 22.572C52.3204 22.1987 51.2844 21.8347 50.4818 21.48C49.6978 21.1067 49.0164 20.556 48.4378 19.828C47.8778 19.0813 47.5978 18.092 47.5978 16.86C47.5978 15.7027 47.8871 14.6947 48.4658 13.836C49.0444 12.9773 49.8564 12.324 50.9018 11.876C51.9471 11.4093 53.1418 11.176 54.4858 11.176C56.5018 11.176 58.1351 11.6707 59.3858 12.66C60.6551 13.6307 61.3551 14.9933 61.4858 16.748H57.1738C57.1364 16.076 56.8471 15.5253 56.3058 15.096C55.7831 14.648 55.0831 14.424 54.2058 14.424C53.4404 14.424 52.8244 14.62 52.3578 15.012C51.9098 15.404 51.6858 15.9733 51.6858 16.72C51.6858 17.2427 51.8538 17.6813 52.1898 18.036C52.5444 18.372 52.9738 18.652 53.4778 18.876C54.0004 19.0813 54.7284 19.324 55.6618 19.604C56.9311 19.9773 57.9671 20.3507 58.7698 20.724C59.5724 21.0973 60.2631 21.6573 60.8418 22.404C61.4204 23.1507 61.7098 24.1307 61.7098 25.344C61.7098 26.3893 61.4391 27.36 60.8978 28.256C60.3564 29.152 59.5631 29.8707 58.5178 30.412C57.4724 30.9347 56.2311 31.196 54.7938 31.196ZM68.7483 17.728C69.2523 17.0187 69.9429 16.4307 70.8203 15.964C71.7163 15.4787 72.7336 15.236 73.8723 15.236C75.1976 15.236 76.3923 15.5627 77.4563 16.216C78.5389 16.8693 79.3883 17.8027 80.0043 19.016C80.6389 20.2107 80.9563 21.6013 80.9563 23.188C80.9563 24.7747 80.6389 26.184 80.0043 27.416C79.3883 28.6293 78.5389 29.572 77.4563 30.244C76.3923 30.916 75.1976 31.252 73.8723 31.252C72.7336 31.252 71.7256 31.0187 70.8483 30.552C69.9896 30.0853 69.2896 29.4973 68.7483 28.788V38.392H64.8283V15.488H68.7483V17.728ZM76.9523 23.188C76.9523 22.2547 76.7563 21.452 76.3643 20.78C75.9909 20.0893 75.4869 19.5667 74.8523 19.212C74.2363 18.8573 73.5643 18.68 72.8363 18.68C72.1269 18.68 71.4549 18.8667 70.8203 19.24C70.2043 19.5947 69.7003 20.1173 69.3083 20.808C68.9349 21.4987 68.7483 22.3107 68.7483 23.244C68.7483 24.1773 68.9349 24.9893 69.3083 25.68C69.7003 26.3707 70.2043 26.9027 70.8203 27.276C71.4549 27.6307 72.1269 27.808 72.8363 27.808C73.5643 27.808 74.2363 27.6213 74.8523 27.248C75.4869 26.8747 75.9909 26.3427 76.3643 25.652C76.7563 24.9613 76.9523 24.14 76.9523 23.188ZM82.5168 23.188C82.5168 21.62 82.8248 20.2293 83.4408 19.016C84.0755 17.8027 84.9248 16.8693 85.9888 16.216C87.0715 15.5627 88.2755 15.236 89.6008 15.236C90.7582 15.236 91.7662 15.4693 92.6248 15.936C93.5022 16.4027 94.2022 16.9907 94.7248 17.7V15.488H98.6728V31H94.7248V28.732C94.2208 29.46 93.5208 30.0667 92.6248 30.552C91.7475 31.0187 90.7302 31.252 89.5728 31.252C88.2662 31.252 87.0715 30.916 85.9888 30.244C84.9248 29.572 84.0755 28.6293 83.4408 27.416C82.8248 26.184 82.5168 24.7747 82.5168 23.188ZM94.7248 23.244C94.7248 22.292 94.5382 21.48 94.1648 20.808C93.7915 20.1173 93.2875 19.5947 92.6528 19.24C92.0182 18.8667 91.3368 18.68 90.6088 18.68C89.8808 18.68 89.2088 18.8573 88.5928 19.212C87.9768 19.5667 87.4728 20.0893 87.0808 20.78C86.7075 21.452 86.5208 22.2547 86.5208 23.188C86.5208 24.1213 86.7075 24.9427 87.0808 25.652C87.4728 26.3427 87.9768 26.8747 88.5928 27.248C89.2275 27.6213 89.8995 27.808 90.6088 27.808C91.3368 27.808 92.0182 27.6307 92.6528 27.276C93.2875 26.9027 93.7915 26.38 94.1648 25.708C94.5382 25.0173 94.7248 24.196 94.7248 23.244ZM101.213 23.244C101.213 21.6387 101.54 20.2387 102.193 19.044C102.847 17.8307 103.752 16.8973 104.909 16.244C106.067 15.572 107.392 15.236 108.885 15.236C110.808 15.236 112.395 15.7213 113.645 16.692C114.915 17.644 115.764 18.988 116.193 20.724H111.965C111.741 20.052 111.359 19.5293 110.817 19.156C110.295 18.764 109.641 18.568 108.857 18.568C107.737 18.568 106.851 18.9787 106.197 19.8C105.544 20.6027 105.217 21.7507 105.217 23.244C105.217 24.7187 105.544 25.8667 106.197 26.688C106.851 27.4907 107.737 27.892 108.857 27.892C110.444 27.892 111.48 27.1827 111.965 25.764H116.193C115.764 27.444 114.915 28.7787 113.645 29.768C112.376 30.7573 110.789 31.252 108.885 31.252C107.392 31.252 106.067 30.9253 104.909 30.272C103.752 29.6 102.847 28.6667 102.193 27.472C101.54 26.2587 101.213 24.8493 101.213 23.244ZM133.205 22.908C133.205 23.468 133.168 23.972 133.093 24.42H121.753C121.846 25.54 122.238 26.4173 122.929 27.052C123.62 27.6867 124.469 28.004 125.477 28.004C126.933 28.004 127.969 27.3787 128.585 26.128H132.813C132.365 27.6213 131.506 28.8533 130.237 29.824C128.968 30.776 127.409 31.252 125.561 31.252C124.068 31.252 122.724 30.9253 121.529 30.272C120.353 29.6 119.429 28.6573 118.757 27.444C118.104 26.2307 117.777 24.8307 117.777 23.244C117.777 21.6387 118.104 20.2293 118.757 19.016C119.41 17.8027 120.325 16.8693 121.501 16.216C122.677 15.5627 124.03 15.236 125.561 15.236C127.036 15.236 128.352 15.5533 129.509 16.188C130.685 16.8227 131.59 17.728 132.225 18.904C132.878 20.0613 133.205 21.396 133.205 22.908ZM129.145 21.788C129.126 20.78 128.762 19.9773 128.053 19.38C127.344 18.764 126.476 18.456 125.449 18.456C124.478 18.456 123.657 18.7547 122.985 19.352C122.332 19.9307 121.93 20.7427 121.781 21.788H129.145ZM149.394 17.336C148.946 16.5147 148.33 15.8893 147.546 15.46C146.762 15.0307 145.848 14.816 144.802 14.816C143.645 14.816 142.618 15.0773 141.722 15.6C140.826 16.1227 140.126 16.8693 139.622 17.84C139.118 18.8107 138.866 19.9307 138.866 21.2C138.866 22.5067 139.118 23.6453 139.622 24.616C140.145 25.5867 140.864 26.3333 141.778 26.856C142.693 27.3787 143.757 27.64 144.97 27.64C146.464 27.64 147.686 27.248 148.638 26.464C149.59 25.6613 150.216 24.5507 150.514 23.132H143.794V20.136H154.378V23.552C154.117 24.9147 153.557 26.1747 152.698 27.332C151.84 28.4893 150.729 29.4227 149.366 30.132C148.022 30.8227 146.51 31.168 144.83 31.168C142.945 31.168 141.237 30.748 139.706 29.908C138.194 29.0493 137 27.864 136.122 26.352C135.264 24.84 134.834 23.1227 134.834 21.2C134.834 19.2773 135.264 17.56 136.122 16.048C137 14.5173 138.194 13.332 139.706 12.492C141.237 11.6333 142.936 11.204 144.802 11.204C147.005 11.204 148.918 11.7453 150.542 12.828C152.166 13.892 153.286 15.3947 153.902 17.336H149.394ZM171.643 15.488V31H167.695V29.04C167.191 29.712 166.528 30.244 165.707 30.636C164.904 31.0093 164.027 31.196 163.075 31.196C161.861 31.196 160.788 30.944 159.855 30.44C158.921 29.9173 158.184 29.1613 157.643 28.172C157.12 27.164 156.859 25.9693 156.859 24.588V15.488H160.779V24.028C160.779 25.26 161.087 26.212 161.703 26.884C162.319 27.5373 163.159 27.864 164.223 27.864C165.305 27.864 166.155 27.5373 166.771 26.884C167.387 26.212 167.695 25.26 167.695 24.028V15.488H171.643ZM179.15 17.896C179.654 17.0747 180.308 16.4307 181.11 15.964C181.932 15.4973 182.865 15.264 183.91 15.264V19.38H182.874C181.642 19.38 180.709 19.6693 180.074 20.248C179.458 20.8267 179.15 21.8347 179.15 23.272V31H175.23V15.488H179.15V17.896ZM200.915 15.488V31H196.967V29.04C196.463 29.712 195.8 30.244 194.979 30.636C194.176 31.0093 193.299 31.196 192.347 31.196C191.133 31.196 190.06 30.944 189.127 30.44C188.193 29.9173 187.456 29.1613 186.915 28.172C186.392 27.164 186.131 25.9693 186.131 24.588V15.488H190.051V24.028C190.051 25.26 190.359 26.212 190.975 26.884C191.591 27.5373 192.431 27.864 193.495 27.864C194.577 27.864 195.427 27.5373 196.043 26.884C196.659 26.212 196.967 25.26 196.967 24.028V15.488H200.915Z" fill="black"/>
<defs>
<linearGradient id="paint0_linear_822_8822" x1="29.8889" y1="9.22266" x2="14.1763" y2="9.22266" gradientUnits="userSpaceOnUse">
<stop stop-color="white"/>
<stop offset="1" stop-color="white" stop-opacity="0.5"/>
</linearGradient>
<linearGradient id="paint1_linear_822_8822" x1="6.66136" y1="33.8169" x2="22.374" y2="33.8169" gradientUnits="userSpaceOnUse">
<stop stop-color="white"/>
<stop offset="1" stop-color="white" stop-opacity="0.5"/>
</linearGradient>
<clipPath id="clip0_822_8822">
<rect width="36.8911" height="36.8911" fill="white" transform="translate(0 3.07422)"/>
</clipPath>
</defs>
</svg>
