<svg width="150" height="27" viewBox="0 0 150 27" fill="none" xmlns="http://www.w3.org/2000/svg">
<path d="M40.4376 20.7119C39.4159 20.7119 38.4921 20.5405 37.6663 20.1975C36.8545 19.8546 36.2107 19.3608 35.7348 18.7161C35.2589 18.0713 35.014 17.31 35 16.4321H38.1492C38.1912 17.0219 38.4011 17.4883 38.779 17.8313C39.1709 18.1742 39.7028 18.3457 40.3746 18.3457C41.0604 18.3457 41.5993 18.1879 41.9912 17.8724C42.3831 17.5432 42.579 17.118 42.579 16.5967C42.579 16.1715 42.4461 15.8217 42.1801 15.5473C41.9142 15.273 41.5783 15.0604 41.1724 14.9095C40.7805 14.7449 40.2347 14.5665 39.5348 14.3745C38.5831 14.1001 37.8063 13.8326 37.2044 13.572C36.6166 13.2977 36.1057 12.893 35.6718 12.358C35.2519 11.8093 35.042 11.0823 35.042 10.177C35.042 9.32647 35.2589 8.58573 35.6928 7.95473C36.1267 7.32373 36.7356 6.84362 37.5194 6.5144C38.3031 6.17147 39.1989 6 40.2067 6C41.7183 6 42.943 6.36351 43.8807 7.09053C44.8325 7.80384 45.3573 8.80521 45.4553 10.0946H42.2221C42.1941 9.60082 41.9772 9.19616 41.5713 8.88066C41.1794 8.55144 40.6545 8.38683 39.9967 8.38683C39.4229 8.38683 38.961 8.53086 38.6111 8.81893C38.2752 9.107 38.1072 9.52538 38.1072 10.0741C38.1072 10.4582 38.2332 10.7805 38.4851 11.0412C38.751 11.2881 39.073 11.4938 39.4509 11.6584C39.8428 11.8093 40.3886 11.9877 41.0884 12.1934C42.0402 12.4678 42.817 12.7421 43.4188 13.0165C44.0207 13.2908 44.5385 13.7023 44.9724 14.251C45.4063 14.7997 45.6233 15.5199 45.6233 16.4115C45.6233 17.1797 45.4203 17.893 45.0144 18.5514C44.6085 19.2099 44.0137 19.738 43.2299 20.1358C42.4461 20.5199 41.5153 20.7119 40.4376 20.7119Z" fill="white"/>
<path d="M50.9008 10.8148C51.2787 10.2936 51.7965 9.86145 52.4544 9.51852C53.1262 9.16187 53.889 8.98354 54.7428 8.98354C55.7365 8.98354 56.6323 9.22359 57.4301 9.7037C58.2419 10.1838 58.8787 10.8697 59.3406 11.7613C59.8165 12.6392 60.0544 13.6612 60.0544 14.8272C60.0544 15.9931 59.8165 17.0288 59.3406 17.9342C58.8787 18.8258 58.2419 19.5185 57.4301 20.0123C56.6323 20.5062 55.7365 20.7531 54.7428 20.7531C53.889 20.7531 53.1332 20.5816 52.4754 20.2387C51.8315 19.8957 51.3067 19.4636 50.9008 18.9424V26H47.9615V9.16872H50.9008V10.8148ZM57.0522 14.8272C57.0522 14.1413 56.9052 13.5514 56.6113 13.0576C56.3314 12.5501 55.9535 12.166 55.4776 11.9054C55.0157 11.6447 54.5118 11.5144 53.966 11.5144C53.4341 11.5144 52.9303 11.6516 52.4544 11.9259C51.9925 12.1866 51.6146 12.5706 51.3207 13.0782C51.0407 13.5857 50.9008 14.1824 50.9008 14.8683C50.9008 15.5542 51.0407 16.1509 51.3207 16.6584C51.6146 17.166 51.9925 17.5569 52.4544 17.8313C52.9303 18.0919 53.4341 18.2222 53.966 18.2222C54.5118 18.2222 55.0157 18.085 55.4776 17.8107C55.9535 17.5364 56.3314 17.1454 56.6113 16.6379C56.9052 16.1303 57.0522 15.5267 57.0522 14.8272Z" fill="white"/>
<path d="M61.2245 14.8272C61.2245 13.6749 61.4555 12.6529 61.9174 11.7613C62.3932 10.8697 63.0301 10.1838 63.8279 9.7037C64.6397 9.22359 65.5424 8.98354 66.5362 8.98354C67.4039 8.98354 68.1598 9.15501 68.8036 9.49794C69.4614 9.84088 69.9863 10.273 70.3782 10.7942V9.16872H73.3384V20.5679H70.3782V18.9012C70.0003 19.4362 69.4754 19.882 68.8036 20.2387C68.1458 20.5816 67.3829 20.7531 66.5152 20.7531C65.5354 20.7531 64.6397 20.5062 63.8279 20.0123C63.0301 19.5185 62.3932 18.8258 61.9174 17.9342C61.4555 17.0288 61.2245 15.9931 61.2245 14.8272ZM70.3782 14.8683C70.3782 14.1687 70.2382 13.572 69.9583 13.0782C69.6784 12.5706 69.3005 12.1866 68.8246 11.9259C68.3487 11.6516 67.8378 11.5144 67.292 11.5144C66.7461 11.5144 66.2422 11.6447 65.7804 11.9054C65.3185 12.166 64.9406 12.5501 64.6467 13.0576C64.3667 13.5514 64.2268 14.1413 64.2268 14.8272C64.2268 15.513 64.3667 16.1166 64.6467 16.6379C64.9406 17.1454 65.3185 17.5364 65.7804 17.8107C66.2562 18.085 66.7601 18.2222 67.292 18.2222C67.8378 18.2222 68.3487 18.0919 68.8246 17.8313C69.3005 17.5569 69.6784 17.1728 69.9583 16.679C70.2382 16.1715 70.3782 15.5679 70.3782 14.8683Z" fill="white"/>
<path d="M75.2433 14.8683C75.2433 13.6886 75.4883 12.6598 75.9782 11.7819C76.468 10.8903 77.1469 10.2044 78.0146 9.72428C78.8824 9.23045 79.8762 8.98354 80.9959 8.98354C82.4375 8.98354 83.6272 9.34019 84.5649 10.0535C85.5167 10.7531 86.1535 11.7407 86.4755 13.0165H83.3053C83.1373 12.5226 82.8504 12.1385 82.4445 11.8642C82.0526 11.5761 81.5627 11.4321 80.9749 11.4321C80.1351 11.4321 79.4703 11.7339 78.9804 12.3374C78.4905 12.9273 78.2456 13.7709 78.2456 14.8683C78.2456 15.952 78.4905 16.7956 78.9804 17.3992C79.4703 17.989 80.1351 18.284 80.9749 18.284C82.1646 18.284 82.9414 17.7627 83.3053 16.7202H86.4755C86.1535 17.9547 85.5167 18.9355 84.5649 19.6626C83.6132 20.3896 82.4235 20.7531 80.9959 20.7531C79.8762 20.7531 78.8824 20.513 78.0146 20.0329C77.1469 19.5391 76.468 18.8532 75.9782 17.9753C75.4883 17.0837 75.2433 16.048 75.2433 14.8683Z" fill="white"/>
<path d="M99.231 14.6214C99.231 15.0329 99.203 15.4033 99.147 15.7325H90.6442C90.7142 16.5556 91.0081 17.2003 91.526 17.6667C92.0438 18.1331 92.6807 18.3663 93.4365 18.3663C94.5282 18.3663 95.305 17.9067 95.7669 16.9877H98.937C98.6011 18.085 97.9573 18.9904 97.0056 19.7037C96.0538 20.4033 94.8851 20.7531 93.4995 20.7531C92.3797 20.7531 91.372 20.513 90.4762 20.0329C89.5945 19.5391 88.9016 18.8464 88.3978 17.9547C87.9079 17.0631 87.663 16.0343 87.663 14.8683C87.663 13.6886 87.9079 12.6529 88.3978 11.7613C88.8876 10.8697 89.5735 10.1838 90.4552 9.7037C91.337 9.22359 92.3517 8.98354 93.4995 8.98354C94.6052 8.98354 95.5919 9.21674 96.4597 9.68313C97.3415 10.1495 98.0203 10.8148 98.4962 11.679C98.986 12.5295 99.231 13.5103 99.231 14.6214ZM96.1868 13.7984C96.1728 13.0576 95.8998 12.4678 95.368 12.0288C94.8361 11.5761 94.1853 11.3498 93.4155 11.3498C92.6877 11.3498 92.0718 11.5693 91.568 12.0082C91.0781 12.4335 90.7772 13.0302 90.6652 13.7984H96.1868Z" fill="white"/>
<path d="M111.37 10.5267C111.034 9.92318 110.572 9.46365 109.984 9.14815C109.396 8.83265 108.71 8.6749 107.927 8.6749C107.059 8.6749 106.289 8.86694 105.617 9.25103C104.945 9.63512 104.421 10.1838 104.043 10.8971C103.665 11.6104 103.476 12.4335 103.476 13.3663C103.476 14.3265 103.665 15.1632 104.043 15.8765C104.435 16.5898 104.973 17.1385 105.659 17.5226C106.345 17.9067 107.143 18.0988 108.053 18.0988C109.172 18.0988 110.089 17.8107 110.803 17.2346C111.517 16.6447 111.986 15.8285 112.21 14.786H107.171V12.5844H115.107V15.0947C114.911 16.096 114.491 17.0219 113.847 17.8724C113.203 18.7229 112.371 19.4088 111.349 19.93C110.341 20.4376 109.207 20.6914 107.948 20.6914C106.534 20.6914 105.253 20.3827 104.106 19.7654C102.972 19.1344 102.076 18.2634 101.418 17.1523C100.775 16.0412 100.453 14.7791 100.453 13.3663C100.453 11.9534 100.775 10.6914 101.418 9.58025C102.076 8.45542 102.972 7.58436 104.106 6.96708C105.253 6.33608 106.527 6.02058 107.927 6.02058C109.578 6.02058 111.013 6.41838 112.231 7.21399C113.448 7.99588 114.288 9.10014 114.75 10.5267H111.37Z" fill="white"/>
<path d="M128.052 9.16872V20.5679H125.091V19.1276C124.713 19.6214 124.217 20.0123 123.601 20.3004C122.999 20.5748 122.341 20.7119 121.627 20.7119C120.718 20.7119 119.913 20.5267 119.213 20.1564C118.513 19.7723 117.96 19.2167 117.554 18.4897C117.162 17.749 116.966 16.8711 116.966 15.856V9.16872H119.906V15.4444C119.906 16.3498 120.137 17.0494 120.599 17.5432C121.06 18.0233 121.69 18.2634 122.488 18.2634C123.3 18.2634 123.937 18.0233 124.399 17.5432C124.86 17.0494 125.091 16.3498 125.091 15.4444V9.16872H128.052Z" fill="white"/>
<path d="M133.681 10.9383C134.059 10.3347 134.549 9.86145 135.151 9.51852C135.766 9.17558 136.466 9.00411 137.25 9.00411V12.0288H136.473C135.549 12.0288 134.85 12.2414 134.374 12.6667C133.912 13.0919 133.681 13.8326 133.681 14.8889V20.5679H130.742V9.16872H133.681V10.9383Z" fill="white"/>
<path d="M150 9.16872V20.5679H147.04V19.1276C146.662 19.6214 146.165 20.0123 145.549 20.3004C144.947 20.5748 144.289 20.7119 143.576 20.7119C142.666 20.7119 141.861 20.5267 141.161 20.1564C140.461 19.7723 139.909 19.2167 139.503 18.4897C139.111 17.749 138.915 16.8711 138.915 15.856V9.16872H141.854V15.4444C141.854 16.3498 142.085 17.0494 142.547 17.5432C143.009 18.0233 143.639 18.2634 144.436 18.2634C145.248 18.2634 145.885 18.0233 146.347 17.5432C146.809 17.0494 147.04 16.3498 147.04 15.4444V9.16872H150Z" fill="white"/>
<path d="M24.3802 0H2.61979C1.17347 0 0 1.17347 0 2.61978V24.3802C0 25.8265 1.17347 27 2.61979 27H24.3802C25.8266 27 27 25.8265 27 24.3802V2.61978C27.0021 1.17347 25.8286 0 24.3802 0Z" fill="white"/>
<path d="M10 4C10 4 21.1883 4.02845 21.5172 4.01327C21.8481 4 22.2521 4.51803 21.7953 4.94498C21.1802 5.52181 16.389 10 16.389 10L10 4Z" fill="url(#paint0_linear_1155_1695)"/>
<path d="M17 24C17 24 4.87936 23.967 4.52305 23.9846C4.16455 24 3.72688 23.3992 4.22176 22.9041C4.88816 22.2373 10.0984 17 10.0984 17L17 24Z" fill="url(#paint1_linear_1155_1695)"/>
<path d="M22.9156 17.1117L16.712 10.6695L10.4921 4.22941L10.2615 4L4.09664 10.4169C4.02726 10.4843 3.99461 10.5769 4.00072 10.6695C4.00481 10.741 4.03135 10.8126 4.08236 10.8673L10.3472 17.3095H10.3758L16.5079 23.7727L16.7406 24L22.9034 17.562C22.9727 17.4947 23.0054 17.4021 22.9993 17.3095C22.9911 17.2379 22.9646 17.1685 22.9156 17.1117Z" fill="#5D58F7"/>
<defs>
<linearGradient id="paint0_linear_1155_1695" x1="10.1956" y1="4.46042" x2="19.3179" y2="7.48597" gradientUnits="userSpaceOnUse">
<stop stop-color="#5D58F7"/>
<stop offset="1" stop-color="#5D58F7" stop-opacity="0.6"/>
</linearGradient>
<linearGradient id="paint1_linear_1155_1695" x1="6.91135" y1="19.9935" x2="11.526" y2="24.9064" gradientUnits="userSpaceOnUse">
<stop stop-color="#5D58F7"/>
<stop offset="1" stop-color="#5D58F7" stop-opacity="0.6"/>
</linearGradient>
</defs>
</svg>
