<svg width="142" height="21" viewBox="0 0 142 21" fill="none" xmlns="http://www.w3.org/2000/svg">
<path d="M4.048 11.088C3.41867 11.088 2.85867 10.9493 2.368 10.672C1.888 10.3947 1.50933 10.0107 1.232 9.52C0.965333 9.02933 0.832 8.47467 0.832 7.856C0.832 7.23733 0.965333 6.68267 1.232 6.192C1.50933 5.70133 1.888 5.31733 2.368 5.04C2.85867 4.752 3.41867 4.608 4.048 4.608C4.66667 4.608 5.216 4.752 5.696 5.04C6.176 5.31733 6.54933 5.70133 6.816 6.192C7.09333 6.68267 7.232 7.23733 7.232 7.856C7.232 8.47467 7.09333 9.02933 6.816 9.52C6.54933 10.0107 6.176 10.3947 5.696 10.672C5.216 10.9493 4.66667 11.088 4.048 11.088ZM4.048 10.512C4.816 10.512 5.43467 10.2667 5.904 9.776C6.37333 9.27467 6.608 8.63467 6.608 7.856C6.608 7.07733 6.37333 6.44267 5.904 5.952C5.43467 5.45067 4.816 5.2 4.048 5.2C3.25867 5.2 2.62933 5.45067 2.16 5.952C1.69067 6.44267 1.456 7.07733 1.456 7.856C1.456 8.63467 1.69067 9.27467 2.16 9.776C2.62933 10.2667 3.25867 10.512 4.048 10.512ZM2.768 9.552V6.112H4.288C4.65067 6.112 4.93333 6.208 5.136 6.4C5.34933 6.58133 5.456 6.83733 5.456 7.168C5.456 7.424 5.38133 7.64267 5.232 7.824C5.09333 7.99467 4.90133 8.112 4.656 8.176L5.584 9.536L4.688 9.552L3.856 8.208H3.52V9.552H2.768ZM3.52 7.6H4.224C4.36267 7.6 4.47467 7.568 4.56 7.504C4.656 7.44 4.704 7.33333 4.704 7.184C4.704 7.04533 4.656 6.944 4.56 6.88C4.47467 6.816 4.36267 6.784 4.224 6.784H3.52V7.6ZM16.7289 16.192C15.9075 16.192 15.1929 16.0427 14.5849 15.744C13.9769 15.4453 13.5075 15.0293 13.1769 14.496C12.8462 13.9627 12.6809 13.344 12.6809 12.64H14.0889C14.0889 13.0773 14.1902 13.4827 14.3929 13.856C14.5955 14.2187 14.8889 14.512 15.2729 14.736C15.6675 14.9493 16.1529 15.056 16.7289 15.056C17.4862 15.056 18.0729 14.8747 18.4889 14.512C18.9049 14.1493 19.1129 13.696 19.1129 13.152C19.1129 12.704 19.0169 12.3467 18.8249 12.08C18.6329 11.8027 18.3715 11.5787 18.0409 11.408C17.7209 11.2373 17.3475 11.088 16.9209 10.96C16.5049 10.832 16.0675 10.688 15.6089 10.528C14.7449 10.2293 14.1049 9.86133 13.6889 9.424C13.2729 8.976 13.0649 8.39467 13.0649 7.68C13.0542 7.08267 13.1929 6.55467 13.4809 6.096C13.7689 5.62667 14.1742 5.264 14.6969 5.008C15.2302 4.74133 15.8595 4.608 16.5849 4.608C17.2995 4.608 17.9182 4.74133 18.4409 5.008C18.9742 5.27467 19.3849 5.64267 19.6729 6.112C19.9715 6.58133 20.1262 7.11467 20.1369 7.712H18.7289C18.7289 7.40267 18.6489 7.09867 18.4889 6.8C18.3289 6.49067 18.0835 6.24 17.7529 6.048C17.4329 5.856 17.0275 5.76 16.5369 5.76C15.9289 5.74933 15.4275 5.904 15.0329 6.224C14.6489 6.544 14.4569 6.98667 14.4569 7.552C14.4569 8.032 14.5902 8.4 14.8569 8.656C15.1342 8.912 15.5182 9.12533 16.0089 9.296C16.4995 9.456 17.0649 9.64267 17.7049 9.856C18.2382 10.048 18.7182 10.272 19.1449 10.528C19.5715 10.784 19.9022 11.1147 20.1369 11.52C20.3822 11.9253 20.5049 12.4427 20.5049 13.072C20.5049 13.6053 20.3662 14.112 20.0889 14.592C19.8115 15.0613 19.3902 15.4453 18.8249 15.744C18.2702 16.0427 17.5715 16.192 16.7289 16.192ZM22.1709 19.52V8.064H23.3869L23.5149 9.376C23.7709 8.992 24.1335 8.64533 24.6029 8.336C25.0829 8.02667 25.6909 7.872 26.4269 7.872C27.2162 7.872 27.9042 8.05333 28.4909 8.416C29.0775 8.77867 29.5309 9.27467 29.8509 9.904C30.1815 10.5333 30.3469 11.248 30.3469 12.048C30.3469 12.848 30.1815 13.5627 29.8509 14.192C29.5309 14.8107 29.0722 15.3013 28.4749 15.664C27.8882 16.016 27.2002 16.192 26.4109 16.192C25.7602 16.192 25.1789 16.0587 24.6669 15.792C24.1655 15.5253 23.7815 15.152 23.5149 14.672V19.52H22.1709ZM26.2669 15.024C26.8002 15.024 27.2695 14.9013 27.6749 14.656C28.0802 14.4 28.4002 14.048 28.6349 13.6C28.8695 13.152 28.9869 12.6293 28.9869 12.032C28.9869 11.4347 28.8695 10.912 28.6349 10.464C28.4002 10.016 28.0802 9.66933 27.6749 9.424C27.2695 9.168 26.8002 9.04 26.2669 9.04C25.7335 9.04 25.2642 9.168 24.8589 9.424C24.4535 9.66933 24.1335 10.016 23.8989 10.464C23.6642 10.912 23.5469 11.4347 23.5469 12.032C23.5469 12.6293 23.6642 13.152 23.8989 13.6C24.1335 14.048 24.4535 14.4 24.8589 14.656C25.2642 14.9013 25.7335 15.024 26.2669 15.024ZM34.6978 16.192C34.0364 16.192 33.4871 16.08 33.0498 15.856C32.6124 15.632 32.2871 15.3333 32.0738 14.96C31.8604 14.5867 31.7538 14.1813 31.7538 13.744C31.7538 12.9333 32.0631 12.3093 32.6818 11.872C33.3004 11.4347 34.1431 11.216 35.2098 11.216H37.3538V11.12C37.3538 10.4267 37.1724 9.904 36.8098 9.552C36.4471 9.18933 35.9618 9.008 35.3538 9.008C34.8311 9.008 34.3778 9.14133 33.9938 9.408C33.6204 9.664 33.3858 10.0427 33.2898 10.544H31.9138C31.9671 9.968 32.1591 9.48267 32.4898 9.088C32.8311 8.69333 33.2524 8.39467 33.7538 8.192C34.2551 7.97867 34.7884 7.872 35.3538 7.872C36.4631 7.872 37.2951 8.17067 37.8498 8.768C38.4151 9.35467 38.6978 10.1387 38.6978 11.12V16H37.4978L37.4178 14.576C37.1938 15.024 36.8631 15.408 36.4258 15.728C35.9991 16.0373 35.4231 16.192 34.6978 16.192ZM34.9058 15.056C35.4178 15.056 35.8551 14.9227 36.2178 14.656C36.5911 14.3893 36.8738 14.0427 37.0658 13.616C37.2578 13.1893 37.3538 12.7413 37.3538 12.272V12.256H35.3218C34.5324 12.256 33.9724 12.3947 33.6418 12.672C33.3218 12.9387 33.1618 13.2747 33.1618 13.68C33.1618 14.096 33.3111 14.432 33.6098 14.688C33.9191 14.9333 34.3511 15.056 34.9058 15.056ZM44.202 16.192C43.4447 16.192 42.762 16.0213 42.154 15.68C41.5567 15.328 41.082 14.8427 40.73 14.224C40.3887 13.5947 40.218 12.864 40.218 12.032C40.218 11.2 40.3887 10.4747 40.73 9.856C41.082 9.22667 41.5567 8.74133 42.154 8.4C42.762 8.048 43.4447 7.872 44.202 7.872C45.1407 7.872 45.93 8.11733 46.57 8.608C47.2207 9.09867 47.6313 9.75467 47.802 10.576H46.426C46.3193 10.0853 46.058 9.70667 45.642 9.44C45.226 9.16267 44.7407 9.024 44.186 9.024C43.738 9.024 43.3167 9.136 42.922 9.36C42.5273 9.584 42.2073 9.92 41.962 10.368C41.7167 10.816 41.594 11.3707 41.594 12.032C41.594 12.6933 41.7167 13.248 41.962 13.696C42.2073 14.144 42.5273 14.4853 42.922 14.72C43.3167 14.944 43.738 15.056 44.186 15.056C44.7407 15.056 45.226 14.9227 45.642 14.656C46.058 14.3787 46.3193 13.9893 46.426 13.488H47.802C47.642 14.288 47.2367 14.9387 46.586 15.44C45.9353 15.9413 45.1407 16.192 44.202 16.192ZM53.087 16.192C52.3297 16.192 51.6577 16.0213 51.071 15.68C50.4843 15.328 50.0203 14.8427 49.679 14.224C49.3483 13.6053 49.183 12.8747 49.183 12.032C49.183 11.2 49.3483 10.4747 49.679 9.856C50.0097 9.22667 50.4683 8.74133 51.055 8.4C51.6523 8.048 52.3403 7.872 53.119 7.872C53.887 7.872 54.5483 8.048 55.103 8.4C55.6683 8.74133 56.1003 9.19467 56.399 9.76C56.6977 10.3253 56.847 10.9333 56.847 11.584C56.847 11.7013 56.8417 11.8187 56.831 11.936C56.831 12.0533 56.831 12.1867 56.831 12.336H50.511C50.543 12.944 50.6817 13.4507 50.927 13.856C51.183 14.2507 51.4977 14.5493 51.871 14.752C52.255 14.9547 52.6603 15.056 53.087 15.056C53.6417 15.056 54.1057 14.928 54.479 14.672C54.8523 14.416 55.1243 14.0693 55.295 13.632H56.623C56.4097 14.368 55.999 14.9813 55.391 15.472C54.7937 15.952 54.0257 16.192 53.087 16.192ZM53.087 9.008C52.447 9.008 51.8763 9.20533 51.375 9.6C50.8843 9.984 50.6017 10.5493 50.527 11.296H55.519C55.487 10.5813 55.2417 10.0213 54.783 9.616C54.3243 9.21067 53.759 9.008 53.087 9.008ZM67.4388 16.192C66.3934 16.192 65.4761 15.952 64.6868 15.472C63.8974 14.9813 63.2841 14.304 62.8468 13.44C62.4094 12.5653 62.1908 11.5573 62.1908 10.416C62.1908 9.27467 62.4094 8.26667 62.8468 7.392C63.2948 6.51733 63.9241 5.83467 64.7348 5.344C65.5561 4.85333 66.5214 4.608 67.6308 4.608C68.8894 4.608 69.9348 4.912 70.7668 5.52C71.6094 6.128 72.1534 6.96533 72.3988 8.032H70.8468C70.6974 7.36 70.3401 6.82667 69.7748 6.432C69.2201 6.03733 68.5054 5.84 67.6308 5.84C66.8094 5.84 66.0948 6.02667 65.4868 6.4C64.8788 6.76267 64.4041 7.28533 64.0628 7.968C63.7321 8.65067 63.5668 9.46667 63.5668 10.416C63.5668 11.3653 63.7321 12.1813 64.0628 12.864C64.3934 13.5467 64.8521 14.0747 65.4388 14.448C66.0254 14.8107 66.7081 14.992 67.4868 14.992C68.6814 14.992 69.5828 14.6453 70.1908 13.952C70.7988 13.248 71.1454 12.288 71.2308 11.072H67.9988V10.016H72.6068V16H71.3748L71.2628 14.16C70.8574 14.8107 70.3614 15.312 69.7748 15.664C69.1881 16.016 68.4094 16.192 67.4388 16.192ZM77.3881 16.192C76.4495 16.192 75.7028 15.9093 75.1481 15.344C74.5935 14.768 74.3161 13.888 74.3161 12.704V8.064H75.6601V12.56C75.6601 14.2133 76.3375 15.04 77.6921 15.04C78.3855 15.04 78.9561 14.7947 79.4041 14.304C79.8628 13.8027 80.0921 13.0933 80.0921 12.176V8.064H81.4361V16H80.2201L80.1241 14.576C79.8788 15.0773 79.5108 15.472 79.0201 15.76C78.5401 16.048 77.9961 16.192 77.3881 16.192ZM83.4884 16V8.064H84.7044L84.8164 9.584C85.0617 9.06133 85.435 8.64533 85.9364 8.336C86.4377 8.02667 87.0564 7.872 87.7924 7.872V9.28H87.4244C86.955 9.28 86.523 9.36533 86.1284 9.536C85.7337 9.696 85.419 9.97333 85.1844 10.368C84.9497 10.7627 84.8324 11.3067 84.8324 12V16H83.4884ZM92.0369 16.192C91.0982 16.192 90.3515 15.9093 89.7969 15.344C89.2422 14.768 88.9649 13.888 88.9649 12.704V8.064H90.3089V12.56C90.3089 14.2133 90.9862 15.04 92.3409 15.04C93.0342 15.04 93.6049 14.7947 94.0529 14.304C94.5115 13.8027 94.7409 13.0933 94.7409 12.176V8.064H96.0849V16H94.8689L94.7729 14.576C94.5275 15.0773 94.1595 15.472 93.6689 15.76C93.1889 16.048 92.6449 16.192 92.0369 16.192ZM97.0651 17.904L97.9931 14.368H99.3851L97.9931 17.904H97.0651ZM104.799 16V15.056C105.557 14.4587 106.271 13.856 106.943 13.248C107.626 12.6293 108.229 12.0213 108.751 11.424C109.285 10.8267 109.701 10.24 109.999 9.664C110.309 9.088 110.463 8.53333 110.463 8C110.463 7.60533 110.394 7.23733 110.255 6.896C110.127 6.55467 109.914 6.28267 109.615 6.08C109.317 5.86667 108.911 5.76 108.399 5.76C107.909 5.76 107.498 5.872 107.167 6.096C106.837 6.30933 106.586 6.59733 106.415 6.96C106.255 7.32267 106.175 7.712 106.175 8.128H104.879C104.879 7.392 105.034 6.76267 105.343 6.24C105.653 5.70667 106.074 5.30133 106.607 5.024C107.141 4.74667 107.743 4.608 108.415 4.608C109.407 4.608 110.218 4.89067 110.847 5.456C111.487 6.01067 111.807 6.84267 111.807 7.952C111.807 8.61333 111.642 9.26933 111.311 9.92C110.981 10.56 110.559 11.184 110.047 11.792C109.535 12.3893 108.986 12.9493 108.399 13.472C107.823 13.9947 107.285 14.464 106.783 14.88H112.191V16H104.799ZM118.183 16.192C117.191 16.192 116.333 15.952 115.607 15.472C114.893 14.9813 114.343 14.304 113.959 13.44C113.575 12.5653 113.383 11.552 113.383 10.4C113.383 9.248 113.575 8.24 113.959 7.376C114.343 6.50133 114.893 5.824 115.607 5.344C116.333 4.85333 117.191 4.608 118.183 4.608C119.175 4.608 120.029 4.85333 120.743 5.344C121.458 5.824 122.007 6.50133 122.391 7.376C122.775 8.24 122.967 9.248 122.967 10.4C122.967 11.552 122.775 12.5653 122.391 13.44C122.007 14.304 121.458 14.9813 120.743 15.472C120.029 15.952 119.175 16.192 118.183 16.192ZM118.183 15.008C118.834 15.008 119.415 14.8267 119.927 14.464C120.45 14.0907 120.855 13.5627 121.143 12.88C121.442 12.1867 121.591 11.36 121.591 10.4C121.591 9.44 121.442 8.61867 121.143 7.936C120.855 7.25333 120.45 6.73067 119.927 6.368C119.415 5.99467 118.834 5.808 118.183 5.808C117.522 5.808 116.935 5.99467 116.423 6.368C115.911 6.73067 115.506 7.25333 115.207 7.936C114.909 8.61867 114.759 9.44 114.759 10.4C114.759 11.36 114.909 12.1867 115.207 12.88C115.506 13.5627 115.911 14.0907 116.423 14.464C116.935 14.8267 117.522 15.008 118.183 15.008ZM124.417 16V15.056C125.174 14.4587 125.889 13.856 126.561 13.248C127.243 12.6293 127.846 12.0213 128.369 11.424C128.902 10.8267 129.318 10.24 129.617 9.664C129.926 9.088 130.081 8.53333 130.081 8C130.081 7.60533 130.011 7.23733 129.873 6.896C129.745 6.55467 129.531 6.28267 129.233 6.08C128.934 5.86667 128.529 5.76 128.017 5.76C127.526 5.76 127.115 5.872 126.785 6.096C126.454 6.30933 126.203 6.59733 126.033 6.96C125.873 7.32267 125.793 7.712 125.793 8.128H124.497C124.497 7.392 124.651 6.76267 124.961 6.24C125.27 5.70667 125.691 5.30133 126.225 5.024C126.758 4.74667 127.361 4.608 128.033 4.608C129.025 4.608 129.835 4.89067 130.465 5.456C131.105 6.01067 131.425 6.84267 131.425 7.952C131.425 8.61333 131.259 9.26933 130.929 9.92C130.598 10.56 130.177 11.184 129.665 11.792C129.153 12.3893 128.603 12.9493 128.017 13.472C127.441 13.9947 126.902 14.464 126.401 14.88H131.809V16H124.417ZM133.413 16V15.056C134.17 14.4587 134.885 13.856 135.557 13.248C136.24 12.6293 136.842 12.0213 137.365 11.424C137.898 10.8267 138.314 10.24 138.613 9.664C138.922 9.088 139.077 8.53333 139.077 8C139.077 7.60533 139.008 7.23733 138.869 6.896C138.741 6.55467 138.528 6.28267 138.229 6.08C137.93 5.86667 137.525 5.76 137.013 5.76C136.522 5.76 136.112 5.872 135.781 6.096C135.45 6.30933 135.2 6.59733 135.029 6.96C134.869 7.32267 134.789 7.712 134.789 8.128H133.493C133.493 7.392 133.648 6.76267 133.957 6.24C134.266 5.70667 134.688 5.30133 135.221 5.024C135.754 4.74667 136.357 4.608 137.029 4.608C138.021 4.608 138.832 4.89067 139.461 5.456C140.101 6.01067 140.421 6.84267 140.421 7.952C140.421 8.61333 140.256 9.26933 139.925 9.92C139.594 10.56 139.173 11.184 138.661 11.792C138.149 12.3893 137.6 12.9493 137.013 13.472C136.437 13.9947 135.898 14.464 135.397 14.88H140.805V16H133.413Z" fill="#5D58F7"/>
</svg>
