<svg width="24" height="24" viewBox="0 0 24 24" fill="none" xmlns="http://www.w3.org/2000/svg">
<circle cx="12" cy="12" r="11.5" stroke="#5D58F7"/>
<path d="M12.0003 6.0971C13.9228 6.0971 14.1505 6.10444 14.9097 6.13908C15.6117 6.17109 15.9929 6.28838 16.2466 6.38699C16.5827 6.5176 16.8226 6.67362 17.0745 6.92555C17.3265 7.17752 17.4825 7.41736 17.6131 7.75344C17.7117 8.00715 17.829 8.38838 17.861 9.09037C17.8957 9.84958 17.903 10.0773 17.903 11.9998C17.903 13.9223 17.8957 14.15 17.861 14.9092C17.829 15.6112 17.7117 15.9924 17.6131 16.2461C17.4825 16.5822 17.3265 16.822 17.0745 17.074C16.8226 17.3259 16.5827 17.482 16.2466 17.6126C15.9929 17.7112 15.6117 17.8285 14.9097 17.8605C14.1506 17.8951 13.9229 17.9025 12.0003 17.9025C10.0777 17.9025 9.85 17.8951 9.09087 17.8605C8.38888 17.8285 8.00765 17.7112 7.75394 17.6126C7.41786 17.482 7.17801 17.3259 6.92608 17.074C6.67414 16.822 6.51809 16.5822 6.38748 16.2461C6.28888 15.9924 6.17158 15.6112 6.13957 14.9092C6.10493 14.15 6.09759 13.9223 6.09759 11.9998C6.09759 10.0773 6.10493 9.84958 6.13957 9.09037C6.17158 8.38838 6.28888 8.00715 6.38748 7.75344C6.51809 7.41736 6.67411 7.17752 6.92608 6.92558C7.17801 6.67362 7.41786 6.5176 7.75394 6.38699C8.00765 6.28838 8.38888 6.17109 9.09087 6.13908C9.85009 6.10444 10.0778 6.0971 12.0003 6.0971ZM12.0003 4.7998C10.0449 4.7998 9.7997 4.80809 9.03174 4.84313C8.26539 4.87809 7.74199 4.99981 7.28402 5.17778C6.81056 5.36178 6.40903 5.60797 6.00873 6.00824C5.60846 6.40854 5.36227 6.81006 5.1783 7.28352C5.0003 7.74149 4.87857 8.26489 4.84362 9.03124C4.80858 9.79919 4.80029 10.0444 4.80029 11.9998C4.80029 13.9552 4.80858 14.2004 4.84362 14.9683C4.87857 15.7347 5.0003 16.2581 5.1783 16.716C5.36227 17.1895 5.60846 17.591 6.00873 17.9913C6.40903 18.3916 6.81056 18.6378 7.28402 18.8218C7.74199 18.9998 8.26539 19.1215 9.03174 19.1564C9.7997 19.1915 10.0449 19.1998 12.0003 19.1998C13.9557 19.1998 14.2009 19.1915 14.9688 19.1564C15.7352 19.1215 16.2586 18.9998 16.7166 18.8218C17.19 18.6378 17.5916 18.3916 17.9919 17.9913C18.3921 17.591 18.6383 17.1895 18.8223 16.716C19.0003 16.2581 19.122 15.7347 19.157 14.9683C19.192 14.2004 19.2003 13.9552 19.2003 11.9998C19.2003 10.0444 19.192 9.79919 19.157 9.03124C19.122 8.26489 19.0003 7.74149 18.8223 7.28352C18.6383 6.81006 18.3921 6.40854 17.9919 6.00824C17.5916 5.60797 17.19 5.36178 16.7166 5.17778C16.2586 4.99981 15.7352 4.87809 14.9688 4.84313C14.2009 4.80809 13.9557 4.7998 12.0003 4.7998Z" fill="#5D58F7"/>
<path d="M12.0035 8.30591C9.96147 8.30591 8.30615 9.96123 8.30615 12.0032C8.30615 14.0452 9.96147 15.7005 12.0035 15.7005C14.0454 15.7005 15.7007 14.0452 15.7007 12.0032C15.7007 9.96123 14.0454 8.30591 12.0035 8.30591ZM12.0035 14.4032C10.678 14.4032 9.60345 13.3287 9.60345 12.0032C9.60345 10.6777 10.678 9.6032 12.0035 9.6032C13.3289 9.6032 14.4034 10.6777 14.4034 12.0032C14.4034 13.3287 13.3289 14.4032 12.0035 14.4032Z" fill="#5D58F7"/>
<path d="M16.7104 8.15747C16.7104 8.63462 16.3236 9.02146 15.8464 9.02146C15.3693 9.02146 14.9824 8.63462 14.9824 8.15747C14.9824 7.68029 15.3693 7.29346 15.8464 7.29346C16.3236 7.29346 16.7104 7.68029 16.7104 8.15747Z" fill="#5D58F7"/>
</svg>
