<svg width="36" height="37" viewBox="0 0 36 37" fill="none" xmlns="http://www.w3.org/2000/svg">
<g clip-path="url(#clip0_775_9779)">
<path d="M21 1.85645C24.5804 1.85645 28.0142 3.27876 30.5459 5.8105C33.0777 8.34224 34.5 11.776 34.5 15.3564" stroke="#FF6272" stroke-width="2" stroke-miterlimit="10" stroke-linecap="round" stroke-linejoin="round"/>
<path d="M21 7.85645C22.9891 7.85645 24.8968 8.64662 26.3033 10.0531C27.7098 11.4597 28.5 13.3673 28.5 15.3564" stroke="#FF6272" stroke-width="2" stroke-miterlimit="10" stroke-linecap="round" stroke-linejoin="round"/>
<path d="M23.281 22.0614L20.7137 25.2707C16.7375 22.9338 13.4239 19.6204 11.0867 15.6444L14.296 13.0772C14.672 12.776 14.9378 12.3588 15.0517 11.8907C15.1657 11.4226 15.1215 10.93 14.926 10.4897L12.0002 3.90242C11.7905 3.42983 11.4198 3.0471 10.9541 2.8225C10.4884 2.59791 9.95808 2.54604 9.45771 2.67617L3.88971 4.12067C3.37006 4.25643 2.91828 4.57811 2.61998 5.02474C2.32167 5.47136 2.19758 6.0119 2.27121 6.54392C3.24849 13.5029 6.46475 19.9546 11.4338 24.9236C16.4028 29.8926 22.8545 33.1089 29.8135 34.0862C30.3454 34.1596 30.8857 34.0354 31.3322 33.7371C31.7786 33.4388 32.1002 32.9872 32.236 32.4677L33.6805 26.8989C33.8103 26.3986 33.7584 25.8685 33.534 25.4029C33.3096 24.9373 32.9272 24.5665 32.455 24.3564L25.8685 21.4314C25.4282 21.2358 24.9355 21.1915 24.4673 21.3055C23.9992 21.4194 23.582 21.6853 23.281 22.0614V22.0614Z" stroke="#5D58F7" stroke-width="2" stroke-miterlimit="10" stroke-linecap="round" stroke-linejoin="round"/>
</g>
<defs>
<clipPath id="clip0_775_9779">
<rect width="36" height="36" fill="white" transform="translate(0 0.356445)"/>
</clipPath>
</defs>
</svg>
