<svg width="71" height="41" viewBox="0 0 71 41" fill="none" xmlns="http://www.w3.org/2000/svg">
<g clip-path="url(#clip0_876_9228)">
<rect x="25.5835" y="0.587402" width="20" height="20" rx="2" fill="#5D58F7"/>
<path d="M39.3732 3.9209H33.269L37.5282 8.1801L40.0803 5.62801C40.7103 4.99804 40.2641 3.9209 39.3732 3.9209Z" fill="url(#paint0_linear_876_9228)"/>
<path d="M31.5384 17.2544L37.7134 17.2544L33.4542 12.81L30.8164 15.5625C30.207 16.1983 30.6577 17.2544 31.5384 17.2544Z" fill="url(#paint1_linear_876_9228)"/>
<path d="M29.8433 9.04199C29.4786 8.66138 29.4719 8.06297 29.8282 7.67436L33.2688 3.9209L41.4505 12.1026C41.841 12.4931 41.841 13.1263 41.4505 13.5168L37.7132 17.2541L29.8433 9.04199Z" fill="white"/>
</g>
<path d="M3.55984 37.4146C2.93792 37.4146 2.37563 37.3117 1.87297 37.1059C1.37884 36.9002 0.986941 36.6039 0.697276 36.217C0.407611 35.8302 0.25852 35.3734 0.25 34.8467H2.1669C2.19246 35.2006 2.32025 35.4804 2.55028 35.6862C2.78882 35.8919 3.11257 35.9948 3.52151 35.9948C3.93896 35.9948 4.26696 35.9002 4.50551 35.7109C4.74406 35.5133 4.86333 35.2582 4.86333 34.9454C4.86333 34.6903 4.7824 34.4804 4.62053 34.3158C4.45865 34.1512 4.25419 34.0236 4.00712 33.9331C3.76857 33.8343 3.43631 33.7273 3.01033 33.6121C2.431 33.4475 1.95817 33.287 1.59183 33.1306C1.23401 32.966 0.923044 32.7232 0.658938 32.4022C0.403352 32.073 0.275559 31.6368 0.275559 31.0936C0.275559 30.5833 0.407612 30.1388 0.671717 29.7602C0.935823 29.3816 1.30642 29.0936 1.78352 28.896C2.26061 28.6903 2.80586 28.5874 3.41927 28.5874C4.33938 28.5874 5.08484 28.8055 5.65565 29.2417C6.23498 29.6697 6.55446 30.2705 6.6141 31.0442H4.64608C4.62905 30.7479 4.49699 30.5051 4.24993 30.3158C4.01138 30.1183 3.6919 30.0195 3.29148 30.0195C2.94218 30.0195 2.66103 30.1059 2.44804 30.2788C2.24357 30.4516 2.14134 30.7026 2.14134 31.0318C2.14134 31.2623 2.21801 31.4557 2.37137 31.6121C2.53324 31.7602 2.72919 31.8837 2.95921 31.9825C3.19776 32.073 3.53002 32.18 3.956 32.3035C4.53533 32.4681 5.00816 32.6327 5.37451 32.7973C5.74085 32.9619 6.05607 33.2088 6.32017 33.538C6.58428 33.8672 6.71633 34.2993 6.71633 34.8343C6.71633 35.2952 6.5928 35.7232 6.34573 36.1183C6.09867 36.5133 5.73659 36.8302 5.25949 37.0689C4.7824 37.2993 4.21585 37.4146 3.55984 37.4146Z" fill="black"/>
<path d="M9.92873 31.4763C10.1588 31.1635 10.474 30.9043 10.8744 30.6985C11.2833 30.4845 11.7477 30.3775 12.2673 30.3775C12.8722 30.3775 13.4175 30.5216 13.9031 30.8096C14.3972 31.0977 14.7849 31.5092 15.066 32.0442C15.3557 32.5709 15.5005 33.1841 15.5005 33.8837C15.5005 34.5833 15.3557 35.2047 15.066 35.7479C14.7849 36.2829 14.3972 36.6985 13.9031 36.9948C13.4175 37.2911 12.8722 37.4393 12.2673 37.4393C11.7477 37.4393 11.2876 37.3364 10.8872 37.1306C10.4953 36.9249 10.1758 36.6656 9.92873 36.3528V40.5874H8.13963V30.4886H9.92873V31.4763ZM13.6731 33.8837C13.6731 33.4722 13.5836 33.1183 13.4047 32.822C13.2343 32.5174 13.0043 32.287 12.7146 32.1306C12.4335 31.9742 12.1268 31.896 11.7945 31.896C11.4708 31.896 11.1641 31.9783 10.8744 32.143C10.5933 32.2993 10.3632 32.5298 10.1843 32.8343C10.0139 33.1388 9.92873 33.4969 9.92873 33.9084C9.92873 34.3199 10.0139 34.6779 10.1843 34.9825C10.3632 35.287 10.5933 35.5216 10.8744 35.6862C11.1641 35.8425 11.4708 35.9207 11.7945 35.9207C12.1268 35.9207 12.4335 35.8384 12.7146 35.6738C13.0043 35.5092 13.2343 35.2746 13.4047 34.9701C13.5836 34.6656 13.6731 34.3035 13.6731 33.8837Z" fill="black"/>
<path d="M16.2128 33.8837C16.2128 33.1923 16.3533 32.5792 16.6345 32.0442C16.9241 31.5092 17.3118 31.0977 17.7974 30.8096C18.2915 30.5216 18.841 30.3775 19.4459 30.3775C19.9741 30.3775 20.4342 30.4804 20.8261 30.6862C21.2265 30.8919 21.546 31.1512 21.7845 31.4639V30.4886H23.5864V37.3281H21.7845V36.3281C21.5545 36.6491 21.235 36.9166 20.8261 37.1306C20.4257 37.3364 19.9614 37.4393 19.4331 37.4393C18.8368 37.4393 18.2915 37.2911 17.7974 36.9948C17.3118 36.6985 16.9241 36.2829 16.6345 35.7479C16.3533 35.2047 16.2128 34.5833 16.2128 33.8837ZM21.7845 33.9084C21.7845 33.4886 21.6994 33.1306 21.529 32.8343C21.3586 32.5298 21.1285 32.2993 20.8389 32.143C20.5492 31.9783 20.2382 31.896 19.906 31.896C19.5737 31.896 19.267 31.9742 18.9859 32.1306C18.7047 32.287 18.4747 32.5174 18.2958 32.822C18.1254 33.1183 18.0402 33.4722 18.0402 33.8837C18.0402 34.2952 18.1254 34.6574 18.2958 34.9701C18.4747 35.2746 18.7047 35.5092 18.9859 35.6738C19.2755 35.8384 19.5822 35.9207 19.906 35.9207C20.2382 35.9207 20.5492 35.8425 20.8389 35.6862C21.1285 35.5216 21.3586 35.2911 21.529 34.9948C21.6994 34.6903 21.7845 34.3281 21.7845 33.9084Z" fill="black"/>
<path d="M24.7459 33.9084C24.7459 33.2006 24.895 32.5833 25.1932 32.0565C25.4914 31.5216 25.9046 31.11 26.4328 30.822C26.961 30.5257 27.5659 30.3775 28.2475 30.3775C29.125 30.3775 29.8492 30.5915 30.42 31.0195C30.9993 31.4393 31.3869 32.0318 31.5829 32.7973H29.6532C29.551 32.501 29.3763 32.2705 29.1293 32.1059C28.8907 31.9331 28.5925 31.8467 28.2347 31.8467C27.7235 31.8467 27.3189 32.0277 27.0207 32.3899C26.7225 32.7438 26.5734 33.25 26.5734 33.9084C26.5734 34.5586 26.7225 35.0648 27.0207 35.4269C27.3189 35.7808 27.7235 35.9578 28.2347 35.9578C28.9589 35.9578 29.4317 35.645 29.6532 35.0195H31.5829C31.3869 35.7602 30.9993 36.3487 30.42 36.7849C29.8406 37.2211 29.1165 37.4393 28.2475 37.4393C27.5659 37.4393 26.961 37.2952 26.4328 37.0072C25.9046 36.7109 25.4914 36.2993 25.1932 35.7726C24.895 35.2376 24.7459 34.6162 24.7459 33.9084Z" fill="black"/>
<path d="M39.3471 33.7602C39.3471 34.0072 39.3301 34.2294 39.296 34.4269H34.1204C34.163 34.9207 34.3419 35.3076 34.6571 35.5874C34.9723 35.8672 35.36 36.0072 35.82 36.0072C36.4846 36.0072 36.9574 35.7314 37.2385 35.18H39.1682C38.9637 35.8384 38.5718 36.3816 37.9925 36.8096C37.4132 37.2294 36.7018 37.4393 35.8584 37.4393C35.1768 37.4393 34.5634 37.2952 34.0181 37.0072C33.4814 36.7109 33.0597 36.2952 32.753 35.7602C32.4548 35.2253 32.3057 34.608 32.3057 33.9084C32.3057 33.2006 32.4548 32.5792 32.753 32.0442C33.0512 31.5092 33.4686 31.0977 34.0054 30.8096C34.5421 30.5216 35.1598 30.3775 35.8584 30.3775C36.5314 30.3775 37.132 30.5174 37.6602 30.7973C38.197 31.0771 38.6102 31.4763 38.8998 31.9948C39.198 32.5051 39.3471 33.0936 39.3471 33.7602ZM37.4941 33.2664C37.4856 32.822 37.3195 32.4681 36.9957 32.2047C36.672 31.9331 36.2758 31.7973 35.8072 31.7973C35.3642 31.7973 34.9894 31.929 34.6827 32.1923C34.3845 32.4475 34.2013 32.8055 34.1332 33.2664H37.4941Z" fill="black"/>
<path d="M46.736 31.3035C46.5315 30.9413 46.2503 30.6656 45.8925 30.4763C45.5347 30.287 45.1172 30.1923 44.6401 30.1923C44.1119 30.1923 43.6434 30.3076 43.2344 30.538C42.8255 30.7685 42.506 31.0977 42.276 31.5257C42.0459 31.9537 41.9309 32.4475 41.9309 33.0072C41.9309 33.5833 42.0459 34.0853 42.276 34.5133C42.5145 34.9413 42.8425 35.2705 43.26 35.501C43.6774 35.7314 44.1631 35.8467 44.7168 35.8467C45.3984 35.8467 45.9564 35.6738 46.3909 35.3281C46.8254 34.9742 47.1108 34.4845 47.2471 33.859H44.1801V32.538H49.0107V34.0442C48.8914 34.645 48.6358 35.2006 48.2439 35.7109C47.852 36.2211 47.3451 36.6327 46.7232 36.9454C46.1098 37.25 45.4197 37.4022 44.6529 37.4022C43.7925 37.4022 43.0129 37.217 42.3143 36.8467C41.6242 36.4681 41.079 35.9454 40.6786 35.2788C40.2867 34.6121 40.0907 33.8549 40.0907 33.0072C40.0907 32.1594 40.2867 31.4022 40.6786 30.7356C41.079 30.0607 41.6242 29.538 42.3143 29.1676C43.0129 28.789 43.7882 28.5997 44.6401 28.5997C45.6455 28.5997 46.5187 28.8384 47.2599 29.3158C48.0011 29.7849 48.5123 30.4475 48.7934 31.3035H46.736Z" fill="black"/>
<path d="M56.8901 30.4886V37.3281H55.0882V36.4639C54.8582 36.7602 54.5558 36.9948 54.1809 37.1676C53.8146 37.3323 53.4141 37.4146 52.9797 37.4146C52.4259 37.4146 51.936 37.3035 51.51 37.0812C51.0841 36.8508 50.7475 36.5174 50.5005 36.0812C50.2619 35.6368 50.1426 35.11 50.1426 34.501V30.4886H51.9317V34.2541C51.9317 34.7973 52.0723 35.217 52.3535 35.5133C52.6346 35.8014 53.018 35.9454 53.5036 35.9454C53.9977 35.9454 54.3854 35.8014 54.6665 35.5133C54.9477 35.217 55.0882 34.7973 55.0882 34.2541V30.4886H56.8901Z" fill="black"/>
<path d="M60.3167 31.5504C60.5467 31.1882 60.8449 30.9043 61.2112 30.6985C61.5861 30.4928 62.0121 30.3899 62.4892 30.3899V32.2047H62.0163C61.454 32.2047 61.0281 32.3323 60.7384 32.5874C60.4572 32.8425 60.3167 33.287 60.3167 33.9207V37.3281H58.5276V30.4886H60.3167V31.5504Z" fill="black"/>
<path d="M70.25 30.4886V37.3281H68.4481V36.4639C68.2181 36.7602 67.9156 36.9948 67.5408 37.1676C67.1744 37.3323 66.774 37.4146 66.3395 37.4146C65.7858 37.4146 65.2959 37.3035 64.8699 37.0812C64.4439 36.8508 64.1074 36.5174 63.8603 36.0812C63.6218 35.6368 63.5025 35.11 63.5025 34.501V30.4886H65.2916V34.2541C65.2916 34.7973 65.4322 35.217 65.7133 35.5133C65.9945 35.8014 66.3779 35.9454 66.8635 35.9454C67.3576 35.9454 67.7453 35.8014 68.0264 35.5133C68.3075 35.217 68.4481 34.7973 68.4481 34.2541V30.4886H70.25Z" fill="black"/>
<defs>
<linearGradient id="paint0_linear_876_9228" x1="41.7874" y1="3.9209" x2="33.269" y2="3.9209" gradientUnits="userSpaceOnUse">
<stop stop-color="white"/>
<stop offset="1" stop-color="white" stop-opacity="0.5"/>
</linearGradient>
<linearGradient id="paint1_linear_876_9228" x1="29.195" y1="17.2544" x2="37.7134" y2="17.2544" gradientUnits="userSpaceOnUse">
<stop stop-color="white"/>
<stop offset="1" stop-color="white" stop-opacity="0.5"/>
</linearGradient>
<clipPath id="clip0_876_9228">
<rect width="20" height="20" fill="white" transform="translate(25.5835 0.587402)"/>
</clipPath>
</defs>
</svg>
