<svg width="25" height="24" viewBox="0 0 25 24" fill="none" xmlns="http://www.w3.org/2000/svg">
<path d="M6.34863 19C6.98863 16.8 8.18863 16 9.56863 16H16.0886C17.4686 16 18.6686 16.8 19.3086 19" stroke="white" stroke-width="1.5" stroke-linecap="round" stroke-linejoin="round"/>
<path d="M12.8286 13C14.4855 13 15.8286 11.6569 15.8286 10C15.8286 8.34315 14.4855 7 12.8286 7C11.1718 7 9.82861 8.34315 9.82861 10C9.82861 11.6569 11.1718 13 12.8286 13Z" stroke="white" stroke-width="1.5" stroke-linecap="round" stroke-linejoin="round"/>
<path d="M12.8286 22C18.3515 22 22.8286 17.5228 22.8286 12C22.8286 6.47715 18.3515 2 12.8286 2C7.30577 2 2.82861 6.47715 2.82861 12C2.82861 17.5228 7.30577 22 12.8286 22Z" stroke="white" stroke-width="1.5" stroke-linecap="round" stroke-linejoin="round"/>
</svg>
