<svg width="24" height="24" viewBox="0 0 24 24" fill="none" xmlns="http://www.w3.org/2000/svg">
<circle cx="12" cy="12" r="11.5" stroke="#5D58F7"/>
<path fill-rule="evenodd" clip-rule="evenodd" d="M8.86485 6.17038C8.86485 6.91743 8.29603 7.52201 7.40649 7.52201C6.55161 7.52201 5.98279 6.91743 6.0004 6.17038C5.98279 5.38702 6.5516 4.80005 7.42353 4.80005C8.29602 4.80005 8.8478 5.38702 8.86485 6.17038ZM6.07192 17.2915V8.58978H8.77627V17.2909H6.07192V17.2915Z" fill="#5D58F7"/>
<path fill-rule="evenodd" clip-rule="evenodd" d="M10.9436 11.3667C10.9436 10.2813 10.9078 9.356 10.8721 8.5908H13.2211L13.3459 9.7829H13.3993C13.7552 9.23113 14.6448 8.39551 16.0861 8.39551C17.8651 8.39551 19.1997 9.57 19.1997 12.1313V17.2925H16.4953V12.4702C16.4953 11.3485 16.1042 10.5839 15.1256 10.5839C14.378 10.5839 13.9335 11.0999 13.7558 11.5977C13.6843 11.776 13.6491 12.0246 13.6491 12.2744V17.2925H10.9447V11.3667H10.9436Z" fill="#5D58F7"/>
</svg>
