<svg width="37" height="44" viewBox="0 0 37 44" fill="none" xmlns="http://www.w3.org/2000/svg">
<g clip-path="url(#clip0_876_9232)">
<path d="M22.0775 14.908L18.7456 12.4323L22.0775 9.97912L25.4093 7.50342L28.7412 9.97912L25.4093 12.4323L22.0775 14.908Z" fill="#D9AC80"/>
<path d="M18.71 12.4094V22.0647L25.3202 17.2258V12.4994L22.0774 14.9076L18.7456 12.4319L18.71 12.4094Z" fill="#A67E4F"/>
<path d="M15.4137 14.908L18.7455 12.4323L15.4137 9.97912L12.0818 7.50342L8.75 9.97912L12.0818 12.4323L15.4137 14.908Z" fill="#D9AC80"/>
<path d="M18.7457 2.55151L22.0776 5.02722L25.4094 7.50292L22.0776 9.97862L18.7457 12.4318L15.4139 9.97862L12.082 7.50292L15.4139 5.02722L18.7457 2.55151Z" fill="#643513"/>
<path d="M15.4137 0.097168L18.7455 2.55036L15.4137 5.02607L12.0818 7.50177L8.75 5.02607L12.0818 2.55036L15.4137 0.097168Z" fill="#D9AC80"/>
<path d="M22.0775 0.0983887L18.7456 2.55159L22.0775 5.02729L25.4093 7.50299L28.7412 5.02729L25.4093 2.55159L22.0775 0.0983887Z" fill="#D9AC80"/>
<path d="M18.7101 12.4764V22.0641L12.082 17.2253V12.4314L15.4139 14.9071L18.7101 12.4764Z" fill="#926E43"/>
<path d="M15.4139 5.02722L12.082 7.50292L15.4139 9.97862L16.4829 10.7663L18.7457 9.10087V2.55151L15.4139 5.02722Z" fill="#8D5122"/>
<path d="M18.7456 2.55151V9.10087L21.0084 10.7663L22.0775 9.97862L25.4093 7.50292L22.0775 5.02722L18.7456 2.55151Z" fill="#77411B"/>
</g>
<path d="M6.238 39.2554C5.27667 39.2554 4.432 39.0454 3.704 38.6254C2.98533 38.1961 2.42067 37.5987 2.01 36.8334C1.60867 36.0681 1.408 35.1861 1.408 34.1874C1.408 33.1887 1.60867 32.3114 2.01 31.5554C2.42067 30.7901 2.98533 30.1927 3.704 29.7634C4.432 29.3341 5.27667 29.1194 6.238 29.1194C7.20867 29.1194 8.05333 29.3341 8.772 29.7634C9.5 30.1927 10.0647 30.7901 10.466 31.5554C10.8673 32.3114 11.068 33.1887 11.068 34.1874C11.068 35.1861 10.8673 36.0681 10.466 36.8334C10.0647 37.5987 9.5 38.1961 8.772 38.6254C8.05333 39.0454 7.20867 39.2554 6.238 39.2554ZM6.238 38.2194C6.95667 38.2194 7.58667 38.0607 8.128 37.7434C8.67867 37.4167 9.10333 36.9547 9.402 36.3574C9.71 35.7507 9.864 35.0274 9.864 34.1874C9.864 33.3474 9.71 32.6287 9.402 32.0314C9.10333 31.4341 8.67867 30.9767 8.128 30.6594C7.58667 30.3327 6.95667 30.1694 6.238 30.1694C5.51933 30.1694 4.88467 30.3327 4.334 30.6594C3.79267 30.9767 3.368 31.4341 3.06 32.0314C2.76133 32.6287 2.612 33.3474 2.612 34.1874C2.612 35.0274 2.76133 35.7507 3.06 36.3574C3.368 36.9547 3.79267 37.4167 4.334 37.7434C4.88467 38.0607 5.51933 38.2194 6.238 38.2194ZM15.2985 39.0874C14.6638 39.0874 14.1645 38.9334 13.8005 38.6254C13.4365 38.3174 13.2545 37.7621 13.2545 36.9594V33.1374H12.0505V32.1434H13.2545L13.4085 30.4774H14.4305V32.1434H16.4745V33.1374H14.4305V36.9594C14.4305 37.3981 14.5192 37.6967 14.6965 37.8554C14.8738 38.0047 15.1865 38.0794 15.6345 38.0794H16.3625V39.0874H15.2985ZM17.8286 39.0874V32.1434H18.8926L18.9906 33.4734C19.2052 33.0161 19.5319 32.6521 19.9706 32.3814C20.4092 32.1107 20.9506 31.9754 21.5946 31.9754V33.2074H21.2726C20.8619 33.2074 20.4839 33.2821 20.1386 33.4314C19.7932 33.5714 19.5179 33.8141 19.3126 34.1594C19.1072 34.5047 19.0046 34.9807 19.0046 35.5874V39.0874H17.8286ZM25.6788 39.2554C25.0254 39.2554 24.4374 39.1061 23.9148 38.8074C23.3921 38.5087 22.9768 38.0887 22.6688 37.5474C22.3701 36.9967 22.2207 36.3527 22.2207 35.6154C22.2207 34.8781 22.3747 34.2387 22.6827 33.6974C22.9907 33.1467 23.4061 32.7221 23.9287 32.4234C24.4608 32.1247 25.0534 31.9754 25.7068 31.9754C26.3601 31.9754 26.9481 32.1247 27.4708 32.4234C27.9934 32.7221 28.4041 33.1467 28.7028 33.6974C29.0108 34.2387 29.1648 34.8781 29.1648 35.6154C29.1648 36.3527 29.0108 36.9967 28.7028 37.5474C28.3948 38.0887 27.9748 38.5087 27.4428 38.8074C26.9201 39.1061 26.3321 39.2554 25.6788 39.2554ZM25.6788 38.2474C26.0801 38.2474 26.4534 38.1494 26.7988 37.9534C27.1441 37.7574 27.4241 37.4634 27.6388 37.0714C27.8534 36.6794 27.9608 36.1941 27.9608 35.6154C27.9608 35.0367 27.8534 34.5514 27.6388 34.1594C27.4334 33.7674 27.1581 33.4734 26.8128 33.2774C26.4674 33.0814 26.0988 32.9834 25.7068 32.9834C25.3054 32.9834 24.9321 33.0814 24.5868 33.2774C24.2414 33.4734 23.9614 33.7674 23.7467 34.1594C23.5321 34.5514 23.4247 35.0367 23.4247 35.6154C23.4247 36.1941 23.5321 36.6794 23.7467 37.0714C23.9614 37.4634 24.2368 37.7574 24.5728 37.9534C24.9181 38.1494 25.2868 38.2474 25.6788 38.2474ZM33.3199 39.2554C32.4892 39.2554 31.7986 39.0454 31.2479 38.6254C30.6972 38.2054 30.3752 37.6361 30.2819 36.9174H31.4859C31.5606 37.2814 31.7519 37.5987 32.0599 37.8694C32.3772 38.1307 32.8019 38.2614 33.3339 38.2614C33.8286 38.2614 34.1926 38.1587 34.4259 37.9534C34.6592 37.7387 34.7759 37.4867 34.7759 37.1974C34.7759 36.7774 34.6219 36.4974 34.3139 36.3574C34.0152 36.2174 33.5906 36.0914 33.0399 35.9794C32.6666 35.9047 32.2932 35.7974 31.9199 35.6574C31.5466 35.5174 31.2339 35.3214 30.9819 35.0694C30.7299 34.8081 30.6039 34.4674 30.6039 34.0474C30.6039 33.4407 30.8279 32.9461 31.2759 32.5634C31.7332 32.1714 32.3492 31.9754 33.1239 31.9754C33.8612 31.9754 34.4632 32.1621 34.9299 32.5354C35.4059 32.8994 35.6812 33.4221 35.7559 34.1034H34.5939C34.5472 33.7487 34.3932 33.4734 34.1319 33.2774C33.8799 33.0721 33.5392 32.9694 33.1099 32.9694C32.6899 32.9694 32.3632 33.0581 32.1299 33.2354C31.9059 33.4127 31.7939 33.6461 31.7939 33.9354C31.7939 34.2154 31.9386 34.4347 32.2279 34.5934C32.5266 34.7521 32.9279 34.8874 33.4319 34.9994C33.8612 35.0927 34.2672 35.2094 34.6499 35.3494C35.0419 35.4801 35.3592 35.6807 35.6019 35.9514C35.8539 36.2127 35.9799 36.5954 35.9799 37.0994C35.9892 37.7247 35.7512 38.2427 35.2659 38.6534C34.7899 39.0547 34.1412 39.2554 33.3199 39.2554Z" fill="black"/>
<defs>
<clipPath id="clip0_876_9232">
<rect width="20" height="22" fill="white" transform="translate(8.75 0.0874023)"/>
</clipPath>
</defs>
</svg>
