<svg width="36" height="33" viewBox="0 0 36 33" fill="none" xmlns="http://www.w3.org/2000/svg">
<g clip-path="url(#clip0_142_2908)">
<path fill-rule="evenodd" clip-rule="evenodd" d="M28.1663 17.9337C28.1663 17.5444 28.4849 17.2288 28.8779 17.2288H31.6594C32.0524 17.2288 32.371 17.5444 32.371 17.9337C32.371 18.323 32.0524 18.6387 31.6594 18.6387H28.8779C28.4849 18.6387 28.1663 18.323 28.1663 17.9337Z" fill="#5D58F7"/>
<path fill-rule="evenodd" clip-rule="evenodd" d="M27.4294 22.432C27.4294 22.0427 27.748 21.7271 28.141 21.7271H30.1257C30.5187 21.7271 30.8373 22.0427 30.8373 22.432C30.8373 22.8213 30.5187 23.1369 30.1257 23.1369H28.141C27.748 23.1369 27.4294 22.8213 27.4294 22.432Z" fill="#5D58F7"/>
<path fill-rule="evenodd" clip-rule="evenodd" d="M26.6025 26.9303C26.6025 26.541 26.9211 26.2253 27.3141 26.2253H28.3816C30.114 26.2253 31.26 27.5459 31.3507 28.8942C31.3971 29.5833 31.1694 30.2992 30.5954 30.8361C30.0264 31.3682 29.1923 31.6558 28.1468 31.6568L28.1446 31.6568L28.122 31.6571C28.1024 31.6574 28.0737 31.6577 28.0363 31.658C27.9615 31.6585 27.8517 31.659 27.7096 31.6585C27.4256 31.6577 27.0125 31.6533 26.4923 31.6396C25.4522 31.612 23.9822 31.5466 22.2577 31.3953C18.8159 31.0931 14.3283 30.4459 10.2149 29.0572C9.84292 28.9317 9.64413 28.5311 9.7709 28.1626C9.89767 27.7941 10.302 27.5971 10.674 27.7227C14.6346 29.0598 18.9953 29.6935 22.3833 29.9909C24.0736 30.1392 25.5139 30.2033 26.5304 30.2302C27.0384 30.2436 27.4402 30.2478 27.714 30.2486C27.8508 30.249 27.9556 30.2486 28.0257 30.2481C28.0607 30.2479 28.0871 30.2476 28.1044 30.2474L28.1235 30.2471L28.1288 30.247L28.141 30.2469C28.9347 30.2469 29.3822 30.0318 29.6184 29.8109C29.8506 29.5937 29.9519 29.3043 29.9306 28.988C29.8861 28.3255 29.3105 27.6352 28.3816 27.6352H27.3141C26.9211 27.6352 26.6025 27.3196 26.6025 26.9303Z" fill="#5D58F7"/>
<path fill-rule="evenodd" clip-rule="evenodd" d="M18.3582 1.62864C18.2606 1.79621 18.176 2.09832 18.22 2.58965L18.2201 2.59124C18.5155 5.98061 16.5962 9.20136 14.7352 11.4925C13.7916 12.6543 12.8329 13.6139 12.1108 14.2827C11.7493 14.6176 11.4457 14.8808 11.2312 15.0614C11.1239 15.1517 11.0388 15.2214 10.9797 15.2692C10.9502 15.293 10.9272 15.3114 10.9111 15.3241L10.8924 15.3389L10.8871 15.3431L10.8854 15.3444L10.8849 15.3448C10.8847 15.345 10.8845 15.3451 10.4445 14.7911L10.8845 15.3451C10.5756 15.5858 10.1282 15.5329 9.88523 15.2269C9.64232 14.9209 9.69568 14.4779 10.0044 14.2372C10.0044 14.2371 10.0044 14.2371 10.0044 14.2371C10.0045 14.2371 10.0045 14.237 10.0046 14.237L10.0048 14.2368L10.0077 14.2345L10.0216 14.2236C10.0343 14.2135 10.0539 14.1978 10.08 14.1768C10.1321 14.1346 10.2099 14.0709 10.3096 13.987C10.509 13.8191 10.7956 13.5707 11.1388 13.2528C11.8263 12.616 12.7357 11.7053 13.6264 10.6087C15.4339 8.3833 17.0478 5.53481 16.8023 2.71337C16.7411 2.02831 16.8403 1.41372 17.1254 0.924059C17.4194 0.419288 17.884 0.0976542 18.4289 -0.0114817C19.4763 -0.221258 20.6266 0.363142 21.4836 1.36348C23.1593 3.31934 24.0734 7.16153 22.0375 12.7158H31.8849C32.8366 12.7158 33.6024 13.0752 34.123 13.6552C34.6319 14.2223 34.8699 14.9584 34.8687 15.671C34.8675 16.3836 34.6272 17.1187 34.1185 17.6848C34.0085 17.8072 33.8876 17.9198 33.7564 18.0213C33.8005 18.0646 33.8431 18.1093 33.8842 18.1554C34.3912 18.7245 34.6228 19.4622 34.6169 20.1739C34.6109 20.8855 34.3673 21.6182 33.8616 22.1824C33.5368 22.5447 33.1169 22.8224 32.6164 22.979C32.952 23.4875 33.1106 24.0853 33.1096 24.6674C33.1084 25.38 32.868 26.1151 32.3594 26.6812C31.8391 27.2602 31.0747 27.6203 30.1258 27.6203H28.3667C27.9736 27.6203 27.655 27.3047 27.655 26.9153C27.655 26.526 27.9736 26.2104 28.3667 26.2104H30.1258C30.6879 26.2104 31.0587 26.0082 31.2963 25.7438C31.5455 25.4665 31.6857 25.077 31.6864 24.6651C31.6871 24.2532 31.5483 23.8647 31.3002 23.5884C31.0639 23.325 30.6927 23.1221 30.1258 23.1221C29.7328 23.1221 29.4142 22.8065 29.4142 22.4171C29.4142 22.0278 29.7328 21.7122 30.1258 21.7122H31.6444C32.1918 21.7122 32.5587 21.5125 32.7974 21.2462C33.0477 20.967 33.1903 20.5752 33.1937 20.1622C33.1972 19.7494 33.0614 19.3625 32.8171 19.0882C32.5847 18.8274 32.2159 18.6239 31.6444 18.6239C31.2513 18.6239 30.9327 18.3083 30.9327 17.9189C30.9327 17.5296 31.2513 17.214 31.6444 17.214H31.8849C32.447 17.214 32.8178 17.0118 33.0554 16.7474C33.3046 16.4701 33.4448 16.0806 33.4455 15.6687C33.4462 15.2568 33.3074 14.8683 33.0594 14.592C32.823 14.3286 32.4518 14.1257 31.8849 14.1257H20.9993C20.7621 14.1257 20.5405 14.0086 20.4083 13.8134C20.2762 13.6182 20.2509 13.3706 20.341 13.1532C22.7395 7.36195 21.7053 3.80109 20.3985 2.27578C19.7163 1.47944 19.0464 1.30328 18.711 1.37046C18.5645 1.39979 18.4471 1.47601 18.3582 1.62864Z" fill="#5D58F7"/>
<path d="M10.4445 13.3909H1.42334V31.2645H10.4445V13.3909Z" fill="#FAFAFA"/>
<path fill-rule="evenodd" clip-rule="evenodd" d="M0.71167 13.391C0.71167 13.0017 1.03027 12.686 1.42327 12.686H10.4445C10.8375 12.686 11.1561 13.0017 11.1561 13.391V31.2646C11.1561 31.654 10.8375 31.9696 10.4445 31.9696H1.42327C1.03027 31.9696 0.71167 31.654 0.71167 31.2646V13.391ZM2.13488 14.0959V30.5597H9.73287V14.0959H2.13488Z" fill="#FF6272"/>
</g>
<defs>
<clipPath id="clip0_142_2908">
<rect width="36" height="32.4" fill="white"/>
</clipPath>
</defs>
</svg>
