<svg width="48" height="48" viewBox="0 0 48 48" fill="none" xmlns="http://www.w3.org/2000/svg">
<path d="M28 2C32.7739 2 37.3523 3.89642 40.7279 7.27208C44.1036 10.6477 46 15.2261 46 20" stroke="#1C1A4A" stroke-width="2" stroke-miterlimit="10" stroke-linecap="round" stroke-linejoin="round"/>
<path d="M28 10C30.6522 10 33.1957 11.0536 35.0711 12.9289C36.9464 14.8043 38 17.3478 38 20" stroke="#1C1A4A" stroke-width="2" stroke-miterlimit="10" stroke-linecap="round" stroke-linejoin="round"/>
<path d="M31.0411 28.9399L27.6181 33.2189C22.3165 30.1031 17.8983 25.6852 14.7821 20.3839L19.0611 16.9609C19.5625 16.5593 19.9168 16.0031 20.0688 15.379C20.2208 14.7548 20.1618 14.098 19.9011 13.5109L16.0001 4.72788C15.7205 4.09777 15.2262 3.58746 14.6053 3.288C13.9844 2.98853 13.2773 2.91938 12.6101 3.09288L5.18611 5.01888C4.49326 5.1999 3.89088 5.6288 3.49314 6.22431C3.0954 6.81981 2.92994 7.54053 3.02811 8.24988C4.33116 17.5285 8.61951 26.1307 15.2449 32.7561C21.8703 39.3815 30.4725 43.6698 39.7511 44.9729C40.4603 45.0708 41.1808 44.9052 41.7761 44.5075C42.3714 44.1098 42.8001 43.5075 42.9811 42.8149L44.9071 35.3899C45.0803 34.7228 45.0111 34.016 44.7118 33.3952C44.4126 32.7744 43.9028 32.28 43.2731 31.9999L34.4911 28.0999C33.9041 27.839 33.2471 27.78 32.623 27.9319C31.9988 28.0839 31.4425 28.4383 31.0411 28.9399V28.9399Z" stroke="#1C1A4A" stroke-width="2" stroke-miterlimit="10" stroke-linecap="round" stroke-linejoin="round"/>
</svg>
