<svg width="51" height="50" viewBox="0 0 51 50" fill="none" xmlns="http://www.w3.org/2000/svg">
<path d="M25.5 48.4483C38.7548 48.4483 49.5 37.8266 49.5 24.7241C49.5 11.6217 38.7548 1 25.5 1C12.2452 1 1.5 11.6217 1.5 24.7241C1.5 37.8266 12.2452 48.4483 25.5 48.4483Z" stroke="#1C1A4A" stroke-width="2" stroke-linecap="round" stroke-linejoin="round"/>
<path d="M18.5161 17.607C19.0804 16.0214 20.1941 14.6844 21.66 13.8328C23.1259 12.9812 24.8495 12.6699 26.5253 12.954C28.2012 13.2382 29.7213 14.0995 30.8163 15.3853C31.9113 16.6712 32.5106 18.2986 32.5081 19.9794C32.5081 24.7243 25.3081 27.0967 25.3081 27.0967" stroke="#1C1A4A" stroke-width="3" stroke-linecap="round" stroke-linejoin="round"/>
<path d="M25.4995 36.5859H25.5241" stroke="#1C1A4A" stroke-width="4" stroke-linecap="round" stroke-linejoin="round"/>
</svg>
