<svg width="49" height="48" viewBox="0 0 49 48" fill="none" xmlns="http://www.w3.org/2000/svg">
<g clip-path="url(#clip0_167_1820)">
<path d="M2.02948 46.5933L4.94733 35.9387L5.05758 35.5361L4.84891 35.1747C2.85496 31.7204 1.80528 27.801 1.80692 23.784C1.81196 11.2219 12.0375 1.00022 24.5994 1L2.02948 46.5933ZM2.02948 46.5933L12.9667 43.7252L13.3506 43.6246L13.6991 43.8146C17.027 45.6291 20.775 46.5859 24.5903 46.5876C24.5905 46.5876 24.5906 46.5876 24.5907 46.5876H24.6001H24.6001C37.1608 46.5876 47.3876 36.3645 47.3926 23.8022C47.395 17.712 45.0277 11.9904 40.7231 7.68229L41.4305 6.97547L40.7231 7.68228C36.4187 3.37434 30.6995 1.00246 24.5998 1L2.02948 46.5933Z" stroke="#1C1A4A" stroke-width="2"/>
<path fill-rule="evenodd" clip-rule="evenodd" d="M18.6537 13.8407C18.1712 12.6818 17.6811 12.8386 17.3161 12.8204C16.9698 12.8032 16.573 12.7996 16.1767 12.7996C15.7804 12.7996 15.1364 12.9483 14.5914 13.5432C14.0465 14.1382 12.5107 15.576 12.5107 18.5012C12.5107 21.4264 14.641 24.2524 14.9382 24.6491C15.2355 25.0458 19.1303 31.0487 25.0939 33.623C26.5123 34.2353 27.6197 34.6009 28.483 34.875C29.9072 35.3272 31.2032 35.2634 32.2276 35.1104C33.3697 34.9398 35.7449 33.6726 36.2403 32.2844C36.7357 30.8961 36.7357 29.7062 36.587 29.4583C36.4385 29.2105 36.0421 29.0617 35.4477 28.7642C34.8531 28.4667 31.9303 27.0289 31.3853 26.8306C30.8404 26.6323 30.4441 26.5331 30.0478 27.1281C29.6515 27.723 28.5122 29.0617 28.1654 29.4583C27.8186 29.855 27.4718 29.9046 26.8774 29.6071C26.2828 29.3096 24.3673 28.682 22.0966 26.6573C20.3293 25.0815 19.1361 23.1351 18.7893 22.5402C18.4425 21.9452 18.7524 21.6235 19.05 21.3273C19.3174 21.061 19.6445 20.6331 19.9418 20.2861C20.239 19.939 20.3381 19.6911 20.5362 19.2945C20.7344 18.8978 20.6353 18.5508 20.4867 18.2533C20.3381 17.9558 19.1491 15.0306 18.6537 13.8407Z" fill="#1C1A4A"/>
</g>
<defs>
<clipPath id="clip0_167_1820">
<rect width="48" height="48" fill="white" transform="translate(0.5)"/>
</clipPath>
</defs>
</svg>
